<svg id="Ebene_1" viewBox="0 0 21.36 19.98" xmlns="http://www.w3.org/2000/svg">
    <polygon fill="none" fill-rule="evenodd"
        points="10.68 0 0 0 0 19.98 10.68 19.98 21.36 19.98 21.36 0 10.68 0" />
    <polygon fill="none" fill-rule="evenodd"
        points="7.08 1.68 4.99 3.77 11.61 10.39 11.61 18.18 13.09 18.18 14.56 18.18 14.56 9.16 7.08 1.68" />
    <polyline fill="none" fill-rule="evenodd" points="14.56 18.18 14.56 9.16 7.08 1.68"
        stroke="#231f20" stroke-width="0.45" />
    <polyline fill="none" fill-rule="evenodd" points="4.99 3.77 11.61 10.39 11.61 18.18"
        stroke="#231f20" stroke-width="0.45" />
    <polygon fill="#231f20" fill-rule="evenodd"
        points="13.09 3.66 14.56 3.66 14.56 15.8 13.09 15.8 11.61 15.8 11.61 3.66 13.09 3.66"
        stroke="#231f20" stroke-width="0.45" />
    <path d="M92.09,103.59a3.25,3.25,0,1,1,3.24-3.25A3.25,3.25,0,0,1,92.09,103.59Z" fill="#231f20"
        stroke="#231f20" stroke-width="0.15" transform="translate(-79 -84)" />
    <polygon fill="#231f20" points="16.34 3.68 9.83 3.68 13.09 0.42 16.34 3.68" stroke="#231f20"
        stroke-width="0.15" />
</svg>