<svg id="Ebene_1" viewBox="0 0 21.36 19.98" xmlns="http://www.w3.org/2000/svg">
    <polygon fill="none" fill-rule="evenodd"
        points="10.68 0 0 0 0 19.98 10.68 19.98 21.36 19.98 21.36 0 10.68 0" />
    <path d="M95.81,107.07a3.25,3.25,0,1,1,3.25-3.25A3.24,3.24,0,0,1,95.81,107.07Z" fill="#231f20"
        stroke="#231f20" stroke-width="0.45" transform="translate(-83 -87.61)" />
    <rect fill="none" height="15.92" width="1.47" x="12.81" y="0.3" />
    <rect fill="none" height="15.92" width="1.47" x="11.33" y="0.3" />
    <line fill="none" stroke="#231f20" stroke-width="0.45" x1="14.28" x2="14.28" y1="0.3"
        y2="16.21" />
    <line fill="none" stroke="#231f20" stroke-width="0.45" x1="11.33" x2="11.33" y1="16.21"
        y2="0.3" />
    <polygon fill-rule="evenodd"
        points="6.56 9.67 11.34 4.89 14.28 4.89 14.28 16.21 11.33 16.21 11.33 9.08 8.65 11.76 9.9 13.02 5.3 13.02 5.3 8.41 6.56 9.67"
        stroke="#231f20" stroke-width="0.45" />
</svg>