<svg id="Ebene_1" viewBox="0 0 21.36 19.98" xmlns="http://www.w3.org/2000/svg">
    <polygon fill="none" fill-rule="evenodd"
        points="10.68 0 21.36 0 21.36 19.98 10.68 19.98 0 19.98 0 0 10.68 0" />
    <polygon fill="none" fill-rule="evenodd"
        points="8.62 9.31 8.62 10.79 8.62 12.26 14.47 12.26 14.47 10.79 14.47 9.31 8.62 9.31" />
    <rect fill="none" height="15.92" width="2.97" x="6.2" y="0.3" />
    <line fill="none" stroke="#231f20" stroke-width="0.45" x1="6.2" x2="6.2" y1="16.21" y2="0.3" />
    <path d="M83.68,101.07a3.25,3.25,0,1,1,3.25-3.25A3.24,3.24,0,0,1,83.68,101.07Z" fill="#231f20"
        stroke="#231f20" stroke-width="0.45" transform="translate(-76 -81.61)" />
    <polygon fill="#231f20"
        points="16.83 4.49 13.57 1.23 13.57 3.01 6.2 3.01 6.2 18.44 9.15 18.44 9.15 5.96 13.57 5.96 13.57 7.75 16.83 4.49"
        stroke="#231f20" stroke-width="0.45" />
    <polyline fill="none" fill-rule="evenodd" points="14.47 9.31 9.15 9.31 9.15 0.29"
        stroke="#231f20" stroke-width="0.45" />
    <polyline fill="none" fill-rule="evenodd" points="14.47 12.26 9.15 12.26 9.15 16.21"
        stroke="#231f20" stroke-width="0.45" />
</svg>