<svg id="Ebene_1" viewBox="0 0 21.36 19.98" xmlns="http://www.w3.org/2000/svg">
    <polygon fill="none" fill-rule="evenodd"
        points="10.68 0 0 0 0 19.98 10.68 19.98 21.36 19.98 21.36 0 10.68 0" />
    <polygon fill="none" fill-rule="evenodd"
        points="5.26 4.35 7.33 2.28 11.96 6.9 11.93 11.03 7.36 15.59 5.26 13.48 9.83 8.92 5.26 4.35" />
    <polyline fill="none" fill-rule="evenodd" points="5.26 13.48 9.83 8.92 5.26 4.35"
        stroke="#231f20" stroke-width="0.45" />
    <polyline fill="none" fill-rule="evenodd" points="7.33 2.28 11.96 6.9 11.93 11.03 7.36 15.59"
        stroke="#231f20" stroke-width="0.45" />
    <polygon fill="#231f20" fill-rule="evenodd"
        points="12.82 3.66 14.29 3.66 14.29 15.8 12.82 15.8 11.34 15.8 11.34 3.66 12.82 3.66"
        stroke="#231f20" stroke-width="0.45" />
    <path d="M100.32,97.59a3.25,3.25,0,1,1,3.25-3.25A3.25,3.25,0,0,1,100.32,97.59Z" fill="#231f20"
        stroke="#231f20" stroke-width="0.15" transform="translate(-87.5 -78)" />
    <polygon fill="#231f20" points="16.07 3.68 9.56 3.68 12.82 0.42 16.07 3.68" stroke="#231f20"
        stroke-width="0.15" />
</svg>