<svg id="Ebene_1" viewBox="0 0 21.36 19.98" xmlns="http://www.w3.org/2000/svg">
    <polygon fill="none" fill-rule="evenodd"
        points="10.68 0 21.36 0 21.36 19.98 10.68 19.98 0 19.98 0 0 10.68 0" />
    <polygon fill="none" fill-rule="evenodd"
        points="11.64 8.85 12.69 9.89 8.52 14.06 7.47 13.02 6.43 11.98 10.6 7.81 11.64 8.85" />
    <line fill="none" stroke="#231f20" stroke-width="0.45" x1="12.69" x2="8.52" y1="9.89"
        y2="14.06" />
    <line fill="none" stroke="#231f20" stroke-width="0.45" x1="6.43" x2="10.6" y1="11.98"
        y2="7.81" />
    <path d="M96.33,100.58a3.25,3.25,0,1,1,3.25-3.24A3.24,3.24,0,0,1,96.33,100.58Z" fill="#231f20"
        stroke="#231f20" stroke-width="0.45" transform="translate(-83.5 -81)" />
    <polygon fill="none" fill-rule="evenodd"
        points="12.83 0.41 14.3 0.41 14.3 16.33 12.83 16.33 11.35 16.33 11.35 0.41 12.83 0.41" />
    <line fill="none" stroke="#231f20" stroke-width="0.45" x1="14.3" x2="14.3" y1="0.42"
        y2="16.33" />
    <line fill="none" stroke="#231f20" stroke-width="0.45" x1="11.35" x2="11.35" y1="16.33"
        y2="0.42" />
    <polygon fill="#231f20" fill-rule="evenodd"
        points="8.63 1.66 9.89 0.4 5.28 0.4 5.28 5.01 6.54 3.75 11.35 8.56 11.35 18.17 12.83 18.17 14.3 18.17 14.3 7.33 8.63 1.66"
        stroke="#231f20" stroke-width="0.45" />
</svg>