<svg id="Ebene_1" viewBox="0 0 21.36 19.98" xmlns="http://www.w3.org/2000/svg">
    <polygon fill="none" fill-rule="evenodd"
        points="10.68 0 0 0 0 19.98 10.68 19.98 21.36 19.98 21.36 0 10.68 0" />
    <polygon fill="none" fill-rule="evenodd"
        points="15.07 3.58 14.02 2.54 12.98 1.49 11.75 2.73 11.75 1.06 10.28 1.06 8.8 1.06 8.8 16.98 10.28 16.98 11.75 16.98 11.75 6.89 15.07 3.58" />
    <line fill="none" stroke="#231f20" stroke-width="0.45" x1="15.11" x2="10.94" y1="3.58"
        y2="7.75" />
    <line fill="none" stroke="#231f20" stroke-width="0.45" x1="8.84" x2="8.84" y1="16.98"
        y2="1.06" />
    <polyline fill="none" fill-rule="evenodd" points="11.79 1.06 11.79 2.73 13.02 1.49"
        stroke="#231f20" stroke-width="0.45" />
    <path d="M101,103.54a3.25,3.25,0,1,0-3.25-3.25A3.25,3.25,0,0,0,101,103.54Z" fill="#231f20"
        stroke="#231f20" stroke-width="0.45" transform="translate(-90.5 -83.84)" />
    <polygon fill="#231f20"
        points="19.56 7.83 16.31 4.58 16.31 6.35 8.94 6.35 8.94 15.49 11.88 15.49 11.88 9.31 16.31 9.31 16.31 11.09 19.56 7.83"
        stroke="#231f20" stroke-width="0.45" />
</svg>