<svg id="Ebene_1" viewBox="0 0 21.35 21" xmlns="http://www.w3.org/2000/svg">
    <polygon fill="none" fill-rule="evenodd"
        points="10.68 1.01 21.36 1.01 21.36 21 10.68 21 0 21 0 1.01 10.68 1.01" />
    <rect fill="none" height="1.47" width="6.84" x="3.84" y="10.11" />
    <rect fill="none" height="1.47" width="6.84" x="3.84" y="11.59" />
    <line fill="none" stroke="#231f20" stroke-width="0.45" x1="3.84" x2="10.68" y1="10.11"
        y2="10.11" />
    <line fill="none" stroke="#231f20" stroke-width="0.45" x1="10.68" x2="3.84" y1="13.06"
        y2="13.06" />
    <rect fill="none" height="11.5" width="1.47" x="10.68" y="5.77" />
    <rect fill="none" height="11.5" width="1.47" x="9.2" y="5.77" />
    <line fill="none" stroke="#231f20" stroke-width="0.45" x1="12.15" x2="12.15" y1="5.77"
        y2="17.27" />
    <line fill="none" stroke="#231f20" stroke-width="0.45" x1="9.2" x2="9.2" y1="17.27" y2="5.77" />
    <polygon fill="#231f20" fill-rule="evenodd"
        points="10.68 3.6 12.15 3.6 12.15 16.72 10.68 16.72 9.2 16.72 9.2 3.6 10.68 3.6"
        stroke="#231f20" stroke-width="0.45" />
    <path d="M89,89.5a3.25,3.25,0,1,1,3.25-3.25A3.25,3.25,0,0,1,89,89.5Z" fill="#231f20"
        stroke="#231f20" stroke-width="0.15" transform="translate(-78.32 -68.99)" />
    <polygon fill="#231f20" points="13.93 3.36 7.42 3.36 10.68 0.11 13.93 3.36" stroke="#231f20"
        stroke-width="0.15" />
    <line fill="none" stroke="#231f20" stroke-width="0.45" x1="11.66" x2="6.38" y1="8.64"
        y2="3.36" />
    <line fill="none" stroke="#231f20" stroke-width="0.45" x1="4.29" x2="9.28" y1="5.45"
        y2="10.35" />
</svg>