<svg id="Ebene_1" viewBox="0 0 22.48 20.21" xmlns="http://www.w3.org/2000/svg">
    <polygon fill="none" fill-rule="evenodd"
        points="10.68 0.23 0 0.23 0 20.21 10.68 20.21 21.36 20.21 21.36 0.23 10.68 0.23" />
    <polygon fill="none" fill-rule="evenodd"
        points="11.66 0.64 10.19 0.64 10.19 16.56 11.66 16.56 13.14 16.56 13.14 0.64 11.66 0.64" />
    <path d="M74.7,95.83A3.25,3.25,0,1,1,78,92.59,3.25,3.25,0,0,1,74.7,95.83Z" fill="#231f20"
        stroke="#231f20" stroke-width="0.45" transform="translate(-63 -76.28)" />
    <line fill="none" stroke="#231f20" stroke-width="0.45" x1="13.18" x2="13.18" y1="2.33"
        y2="18.25" />
    <line fill="none" stroke="#231f20" stroke-width="0.45" x1="10.23" x2="10.23" y1="18.25"
        y2="2.33" />
    <line fill="none" stroke="#231f20" stroke-width="0.45" x1="12.28" x2="19.11" y1="3.88"
        y2="3.88" />
    <line fill="none" stroke="#231f20" stroke-width="0.45" x1="19.11" x2="13.79" y1="6.83"
        y2="6.83" />
    <polygon fill="#231f20" fill-rule="evenodd"
        points="11.71 0.23 13.18 0.23 13.18 14.43 11.71 14.43 10.23 14.43 10.23 0.23 11.71 0.23"
        stroke="#231f20" stroke-width="0.45" />
    <polygon fill="#231f20" points="19.11 8.63 19.11 2.11 22.37 5.37 19.11 8.63" stroke="#231f20"
        stroke-width="0.15" />
    <line fill="none" stroke="#231f20" stroke-width="0.45" x1="18.5" x2="13.93" y1="11.4"
        y2="6.83" />
    <line fill="none" stroke="#231f20" stroke-width="0.45" x1="10.68" x2="16.65" y1="7.76"
        y2="13.73" />
    <polygon fill="#231f20" fill-rule="evenodd"
        points="19.05 5.37 19.05 6.84 13.38 6.84 13.38 5.37 13.38 3.89 19.05 3.89 19.05 5.37"
        stroke="#231f20" stroke-width="0.45" />
</svg>