<svg id="Ebene_1" viewBox="0 0 22.48 20.21" xmlns="http://www.w3.org/2000/svg">
    <polygon fill="none" fill-rule="evenodd"
        points="11.8 0.23 22.48 0.23 22.48 20.21 11.8 20.21 1.12 20.21 1.12 0.23 11.8 0.23" />
    <polygon fill="none" fill-rule="evenodd"
        points="10.82 0.64 12.29 0.64 12.29 16.56 10.82 16.56 9.34 16.56 9.34 0.64 10.82 0.64" />
    <path d="M73.67,95.83a3.25,3.25,0,1,0-3.25-3.24A3.25,3.25,0,0,0,73.67,95.83Z" fill="#231f20"
        stroke="#231f20" stroke-width="0.45" transform="translate(-62.89 -76.28)" />
    <line fill="none" stroke="#231f20" stroke-width="0.45" x1="9.3" x2="9.3" y1="2.33" y2="18.25" />
    <line fill="none" stroke="#231f20" stroke-width="0.45" x1="12.25" x2="12.25" y1="18.25"
        y2="2.33" />
    <line fill="none" stroke="#231f20" stroke-width="0.45" x1="10.2" x2="3.36" y1="3.88"
        y2="3.88" />
    <line fill="none" stroke="#231f20" stroke-width="0.45" x1="3.36" x2="8.68" y1="6.83"
        y2="6.83" />
    <polygon fill="#231f20" fill-rule="evenodd"
        points="10.77 0.23 9.29 0.23 9.29 14.43 10.77 14.43 12.24 14.43 12.24 0.23 10.77 0.23"
        stroke="#231f20" stroke-width="0.45" />
    <polygon fill="#231f20" points="3.36 8.63 3.36 2.11 0.11 5.37 3.36 8.63" stroke="#231f20"
        stroke-width="0.15" />
    <line fill="none" stroke="#231f20" stroke-width="0.45" x1="3.98" x2="8.55" y1="11.4"
        y2="6.83" />
    <line fill="none" stroke="#231f20" stroke-width="0.45" x1="11.8" x2="5.83" y1="7.76"
        y2="13.73" />
    <polygon fill="#231f20" fill-rule="evenodd"
        points="3.43 5.37 3.43 6.84 9.1 6.84 9.1 5.37 9.1 3.89 3.43 3.89 3.43 5.37" stroke="#231f20"
        stroke-width="0.45" />
</svg>