<svg id="Ebene_1" viewBox="0 0 21.35 21.59" xmlns="http://www.w3.org/2000/svg">
    <polygon fill="none" fill-rule="evenodd"
        points="10.68 1.6 21.35 1.6 21.35 21.59 10.68 21.59 0 21.59 0 1.6 10.68 1.6" />
    <path d="M93.67,95.9a3.25,3.25,0,1,1,3.25-3.25A3.24,3.24,0,0,1,93.67,95.9Z" fill="#231f20"
        stroke="#231f20" stroke-width="0.45" transform="translate(-78 -76.9)" />
    <polygon points="4.63 4.51 1.38 7.76 4.63 11.02 4.63 4.51" stroke="#231f20"
        stroke-width="0.45" />
    <polygon points="4.38 6.29 4.38 9.24 14.2 9.24 14.2 16.73 17.15 16.73 17.15 6.29 4.38 6.29"
        stroke="#231f20" stroke-width="0.45" />
    <line fill="none" stroke="#231f20" stroke-width="0.45" x1="10.21" x2="10.21" y2="15.92" />
    <line fill="none" stroke="#231f20" stroke-width="0.45" x1="7.26" x2="7.26" y1="15.92" />
    <line fill="none" stroke="#231f20" stroke-width="0.45" x1="17.15" x2="17.15" y2="6.83" />
    <line fill="none" stroke="#231f20" stroke-width="0.45" x1="14.2" x2="14.2" y1="6.83" />
</svg>