<svg id="Ebene_1" viewBox="0 0 21.35 21.59" xmlns="http://www.w3.org/2000/svg">
    <polygon fill="none" fill-rule="evenodd"
        points="10.68 1.6 0 1.6 0 21.59 10.68 21.59 21.36 21.59 21.36 1.6 10.68 1.6" />
    <path d="M90.63,95.9a3.25,3.25,0,1,0-3.25-3.25A3.24,3.24,0,0,0,90.63,95.9Z" fill="#231f20"
        stroke="#231f20" stroke-width="0.45" transform="translate(-78 -76.9)" />
    <polygon points="17.38 3.41 20.63 6.66 17.38 9.92 17.38 3.41" stroke="#231f20"
        stroke-width="0.45" />
    <line fill="none" stroke="#231f20" stroke-width="0.45" x1="11.15" x2="11.15" y2="5.61" />
    <line fill="none" stroke="#231f20" stroke-width="0.45" x1="14.09" x2="14.09" y1="5.61" />
    <line fill="none" stroke="#231f20" stroke-width="0.45" x1="7.18" x2="11.38" y1="5.48"
        y2="5.48" />
    <line fill="none" stroke="#231f20" stroke-width="0.45" x1="11.38" x2="7.18" y1="8.43"
        y2="8.43" />
    <line fill="none" stroke="#231f20" stroke-width="0.45" x1="7.4" x2="7.4" y1="5.61" />
    <line fill="none" stroke="#231f20" stroke-width="0.45" x1="4.45" x2="4.45" y2="13.83" />
    <line fill="none" stroke="#231f20" stroke-width="0.45" x1="7.4" x2="7.4" y1="13.83" y2="8.43" />
    <line fill="none" stroke="#231f20" stroke-width="0.45" x1="11.16" x2="11.16" y1="8.21"
        y2="13.82" />
    <line fill="none" stroke="#231f20" stroke-width="0.45" x1="14.11" x2="14.11" y1="13.82"
        y2="8.21" />
    <line fill="none" stroke="#231f20" stroke-width="0.45" x1="13.96" x2="18.16" y1="5.48"
        y2="5.48" />
    <line fill="none" stroke="#231f20" stroke-width="0.45" x1="18.16" x2="13.96" y1="8.43"
        y2="8.43" />
    <polygon fill="#231f20" fill-rule="evenodd"
        points="12.63 5.48 14.11 5.48 14.11 13.12 12.63 13.12 11.16 13.12 11.16 5.48 12.63 5.48"
        stroke="#231f20" stroke-width="0.45" />
    <polygon fill="#231f20" fill-rule="evenodd"
        points="18.8 6.96 18.8 8.43 11.16 8.43 11.16 6.96 11.16 5.48 18.8 5.48 18.8 6.96"
        stroke="#231f20" stroke-width="0.45" />
</svg>