<svg id="Ebene_1" viewBox="0 0 21.35 21.59" xmlns="http://www.w3.org/2000/svg">
    <polygon fill="none" fill-rule="evenodd"
        points="10.68 1.6 21.35 1.6 21.35 21.59 10.68 21.59 0 21.59 0 1.6 10.68 1.6" />
    <path d="M86.72,95.9A3.25,3.25,0,1,1,90,92.65,3.24,3.24,0,0,1,86.72,95.9Z" fill="#231f20"
        stroke="#231f20" stroke-width="0.45" transform="translate(-78 -76.9)" />
    <polygon points="3.98 3.41 0.72 6.66 3.98 9.92 3.98 3.41" stroke="#231f20"
        stroke-width="0.45" />
    <line fill="none" stroke="#231f20" stroke-width="0.45" x1="10.21" x2="10.21" y2="5.61" />
    <line fill="none" stroke="#231f20" stroke-width="0.45" x1="7.26" x2="7.26" y1="5.61" />
    <line fill="none" stroke="#231f20" stroke-width="0.45" x1="14.18" x2="9.97" y1="5.48"
        y2="5.48" />
    <line fill="none" stroke="#231f20" stroke-width="0.45" x1="9.97" x2="14.18" y1="8.43"
        y2="8.43" />
    <line fill="none" stroke="#231f20" stroke-width="0.45" x1="13.95" x2="13.95" y1="5.61" />
    <line fill="none" stroke="#231f20" stroke-width="0.45" x1="16.9" x2="16.9" y2="13.83" />
    <line fill="none" stroke="#231f20" stroke-width="0.45" x1="13.95" x2="13.95" y1="13.83"
        y2="8.43" />
    <line fill="none" stroke="#231f20" stroke-width="0.45" x1="10.2" x2="10.2" y1="8.21"
        y2="13.82" />
    <line fill="none" stroke="#231f20" stroke-width="0.45" x1="7.25" x2="7.25" y1="13.82"
        y2="8.21" />
    <line fill="none" stroke="#231f20" stroke-width="0.45" x1="7.4" x2="3.19" y1="5.48" y2="5.48" />
    <line fill="none" stroke="#231f20" stroke-width="0.45" x1="3.19" x2="7.4" y1="8.43" y2="8.43" />
    <polygon fill="#231f20" fill-rule="evenodd"
        points="8.72 5.48 7.25 5.48 7.25 13.12 8.72 13.12 10.2 13.12 10.2 5.48 8.72 5.48"
        stroke="#231f20" stroke-width="0.45" />
    <polygon fill="#231f20" fill-rule="evenodd"
        points="2.56 6.96 2.56 8.43 10.2 8.43 10.2 6.96 10.2 5.48 2.56 5.48 2.56 6.96"
        stroke="#231f20" stroke-width="0.45" />
</svg>