<svg id="Ebene_1" viewBox="0 0 21.36 19.98" xmlns="http://www.w3.org/2000/svg">
    <polygon fill="none" fill-rule="evenodd"
        points="10.68 0 0 0 0 19.98 10.68 19.98 21.36 19.98 21.36 0 10.68 0" />
    <rect fill="none" height="5.9" transform="translate(-117.63 14.36) rotate(-45)" width="1.47"
        x="95.96" y="87.49" />
    <rect fill="none" height="5.9" transform="translate(-118.67 13.94) rotate(-45)" width="1.47"
        x="94.92" y="88.53" />
    <line fill="none" stroke="#231f20" stroke-width="0.45" x1="13.14" x2="17.31" y1="7.33"
        y2="11.5" />
    <line fill="none" stroke="#231f20" stroke-width="0.45" x1="15.22" x2="11.05" y1="13.58"
        y2="9.41" />
    <path d="M93.66,100.08a3.25,3.25,0,1,1,3.25-3.24A3.25,3.25,0,0,1,93.66,100.08Z" fill="#231f20"
        stroke="#231f20" stroke-width="0.45" transform="translate(-82 -80.5)" />
    <polygon fill="#231f20" fill-rule="evenodd"
        points="7.46 1.66 8.72 0.4 4.12 0.4 4.12 5.01 5.38 3.75 10.19 8.56 10.19 18.17 11.66 18.17 13.14 18.17 13.14 7.33 7.46 1.66"
        stroke="#231f20" stroke-width="0.45" />
</svg>