<svg id="Ebene_1" viewBox="0 0 21.36 19.98" xmlns="http://www.w3.org/2000/svg">
    <polygon fill="none" fill-rule="evenodd"
        points="10.68 0 21.36 0 21.36 19.98 10.68 19.98 0 19.98 0 0 10.68 0" />
    <rect fill="none" height="1.47" width="17.68" x="1.84" y="3.63" />
    <rect fill="none" height="1.47" width="17.68" x="1.84" y="5.11" />
    <line fill="none" stroke="#231f20" stroke-width="0.45" x1="1.84" x2="19.52" y1="3.63"
        y2="3.63" />
    <line fill="none" stroke="#231f20" stroke-width="0.45" x1="19.52" x2="1.84" y1="6.58"
        y2="6.58" />
    <path d="M92.47,87.85a3.25,3.25,0,1,1,3.24-3.25A3.24,3.24,0,0,1,92.47,87.85Z" fill="#231f20"
        stroke="#231f20" stroke-width="0.45" transform="translate(-77.5 -71.5)" />
    <polygon
        points="5.24 11.01 5.24 3.63 16.44 3.63 16.44 14.07 13.49 14.07 13.49 6.58 8.19 6.58 8.19 11.01 9.97 11.01 6.72 14.26 3.46 11.01 5.24 11.01"
        stroke="#231f20" stroke-width="0.45" />
</svg>