<svg id="Ebene_1" viewBox="0 0 21.36 19.98" xmlns="http://www.w3.org/2000/svg">
    <polygon fill="none" fill-rule="evenodd"
        points="10.68 0 21.36 0 21.36 19.98 10.68 19.98 0 19.98 0 0 10.68 0" />
    <rect fill="none" height="1.47" width="5.9" x="12.35" y="7.33" />
    <rect fill="none" height="1.47" width="5.9" x="12.35" y="8.81" />
    <line fill="none" stroke="#231f20" stroke-width="0.45" x1="12.35" x2="18.25" y1="7.33"
        y2="7.33" />
    <line fill="none" stroke="#231f20" stroke-width="0.45" x1="18.25" x2="12.35" y1="10.28"
        y2="10.28" />
    <path d="M88.88,101.08a3.25,3.25,0,1,1,3.25-3.24A3.24,3.24,0,0,1,88.88,101.08Z" fill="#231f20"
        stroke="#231f20" stroke-width="0.45" transform="translate(-78 -81.5)" />
    <rect fill="none" height="15.92" width="1.47" x="10.88" y="0.41" />
    <rect fill="none" height="15.92" width="1.47" x="9.4" y="0.41" />
    <polygon fill="#231f20" fill-rule="evenodd"
        points="6.68 1.66 7.94 0.4 3.33 0.4 3.33 5.01 4.59 3.75 9.4 8.56 9.4 18.17 10.88 18.17 12.35 18.17 12.35 7.33 6.68 1.66"
        stroke="#231f20" stroke-width="0.45" />
</svg>