<svg id="Ebene_1" viewBox="0 0 21.36 20.16" xmlns="http://www.w3.org/2000/svg">
    <polygon fill="none" fill-rule="evenodd"
        points="10.68 0.09 0 0.09 0 20.07 10.68 20.07 21.36 20.07 21.36 0.09 10.68 0.09" />
    <path d="M92.44,106.79a3.25,3.25,0,1,1,3.24-3.25A3.24,3.24,0,0,1,92.44,106.79Z" fill="#231f20"
        stroke="#231f20" stroke-width="0.45" transform="translate(-81 -86.86)" />
    <polygon fill="none" fill-rule="evenodd"
        points="4.6 2.31 19.39 2.31 19.39 3.78 3.48 3.78 4.6 2.31" />
    <polygon fill="none" fill-rule="evenodd"
        points="4.6 5.25 3.48 3.78 19.39 3.78 19.39 5.25 4.6 5.25" />
    <line fill="none" stroke="#231f20" stroke-width="0.45" x1="4.6" x2="19.39" y1="2.3" y2="2.3" />
    <line fill="none" stroke="#231f20" stroke-width="0.45" x1="19.39" x2="4.6" y1="5.25"
        y2="5.25" />
    <rect fill="none" height="14.36" width="1.47" x="11.44" y="2.32" />
    <rect fill="none" height="14.36" width="1.47" x="9.96" y="2.32" />
    <line fill="none" stroke="#231f20" stroke-width="0.45" x1="12.91" x2="12.91" y1="2.32"
        y2="16.68" />
    <line fill="none" stroke="#231f20" stroke-width="0.45" x1="9.96" x2="9.96" y1="16.68"
        y2="2.32" />
    <polygon fill="#231f20"
        points="2.28 3.8 5.54 0.55 5.54 2.32 12.91 2.32 12.91 17.55 9.96 17.55 9.96 5.28 5.54 5.28 5.54 7.06 2.28 3.8"
        stroke="#231f20" stroke-width="0.45" />
    <line fill="none" stroke="#231f20" stroke-width="0.45" x1="18.1" x2="12.77" y1="10.25"
        y2="4.92" />
    <line fill="none" stroke="#231f20" stroke-width="0.45" x1="10.68" x2="15.92" y1="7.01"
        y2="12.25" />
</svg>