<svg id="Ebene_1" viewBox="0 0 21.36 19.98" xmlns="http://www.w3.org/2000/svg">
    <polygon fill="none" fill-rule="evenodd"
        points="10.68 0 21.36 0 21.36 19.98 10.68 19.98 0 19.98 0 0 10.68 0" />
    <rect fill="none" height="15.92" width="1.47" x="13.73" y="1.11" />
    <rect fill="none" height="15.92" width="1.47" x="15.21" y="1.11" />
    <line fill="none" stroke="#231f20" stroke-width="0.45" x1="16.68" x2="16.68" y1="1.11"
        y2="17.03" />
    <rect fill="none" height="1.47" width="5.85" x="8.41" y="9.45" />
    <rect fill="none" height="1.47" width="5.85" x="8.41" y="7.98" />
    <polyline fill="none" fill-rule="evenodd" points="8.41 10.93 13.73 10.93 13.73 17.03"
        stroke="#231f20" stroke-width="0.45" />
    <polyline fill="none" fill-rule="evenodd" points="8.41 7.98 13.73 7.98 13.73 1.11"
        stroke="#231f20" stroke-width="0.45" />
    <polygon fill="#231f20" fill-rule="evenodd"
        points="7.89 3.66 9.36 3.66 9.36 15.8 7.89 15.8 6.41 15.8 6.41 3.66 7.89 3.66"
        stroke="#231f20" stroke-width="0.45" />
    <path d="M93.39,93.59a3.25,3.25,0,1,1,3.25-3.25A3.25,3.25,0,0,1,93.39,93.59Z" fill="#231f20"
        stroke="#231f20" stroke-width="0.15" transform="translate(-85.5 -74)" />
    <polygon fill="#231f20" points="11.14 3.68 4.63 3.68 7.89 0.42 11.14 3.68" stroke="#231f20"
        stroke-width="0.15" />
</svg>