<svg id="Ebene_1" viewBox="0 0 21.36 19.98" xmlns="http://www.w3.org/2000/svg">
    <polygon fill="none" fill-rule="evenodd"
        points="10.68 0 21.36 0 21.36 19.98 10.68 19.98 0 19.98 0 0 10.68 0" />
    <path d="M74.92,102.39a3.25,3.25,0,1,1,3.25-3.25A3.24,3.24,0,0,1,74.92,102.39Z" fill="#231f20"
        stroke="#231f20" stroke-width="0.45" transform="translate(-60 -83.52)" />
    <rect fill="none" height="12.64" width="1.47" x="6.76" y="0.89" />
    <rect fill="none" height="12.64" width="1.47" x="5.29" y="0.89" />
    <line fill="none" stroke="#231f20" stroke-width="0.45" x1="8.24" x2="8.24" y1="0.89"
        y2="13.52" />
    <line fill="none" stroke="#231f20" stroke-width="0.45" x1="5.29" x2="5.29" y1="13.52"
        y2="0.89" />
    <rect fill="none" height="12.64" width="1.47" x="15" y="0.89" />
    <rect fill="none" height="12.64" width="1.47" x="13.53" y="0.89" />
    <line fill="none" stroke="#231f20" stroke-width="0.45" x1="16.47" x2="16.47" y1="0.89"
        y2="13.52" />
    <line fill="none" stroke="#231f20" stroke-width="0.45" x1="13.53" x2="13.53" y1="13.52"
        y2="0.89" />
    <polygon
        points="5.28 13.53 5.28 6.15 16.49 6.15 16.49 16.59 13.54 16.59 13.54 9.1 8.24 9.1 8.24 13.53 10.02 13.53 6.76 16.78 3.51 13.53 5.28 13.53"
        stroke="#231f20" stroke-width="0.45" />
</svg>