<svg id="Ebene_1" viewBox="0 0 21.36 19.98" xmlns="http://www.w3.org/2000/svg">
    <polygon fill="none" fill-rule="evenodd"
        points="10.68 0 21.36 0 21.36 19.98 10.68 19.98 0 19.98 0 0 10.68 0" />
    <rect fill="none" height="12.64" width="1.47" x="14.95" y="1.05" />
    <rect fill="none" height="12.64" width="1.47" x="13.48" y="1.05" />
    <line fill="none" stroke="#231f20" stroke-width="0.45" x1="16.43" x2="16.43" y1="1.05"
        y2="13.69" />
    <line fill="none" stroke="#231f20" stroke-width="0.45" x1="13.48" x2="13.48" y1="13.69"
        y2="1.05" />
    <path d="M95,99a3.25,3.25,0,1,1,3.24-3.25A3.25,3.25,0,0,1,95,99Z" fill="#231f20"
        stroke="#231f20" stroke-width="0.45" transform="translate(-80 -80)" />
    <polygon
        points="8.19 4.29 8.19 6.32 16.44 6.32 16.44 16.76 13.49 16.76 13.49 9.27 5.22 9.27 5.22 4.29 9.97 4.29 6.72 1.04 3.46 4.29 8.19 4.29"
        stroke="#231f20" stroke-width="0.45" />
</svg>