<svg id="Ebene_1" viewBox="0 0 21.36 19.98" xmlns="http://www.w3.org/2000/svg">
    <polygon fill="none" fill-rule="evenodd"
        points="5.12 6.34 19.91 6.34 19.91 7.81 3.99 7.81 5.12 6.34" />
    <polygon fill="none" fill-rule="evenodd"
        points="5.12 9.29 3.99 7.81 19.91 7.81 19.91 9.29 5.12 9.29" />
    <line fill="none" stroke="#231f20" stroke-width="0.45" x1="5.11" x2="19.91" y1="6.34"
        y2="6.34" />
    <line fill="none" stroke="#231f20" stroke-width="0.45" x1="19.91" x2="5.11" y1="9.29"
        y2="9.29" />
    <polygon fill="none" fill-rule="evenodd"
        points="1.93 6.34 16.72 6.34 16.72 7.81 0.81 7.81 1.93 6.34" />
    <polygon fill="none" fill-rule="evenodd"
        points="1.93 9.29 0.81 7.81 16.72 7.81 16.72 9.29 1.93 9.29" />
    <line fill="none" stroke="#231f20" stroke-width="0.45" x1="1.93" x2="16.72" y1="6.34"
        y2="6.34" />
    <line fill="none" stroke="#231f20" stroke-width="0.45" x1="16.72" x2="1.93" y1="9.29"
        y2="9.29" />
    <polygon fill="none" fill-rule="evenodd"
        points="10.68 0 21.36 0 21.36 19.98 10.68 19.98 0 19.98 0 0 10.68 0" />
    <path d="M95,99a3.25,3.25,0,1,1,3.24-3.25A3.25,3.25,0,0,1,95,99Z" fill="#231f20"
        stroke="#231f20" stroke-width="0.45" transform="translate(-80 -80)" />
    <polygon
        points="8.19 4.29 8.19 6.32 16.44 6.32 16.44 16.76 13.49 16.76 13.49 9.27 5.22 9.27 5.22 4.29 9.97 4.29 6.72 1.04 3.46 4.29 8.19 4.29"
        stroke="#231f20" stroke-width="0.45" />
</svg>