<svg id="Ebene_1" viewBox="0 0 21.36 19.98" xmlns="http://www.w3.org/2000/svg">
    <line fill="none" stroke="#231f20" stroke-width="0.45" x1="11.6" x2="18.83" y1="6.32"
        y2="6.32" />
    <line fill="none" stroke="#231f20" stroke-width="0.45" x1="18.83" x2="11.6" y1="9.27"
        y2="9.27" />
    <line fill="none" stroke="#231f20" stroke-width="0.45" x1="2.04" x2="9.61" y1="6.31"
        y2="6.31" />
    <line fill="none" stroke="#231f20" stroke-width="0.45" x1="9.61" x2="2.04" y1="9.26"
        y2="9.26" />
    <polygon fill="none" fill-rule="evenodd"
        points="10.68 0 0 0 0 19.98 10.68 19.98 21.36 19.98 21.36 0 10.68 0" />
    <rect fill="none" height="9.4" width="1.47" x="13.16" y="4.29" />
    <rect fill="none" height="9.4" width="1.5" x="14.64" y="4.29" />
    <line fill="none" stroke="#231f20" stroke-width="0.45" x1="13.16" x2="13.16" y1="4.29"
        y2="13.69" />
    <line fill="none" stroke="#231f20" stroke-width="0.45" x1="16.13" x2="16.13" y1="13.69"
        y2="4.29" />
    <rect fill="none" height="12.64" width="1.47" x="4.68" y="1.05" />
    <rect fill="none" height="12.64" width="1.47" x="6.15" y="1.05" />
    <line fill="none" stroke="#231f20" stroke-width="0.45" x1="4.68" x2="4.68" y1="1.05"
        y2="13.69" />
    <line fill="none" stroke="#231f20" stroke-width="0.45" x1="7.63" x2="7.63" y1="13.69"
        y2="1.05" />
    <path d="M86.39,99a3.25,3.25,0,1,0-3.25-3.25A3.26,3.26,0,0,0,86.39,99Z" fill="#231f20"
        stroke="#231f20" stroke-width="0.45" transform="translate(-80 -80)" />
    <polygon
        points="13.16 4.29 13.16 6.32 4.92 6.32 4.92 16.76 7.86 16.76 7.86 9.27 16.14 9.27 16.14 4.29 11.38 4.29 14.64 1.04 17.89 4.29 13.16 4.29"
        stroke="#231f20" stroke-width="0.45" />
</svg>