<svg id="Ebene_1" viewBox="0 0 21.36 19.98" xmlns="http://www.w3.org/2000/svg">
    <polygon fill="none" fill-rule="evenodd"
        points="10.68 0 21.36 0 21.36 19.98 10.68 19.98 0 19.98 0 0 10.68 0" />
    <polygon fill="none" fill-rule="evenodd"
        points="16.86 2.81 15.82 1.77 14.78 0.72 13.54 1.96 13.54 0.29 12.07 0.29 10.6 0.29 10.6 16.21 12.07 16.21 13.54 16.21 13.54 6.13 16.86 2.81" />
    <line fill="none" stroke="#231f20" stroke-width="0.45" x1="16.86" x2="12.69" y1="2.81"
        y2="6.98" />
    <path d="M98.07,105.57a3.25,3.25,0,1,1,3.25-3.25A3.24,3.24,0,0,1,98.07,105.57Z" fill="#231f20"
        stroke="#231f20" stroke-width="0.45" transform="translate(-86 -86.11)" />
    <line fill="none" stroke="#231f20" stroke-width="0.45" x1="10.59" x2="10.59" y1="16.21"
        y2="0.3" />
    <polygon fill-rule="evenodd"
        points="5.82 9.67 10.61 4.89 13.54 6.13 13.54 16.21 10.6 16.21 10.6 9.08 7.91 11.76 9.17 13.02 4.56 13.02 4.56 8.41 5.82 9.67"
        stroke="#231f20" stroke-width="0.45" />
    <polyline fill="none" fill-rule="evenodd" points="13.54 0.29 13.54 1.96 14.78 0.72"
        stroke="#231f20" stroke-width="0.45" />
</svg>