<svg id="Ebene_1" viewBox="0 0 21.36 19.98" xmlns="http://www.w3.org/2000/svg">
    <polygon fill="none" fill-rule="evenodd"
        points="10.68 0 0 0 0 19.98 10.68 19.98 21.36 19.98 21.36 0 10.68 0" />
    <polygon fill="none" fill-rule="evenodd"
        points="15.26 4.43 17.33 6.51 11.72 12.12 9.62 12.14 4.02 6.54 6.13 4.43 10.69 9 15.26 4.43" />
    <polyline fill="none" fill-rule="evenodd" points="6.13 4.43 10.69 9 15.26 4.43" stroke="#231f20"
        stroke-width="0.45" />
    <polyline fill="none" fill-rule="evenodd" points="17.33 6.51 11.72 12.12 9.62 12.14 4.02 6.54"
        stroke="#231f20" stroke-width="0.45" />
    <polygon fill="#231f20" fill-rule="evenodd"
        points="10.68 3.66 9.2 3.66 9.2 15.8 10.68 15.8 12.15 15.8 12.15 3.66 10.68 3.66"
        stroke="#231f20" stroke-width="0.45" />
    <circle cx="10.68" cy="16.34" fill="#231f20" r="3.25" stroke="#231f20" stroke-width="0.15" />
    <polygon fill="#231f20" points="7.42 3.68 13.93 3.68 10.68 0.42 7.42 3.68" stroke="#231f20"
        stroke-width="0.15" />
</svg>