<svg id="Ebene_1" viewBox="0 0 21.36 19.98" xmlns="http://www.w3.org/2000/svg">
    <polygon fill="none" fill-rule="evenodd"
        points="10.68 0 0 0 0 19.98 10.68 19.98 21.36 19.98 21.36 0 10.68 0" />
    <polygon fill="none" fill-rule="evenodd"
        points="9.26 7.34 5.09 3.17 4.05 4.21 10.87 11.03 9.26 7.34" />
    <rect fill="none" height="9.65" transform="translate(-108.03 3.4) rotate(-45)" width="1.47"
        x="77.2" y="79.82" />
    <line fill="none" stroke="#231f20" stroke-width="0.45" x1="9.26" x2="5.09" y1="7.34"
        y2="3.17" />
    <line fill="none" stroke="#231f20" stroke-width="0.45" x1="3.01" x2="9.83" y1="5.25"
        y2="12.07" />
    <path d="M81.74,96.08a3.25,3.25,0,1,0-3.25-3.24A3.25,3.25,0,0,0,81.74,96.08Z" fill="#231f20"
        stroke="#231f20" stroke-width="0.45" transform="translate(-71 -76.5)" />
    <rect fill="none" height="15.92" width="1.47" x="9.26" y="0.41" />
    <rect fill="none" height="15.92" width="1.47" x="10.74" y="0.41" />
    <line fill="none" stroke="#231f20" stroke-width="0.45" x1="9.26" x2="9.26" y1="0.41"
        y2="16.33" />
    <line fill="none" stroke="#231f20" stroke-width="0.45" x1="12.21" x2="12.21" y1="16.33"
        y2="0.41" />
    <polygon fill="#231f20" fill-rule="evenodd"
        points="14.93 1.66 13.68 0.4 18.28 0.4 18.28 5.01 17.02 3.75 12.21 8.56 12.21 18.17 10.74 18.17 9.26 18.17 9.26 7.33 14.93 1.66"
        stroke="#231f20" stroke-width="0.45" />
</svg>