<svg id="Ebene_1" viewBox="0 0 21.36 19.98" xmlns="http://www.w3.org/2000/svg">
    <polygon fill="none" fill-rule="evenodd"
        points="10.68 0 21.36 0 21.36 19.98 10.68 19.98 0 19.98 0 0 10.68 0" />
    <polygon fill="none" fill-rule="evenodd"
        points="12.1 7.34 16.27 3.17 17.31 4.21 10.49 11.03 12.1 7.34" />
    <rect fill="none" height="1.47" transform="translate(-116.44 7.99) rotate(-45)" width="9.65"
        x="87.59" y="91.91" />
    <line fill="none" stroke="#231f20" stroke-width="0.45" x1="12.1" x2="16.27" y1="7.34"
        y2="3.17" />
    <line fill="none" stroke="#231f20" stroke-width="0.45" x1="18.35" x2="11.53" y1="5.25"
        y2="12.07" />
    <path d="M88.62,104.08a3.25,3.25,0,1,1,3.25-3.24A3.24,3.24,0,0,1,88.62,104.08Z" fill="#231f20"
        stroke="#231f20" stroke-width="0.45" transform="translate(-78 -84.5)" />
    <rect fill="none" height="15.92" width="1.47" x="10.62" y="0.41" />
    <rect fill="none" height="15.92" width="1.47" x="9.14" y="0.41" />
    <line fill="none" stroke="#231f20" stroke-width="0.45" x1="12.09" x2="12.09" y1="0.41"
        y2="16.33" />
    <line fill="none" stroke="#231f20" stroke-width="0.45" x1="9.14" x2="9.14" y1="16.33"
        y2="0.41" />
    <polygon fill="#231f20" fill-rule="evenodd"
        points="6.42 1.66 7.68 0.4 3.07 0.4 3.07 5.01 4.33 3.75 9.14 8.56 9.14 18.17 10.62 18.17 12.09 18.17 12.09 7.33 6.42 1.66"
        stroke="#231f20" stroke-width="0.45" />
</svg>