<svg id="Ebene_1" viewBox="0 0 21.36 19.98" xmlns="http://www.w3.org/2000/svg">
    <polygon fill="none" fill-rule="evenodd"
        points="10.68 0 0 0 0 19.98 10.68 19.98 21.36 19.98 21.36 0 10.68 0" />
    <rect fill="none" height="1.47" transform="translate(-122.22 6.84) rotate(-45)" width="5.9"
        x="87.73" y="90.88" />
    <rect fill="none" height="1.47" transform="translate(-122.65 7.88) rotate(-45)" width="5.9"
        x="88.77" y="91.92" />
    <line fill="none" stroke="#231f20" stroke-width="0.45" x1="8.24" x2="4.07" y1="4.9" y2="9.07" />
    <line fill="none" stroke="#231f20" stroke-width="0.45" x1="6.15" x2="10.32" y1="11.15"
        y2="6.98" />
    <path d="M93.71,103.57a3.25,3.25,0,1,0-3.25-3.25A3.24,3.24,0,0,0,93.71,103.57Z" fill="#231f20"
        stroke="#231f20" stroke-width="0.45" transform="translate(-84 -84.11)" />
    <rect fill="none" height="15.92" width="1.47" x="8.24" y="0.3" />
    <rect fill="none" height="15.92" width="1.47" x="9.71" y="0.3" />
    <line fill="none" stroke="#231f20" stroke-width="0.45" x1="8.24" x2="8.24" y1="0.3"
        y2="16.21" />
    <line fill="none" stroke="#231f20" stroke-width="0.45" x1="11.19" x2="11.19" y1="16.21"
        y2="0.3" />
    <polygon fill-rule="evenodd"
        points="15.96 9.67 11.18 4.9 8.24 4.9 8.24 16.21 11.19 16.21 11.19 9.08 13.87 11.76 12.62 13.02 17.22 13.02 17.22 8.41 15.96 9.67"
        stroke="#231f20" stroke-width="0.45" />
</svg>