<svg id="Ebene_1" viewBox="0 0 21.36 19.98" xmlns="http://www.w3.org/2000/svg">
    <polygon fill="none" fill-rule="evenodd"
        points="10.68 0 0 0 0 19.98 10.68 19.98 21.36 19.98 21.36 0 10.68 0" />
    <rect fill="none" height="5.9" transform="translate(-122.35 9.32) rotate(-45)" width="1.47"
        x="97.44" y="92.66" />
    <rect fill="none" height="5.9" transform="translate(-123.39 8.88) rotate(-45)" width="1.47"
        x="96.4" y="93.71" />
    <line fill="none" stroke="#231f20" stroke-width="0.45" x1="13.12" x2="17.29" y1="4.89"
        y2="9.06" />
    <line fill="none" stroke="#231f20" stroke-width="0.45" x1="15.2" x2="11.03" y1="11.15"
        y2="6.98" />
    <path d="M95.14,107.57a3.25,3.25,0,1,1,3.25-3.25A3.25,3.25,0,0,1,95.14,107.57Z" fill="#231f20"
        stroke="#231f20" stroke-width="0.45" transform="translate(-83.5 -88.11)" />
    <rect fill="none" height="15.92" width="1.47" x="11.64" y="0.3" />
    <rect fill="none" height="15.92" width="1.47" x="10.17" y="0.3" />
    <line fill="none" stroke="#231f20" stroke-width="0.45" x1="13.12" x2="13.12" y1="0.3"
        y2="16.21" />
    <line fill="none" stroke="#231f20" stroke-width="0.45" x1="10.17" x2="10.17" y1="16.21"
        y2="0.3" />
    <polygon fill-rule="evenodd"
        points="5.39 9.67 10.18 4.89 13.12 4.89 13.12 16.21 10.17 16.21 10.17 9.08 7.49 11.76 8.74 13.02 4.13 13.02 4.13 8.41 5.39 9.67"
        stroke="#231f20" stroke-width="0.45" />
</svg>