<svg id="Ebene_1" viewBox="0 0 21.35 19.98" xmlns="http://www.w3.org/2000/svg">
    <polygon fill="none" fill-rule="evenodd"
        points="10.68 0 0 0 0 19.98 10.68 19.98 21.36 19.98 21.36 0 10.68 0" />
    <line fill="none" stroke="#231f20" stroke-width="0.45" x1="18.08" x2="12.18" y1="7.45"
        y2="7.45" />
    <line fill="none" stroke="#231f20" stroke-width="0.45" x1="12.18" x2="18.08" y1="10.4"
        y2="10.4" />
    <line fill="none" stroke="#231f20" stroke-width="0.45" x1="13.01" x2="13.01" y1="18.18"
        y2="9.16" />
    <line fill="none" stroke="#231f20" stroke-width="0.45" x1="10.06" x2="10.06" y1="10.39"
        y2="18.18" />
    <polygon fill="#231f20" fill-rule="evenodd"
        points="11.53 3.66 13.01 3.66 13.01 15.8 11.53 15.8 10.06 15.8 10.06 3.66 11.53 3.66"
        stroke="#231f20" stroke-width="0.45" />
    <path d="M82,130.59a3.25,3.25,0,1,1,3.25-3.25A3.26,3.26,0,0,1,82,130.59Z" fill="#231f20"
        stroke="#231f20" stroke-width="0.15" transform="translate(-70.5 -111)" />
    <polygon fill="#231f20" points="14.79 3.68 8.28 3.68 11.53 0.42 14.79 3.68" stroke="#231f20"
        stroke-width="0.15" />
    <line fill="none" stroke="#231f20" stroke-width="0.45" x1="4.78" x2="12.33" y1="12.1"
        y2="4.42" />
    <line fill="none" stroke="#231f20" stroke-width="0.45" x1="11.13" x2="6.56" y1="9.49"
        y2="14.05" />
</svg>