<svg id="Ebene_1" viewBox="0 0 21.36 20.19" xmlns="http://www.w3.org/2000/svg">
    <polygon fill="none" fill-rule="evenodd"
        points="10.68 0.1 0 0.1 0 20.09 10.68 20.09 21.36 20.09 21.36 0.1 10.68 0.1" />
    <path d="M90.68,99.2A3.25,3.25,0,1,1,93.93,96,3.24,3.24,0,0,1,90.68,99.2Z" fill="#231f20"
        stroke="#231f20" stroke-width="0.15" transform="translate(-80 -79.09)" />
    <path
        d="M94.57,87a4.18,4.18,0,0,0-2.42-2.42V81h-3v3.59A4.14,4.14,0,0,0,86.79,87H83.2v2.94h3.59a4.17,4.17,0,0,0,2.41,2.42V96h3V92.36a4.17,4.17,0,0,0,2.41-2.42h3.6V87Zm-2.42,1.77A1.5,1.5,0,0,1,91,89.94h-.58a1.49,1.49,0,0,1-1.19-1.17v-.6A1.5,1.5,0,0,1,90.38,87H91a1.48,1.48,0,0,1,1.17,1.17Z"
        fill="none" transform="translate(-80 -79.09)" />
    <path
        d="M91,87h-.6a1.5,1.5,0,0,0-1.18,1.17v.6a1.49,1.49,0,0,0,1.19,1.17H91a1.5,1.5,0,0,0,1.18-1.17v-.6A1.48,1.48,0,0,0,91,87Z"
        fill="none" stroke="#000" stroke-width="0.45" transform="translate(-80 -79.09)" />
    <path
        d="M89.2,81v3.59A4.14,4.14,0,0,0,86.79,87M83.2,87m3.59,0,11.37,0H94.57a4.18,4.18,0,0,0-2.42-2.42V81m0,15V92.36a4.17,4.17,0,0,0,2.41-2.42h3.6m-11.37,0-3.59,0,3.59,0a4.17,4.17,0,0,0,2.41,2.42V96m1.77-6h-.58a1.49,1.49,0,0,1-1.19-1.17v-.6A1.5,1.5,0,0,1,90.38,87H91a1.48,1.48,0,0,1,1.17,1.17v.6A1.5,1.5,0,0,1,91,89.94Z"
        fill="none" stroke="#000" stroke-width="0.45" transform="translate(-80 -79.09)" />
    <path
        d="M94.57,87a4.16,4.16,0,0,0-2.42-2.42V81h-3v3.59L90.38,87H91a1.48,1.48,0,0,1,1.17,1.17v.6A1.5,1.5,0,0,1,91,89.94h-.58L89.2,92.36V96h3V92.36a4.14,4.14,0,0,0,2.41-2.42,4,4,0,0,0,.29-1.47A4.22,4.22,0,0,0,94.57,87Z"
        stroke="#231f20" stroke-width="0.45" transform="translate(-80 -79.09)" />
    <polygon points="13.93 3.58 7.42 3.58 10.68 0.32 13.93 3.58" stroke="#231f20"
        stroke-width="0.45" />
    <path d="M86.82,86.76a4.18,4.18,0,0,0,.09,3.41" fill="none" stroke="#000" stroke-width="0.45"
        transform="translate(-80 -79.09)" />
</svg>