<svg id="Ebene_1" viewBox="0 0 21.35 23.49" xmlns="http://www.w3.org/2000/svg">
    <polygon fill="none" fill-rule="evenodd"
        points="10.68 3.51 0 3.51 0 23.49 10.68 23.49 21.36 23.49 21.36 3.51 10.68 3.51" />
    <path d="M98.47,87.41" fill="none" stroke="#000" transform="translate(-81.47 -78.95)" />
    <path d="M90.61,98.89a3.25,3.25,0,1,0-3.24-3.25A3.25,3.25,0,0,0,90.61,98.89Z" fill="#231f20"
        stroke="#231f20" stroke-width="0.15" transform="translate(-81.47 -78.95)" />
    <path
        d="M94.47,86.65a4.33,4.33,0,0,0-.67-1.14m4.26,1.1-3.59,0-7.15-1.06a4.31,4.31,0,0,0-.63,1.13l-3.59,0m0,3,3.59,0a4.18,4.18,0,0,0,2.43,2.39l0,3.59m5.3-6.05,3.6,0-6,6.06,0-3.59a4.15,4.15,0,0,0,2.39-2.43m-5.37-1.13v-.6a1.48,1.48,0,0,1,1.16-1.18h.6a1.48,1.48,0,0,1,1.18,1.16v.6a1.49,1.49,0,0,1-1.17,1.19h-.58A1.51,1.51,0,0,1,89.12,88.47Z"
        fill="none" stroke="#000" stroke-width="0.45" transform="translate(-81.47 -78.95)" />
    <path d="M89.76,84a4.84,4.84,0,0,1,1.82,0" fill="none" stroke="#000" stroke-width="0.45"
        transform="translate(-81.47 -78.95)" />
    <path d="M93.78,85.74l2-2.83m-2.33-1.8-2.07,2.94m-3.31-2.42" fill="none" stroke="#000"
        stroke-width="0.45" transform="translate(-81.47 -78.95)" />
    <path
        d="M94.66,86.76h-.13l-2.41,1.17v.6a1.52,1.52,0,0,1-1.18,1.18h-.59l-1.18,2.41v3.59h3V92.12a4.15,4.15,0,0,0,2.41-2.41h.11"
        stroke="#000" stroke-width="0.45" transform="translate(-81.47 -78.95)" />
    <polygon points="15.65 4.75 10.11 1.34 14.59 0.27 15.65 4.75" stroke="#231f20"
        stroke-width="0.45" />
    <path d="M89.92,84.12,88,81.21m-2.47,1.61,1.89,2.91M84,87.88" fill="none" stroke="#000"
        stroke-width="0.45" transform="translate(-81.47 -78.95)" />
    <path
        d="M94.65,89.07A4.15,4.15,0,0,0,94,85.73l2-3-1.22-.81-1.24-.81-2,3h0l-.35,2.66.5.33A1.51,1.51,0,0,1,92,88.74l-.32.49h0L93,91.54"
        stroke="#000" stroke-width="0.45" transform="translate(-81.47 -78.95)" />
    <path d="M94.76,88.45a4.88,4.88,0,0,1-.42,1.77" fill="none" stroke="#000" stroke-width="0.45"
        transform="translate(-81.47 -78.95)" />
    <line fill="none" stroke="#231f20" stroke-width="0.45" x1="16.8" x2="11.01" y1="7.8" y2="7.8" />
    <line fill="none" stroke="#231f20" stroke-width="0.45" x1="11.01" x2="16.8" y1="10.75"
        y2="10.75" />
</svg>