<svg id="Ebene_1" viewBox="0 0 21.36 19.98" xmlns="http://www.w3.org/2000/svg">
    <polygon fill="none" fill-rule="evenodd"
        points="10.68 0 21.36 0 21.36 19.98 10.68 19.98 0 19.98 0 0 10.68 0" />
    <polygon fill="none" fill-rule="evenodd"
        points="6.1 0.64 5.06 1.68 4.01 2.72 8.85 7.56 9.89 6.52 10.94 5.47 6.1 0.64" />
    <line fill="none" stroke="#231f20" stroke-width="0.45" x1="6.1" x2="10.94" y1="0.64"
        y2="5.47" />
    <line fill="none" stroke="#231f20" stroke-width="0.45" x1="8.85" x2="4.01" y1="7.56"
        y2="2.72" />
    <path d="M89.66,104.7a3.25,3.25,0,1,0-3.25-3.25A3.25,3.25,0,0,0,89.66,104.7Z" fill="#231f20"
        stroke="#231f20" stroke-width="0.15" transform="translate(-80.5 -85.27)" />
    <polygon fill="#231f20" points="14.14 1.96 14.14 8.47 17.39 5.21 14.14 1.96" stroke="#231f20"
        stroke-width="0.15" />
    <line stroke="#231f20" stroke-width="0.45" x1="10.63" x2="10.63" y1="10.22" y2="15.66" />
    <path
        d="M91.13,90.06a6.47,6.47,0,0,0-2.94,5.43h0v6.09h2.94v-6.1A3.55,3.55,0,0,1,94.68,92V89A6.45,6.45,0,0,0,91.13,90.06Z"
        fill-rule="evenodd" stroke="#231f20" stroke-width="0.45"
        transform="translate(-80.5 -85.27)" />
</svg>