<svg id="Ebene_1" viewBox="0 0 21.36 19.98" xmlns="http://www.w3.org/2000/svg">
    <polygon fill="none" fill-rule="evenodd"
        points="10.68 0 0 0 0 19.98 10.68 19.98 21.36 19.98 21.36 0 10.68 0" />
    <polygon fill="none" fill-rule="evenodd"
        points="17.21 1.68 16.17 0.64 11.33 5.47 12.37 6.52 13.42 7.56 18.25 2.72 17.21 1.68" />
    <line fill="none" stroke="#231f20" stroke-width="0.45" x1="16.17" x2="11.33" y1="0.64"
        y2="5.47" />
    <line fill="none" stroke="#231f20" stroke-width="0.45" x1="13.42" x2="18.25" y1="7.56"
        y2="2.72" />
    <path d="M86.11,101.7a3.25,3.25,0,1,1,3.25-3.25A3.24,3.24,0,0,1,86.11,101.7Z" fill="#231f20"
        stroke="#231f20" stroke-width="0.15" transform="translate(-73 -82.27)" />
    <polygon fill="#231f20" points="3.02 3.68 7.62 8.29 3.02 8.29 3.02 3.68" stroke="#231f20"
        stroke-width="0.15" />
    <line stroke="#231f20" stroke-width="0.45" x1="11.63" x2="11.63" y1="10.22" y2="15.66" />
    <path
        d="M84.63,87.06a6.44,6.44,0,0,1,3,5.43h0v6.09h-3v-6.1A3.54,3.54,0,0,0,81.09,89V86A6.41,6.41,0,0,1,84.63,87.06Z"
        fill-rule="evenodd" stroke="#231f20" stroke-width="0.45"
        transform="translate(-73 -82.27)" />
    <path
        d="M77.55,87.06a6,6,0,0,0-1.16,1c.33.33.65.67,1,1l1.09,1.13A3.49,3.49,0,0,1,81.09,89V86A6.41,6.41,0,0,0,77.55,87.06Z"
        fill="#231f20" fill-rule="evenodd" transform="translate(-73 -82.27)" />
    <path d="M81.09,86a6.41,6.41,0,0,0-3.54,1.06,6,6,0,0,0-1.16,1" fill="none" fill-rule="evenodd"
        stroke="#231f20" stroke-width="0.45" transform="translate(-73 -82.27)" />
    <path d="M78.45,90.16A3.49,3.49,0,0,1,81.09,89" fill="none" fill-rule="evenodd" stroke="#231f20"
        stroke-width="0.45" transform="translate(-73 -82.27)" />
</svg>