<svg id="Ebene_1" viewBox="0 0 21.36 21.86" xmlns="http://www.w3.org/2000/svg">
    <rect fill="none" height="1.47" width="6.84" x="8" y="10.17" />
    <rect fill="none" height="1.47" width="6.84" x="8" y="11.65" />
    <line fill="none" stroke="#231f20" stroke-width="0.45" x1="8" x2="14.84" y1="10.17"
        y2="10.17" />
    <line fill="none" stroke="#231f20" stroke-width="0.45" x1="14.84" x2="8" y1="13.12"
        y2="13.12" />
    <polygon fill="none" fill-rule="evenodd"
        points="10.68 0 21.36 0 21.36 19.98 10.68 19.98 0 19.98 0 0 10.68 0" />
    <path d="M87.67,101.28A3.25,3.25,0,1,0,84.42,98,3.25,3.25,0,0,0,87.67,101.28Z" fill="#231f20"
        stroke="#231f20" stroke-width="0.15" transform="translate(-79.5 -79.5)" />
    <polygon fill="#231f20" points="13.15 1.31 13.15 7.82 16.4 4.57 13.15 1.31" stroke="#231f20"
        stroke-width="0.15" />
    <line stroke="#231f20" stroke-width="0.45" x1="9.64" x2="9.64" y1="9.57" y2="15.01" />
    <path
        d="M89.14,83.64a6.49,6.49,0,0,0-3,5.43h0v6.09h3v-6.1a3.55,3.55,0,0,1,3.54-3.54v-3A6.44,6.44,0,0,0,89.14,83.64Z"
        fill-rule="evenodd" stroke="#231f20" stroke-width="0.45"
        transform="translate(-79.5 -79.5)" />
</svg>