<svg id="Ebene_1" viewBox="0 0 21.36 19.98" xmlns="http://www.w3.org/2000/svg">
    <polygon fill="none" fill-rule="evenodd"
        points="10.68 0 21.36 0 21.36 19.98 10.68 19.98 0 19.98 0 0 10.68 0" />
    <line stroke="#231f20" stroke-width="0.45" x1="9.64" x2="9.64" y1="9.57" y2="15.01" />
    <path d="M89.42,98.78a3.25,3.25,0,1,0-3.25-3.25A3.25,3.25,0,0,0,89.42,98.78Z" fill="#231f20"
        stroke="#231f20" stroke-width="0.15" transform="translate(-79.5 -79.5)" />
    <path d="M94.4,80.18a6.51,6.51,0,0,0-6.49,6.49h0v6.09h3v-6.1a3.54,3.54,0,0,1,3.54-3.54"
        fill="none" fill-rule="evenodd" stroke="#231f20" stroke-width="0.45"
        transform="translate(-79.5 -79.5)" />
    <polygon fill="#231f20"
        points="19.09 8.68 15.83 5.42 15.83 7.2 8.46 7.2 8.46 16.33 11.41 16.33 11.41 10.15 15.83 10.15 15.83 11.93 19.09 8.68"
        stroke="#231f20" stroke-width="0.45" />
</svg>