<svg id="Ebene_1" viewBox="0 0 21.35 19.98" xmlns="http://www.w3.org/2000/svg">
    <polygon fill="none" fill-rule="evenodd"
        points="2.43 12.63 1.39 11.59 6.23 6.75 7.27 7.79 8.31 8.84 3.47 13.67 2.43 12.63" />
    <line fill="none" stroke="#231f20" stroke-width="0.45" x1="1.39" x2="6.23" y1="11.59"
        y2="6.75" />
    <line fill="none" stroke="#231f20" stroke-width="0.45" x1="8.31" x2="3.47" y1="8.84"
        y2="13.67" />
    <path d="M91.17,105a3.25,3.25,0,1,1,3.25-3.25A3.25,3.25,0,0,1,91.17,105Z" fill="#231f20"
        stroke="#231f20" stroke-width="0.15" transform="translate(-80.5 -85.27)" />
    <polygon fill="#231f20" points="8.95 4.21 2.43 4.21 5.69 0.95 8.95 4.21" stroke="#231f20"
        stroke-width="0.15" />
    <path
        d="M91.25,92.3a3.54,3.54,0,0,1-3.58-3.51l-3,0a6.54,6.54,0,0,0,1.09,3.53,6.47,6.47,0,0,0,5.46,2.9"
        fill-rule="evenodd" stroke="#231f20" stroke-width="0.45"
        transform="translate(-80.5 -85.27)" />
    <polygon fill="none" fill-rule="evenodd"
        points="10.68 0 0 0 0 19.98 10.68 19.98 21.36 19.98 21.36 0 10.68 0" />
    <path d="M91.16,92.29a3.45,3.45,0,0,0,1.4-.1" fill-rule="evenodd" stroke="#231f20"
        stroke-width="0.45" transform="translate(-80.5 -85.27)" />
    <polyline fill="#231f20" fill-rule="evenodd"
        points="9.15 17.56 9.15 7.25 10.63 7.25 12.1 7.25 12.1 17.63" stroke="#231f20"
        stroke-width="0.45" />
    <path d="M96.13,93.4a6.52,6.52,0,0,1-3.25,1.76l-.27,0v-3A3.56,3.56,0,0,0,94,91.31" fill="none"
        fill-rule="evenodd" stroke="#231f20" stroke-width="0.45"
        transform="translate(-80.5 -85.27)" />
    <path d="M97.8,89.84a6.43,6.43,0,0,1-1.53,3.36l-.19.2" fill="none" fill-rule="evenodd"
        stroke="#231f20" stroke-width="0.45" transform="translate(-80.5 -85.27)" />
    <path d="M94.09,91.5,94,91.39a3.35,3.35,0,0,0,.74-1.51" fill="none" fill-rule="evenodd"
        stroke="#231f20" stroke-width="0.45" transform="translate(-80.5 -85.27)" />
</svg>