<svg id="Ebene_1" viewBox="0 0 21.36 19.98" xmlns="http://www.w3.org/2000/svg">
    <polygon fill="none" fill-rule="evenodd"
        points="18.92 12.63 19.97 11.59 15.13 6.75 14.09 7.79 13.04 8.84 17.88 13.67 18.92 12.63" />
    <line fill="none" stroke="#231f20" stroke-width="0.45" x1="19.97" x2="15.13" y1="11.59"
        y2="6.75" />
    <line fill="none" stroke="#231f20" stroke-width="0.45" x1="13.04" x2="17.88" y1="8.84"
        y2="13.67" />
    <path d="M91.19,105a3.25,3.25,0,1,0-3.25-3.25A3.26,3.26,0,0,0,91.19,105Z" fill="#231f20"
        stroke="#231f20" stroke-width="0.15" transform="translate(-80.5 -85.27)" />
    <polygon fill="#231f20" points="12.41 4.21 18.92 4.21 15.67 0.95 12.41 4.21" stroke="#231f20"
        stroke-width="0.15" />
    <path
        d="M91.11,92.3a3.54,3.54,0,0,0,3.57-3.51l2.95,0a6.38,6.38,0,0,1-1.09,3.53,6.45,6.45,0,0,1-5.46,2.9"
        fill-rule="evenodd" stroke="#231f20" stroke-width="0.45"
        transform="translate(-80.5 -85.27)" />
    <polygon fill="none" fill-rule="evenodd"
        points="10.68 0 21.36 0 21.36 19.98 10.68 19.98 0 19.98 0 0 10.68 0" />
    <path d="M91.2,92.29a3.5,3.5,0,0,1-1.41-.1" fill-rule="evenodd" stroke="#231f20"
        stroke-width="0.45" transform="translate(-80.5 -85.27)" />
    <polyline fill="#231f20" fill-rule="evenodd"
        points="12.2 17.56 12.2 7.25 10.73 7.25 9.26 7.25 9.26 17.63" stroke="#231f20"
        stroke-width="0.45" />
    <path d="M86.23,93.4a6.48,6.48,0,0,0,3.25,1.76l.27,0v-3a3.52,3.52,0,0,1-1.43-.88" fill="none"
        fill-rule="evenodd" stroke="#231f20" stroke-width="0.45"
        transform="translate(-80.5 -85.27)" />
    <path d="M84.56,89.84a6.49,6.49,0,0,0,1.52,3.36,1.89,1.89,0,0,0,.2.2" fill="none"
        fill-rule="evenodd" stroke="#231f20" stroke-width="0.45"
        transform="translate(-80.5 -85.27)" />
    <path d="M88.26,91.5l.07-.11a3.57,3.57,0,0,1-.74-1.51" fill="none" fill-rule="evenodd"
        stroke="#231f20" stroke-width="0.45" transform="translate(-80.5 -85.27)" />
</svg>