<svg id="Ebene_1" viewBox="0 0 21.36 20.5" xmlns="http://www.w3.org/2000/svg">
    <polygon fill="none" fill-rule="evenodd"
        points="10.68 0.52 21.36 0.52 21.36 20.5 10.68 20.5 0 20.5 0 0.52 10.68 0.52" />
    <polygon fill="#231f20" points="2.89 5.41 7.5 0.81 2.89 0.81 2.89 5.41" stroke="#231f20"
        stroke-width="0.15" />
    <path
        d="M78.64,89.07a6.49,6.49,0,0,0-3,5.43h0v6.1h3v-6.1A3.55,3.55,0,0,1,82.18,91V88A6.43,6.43,0,0,0,78.64,89.07Z"
        fill="none" fill-rule="evenodd" transform="translate(-68.5 -83.5)" />
    <path d="M81.22,88.09a6.49,6.49,0,0,0-5.53,6.41h0v6.1h3v-6.1A3.55,3.55,0,0,1,82.18,91"
        fill="none" fill-rule="evenodd" stroke="#231f20" stroke-width="0.45"
        transform="translate(-68.5 -83.5)" />
    <path
        d="M85.72,89.07a6,6,0,0,1,1.16,1l-1,1-1.08,1.13A3.55,3.55,0,0,0,82.18,91V88A6.38,6.38,0,0,1,85.72,89.07Z"
        fill="none" fill-rule="evenodd" transform="translate(-68.5 -83.5)" />
    <path d="M77.17,103.71a3.25,3.25,0,1,0-3.25-3.25A3.25,3.25,0,0,0,77.17,103.71Z" fill="#231f20"
        stroke="#231f20" stroke-width="0.15" transform="translate(-68.5 -83.5)" />
    <path
        d="M78.51,93.18l1-1,.07-.06a3.51,3.51,0,0,0-1,2.43v6.1h-3v-6.1h0a6.39,6.39,0,0,1,.85-3.19Z"
        transform="translate(-68.5 -83.5)" />
    <path d="M76.54,91.31,72,87l1-1,1-1,4.43,4.22A6.5,6.5,0,0,0,76.54,91.31Z" stroke="#231f20"
        stroke-width="0.45" transform="translate(-68.5 -83.5)" />
    <path d="M79.75,91.94l-.13.14Z" stroke="#231f20" stroke-width="0.45"
        transform="translate(-68.5 -83.5)" />
    <path d="M78.51,93.18l-2-1.87a6.5,6.5,0,0,1,2-2.17l2,2-.84.84-.13.14-.07.06Z" stroke="#231f20"
        stroke-width="0.45" transform="translate(-68.5 -83.5)" />
    <path d="M83.73,88.2a6.34,6.34,0,0,1,2,.87,6,6,0,0,1,1.16,1" fill="none" fill-rule="evenodd"
        stroke="#231f20" stroke-width="0.45" transform="translate(-68.5 -83.5)" />
    <path d="M84.83,92.17A3.55,3.55,0,0,0,82.18,91" fill="none" fill-rule="evenodd" stroke="#231f20"
        stroke-width="0.45" transform="translate(-68.5 -83.5)" />
    <line fill="none" stroke="#231f20" stroke-width="0.45" x1="15.5" x2="15.5" y2="4.7" />
    <line fill="none" stroke="#231f20" stroke-width="0.45" x1="12.55" x2="12.55" y1="4.7" />
</svg>