<svg id="Ebene_1" viewBox="0 0 22.13 19.98" xmlns="http://www.w3.org/2000/svg">
    <polygon fill="none" fill-rule="evenodd"
        points="10.68 0 0 0 0 19.98 10.68 19.98 21.36 19.98 21.36 0 10.68 0" />
    <path d="M101.35,103.08a3.25,3.25,0,1,0-3.24-3.25A3.24,3.24,0,0,0,101.35,103.08Z" fill="#231f20"
        stroke="#231f20" stroke-width="0.15" transform="translate(-93.19 -84.3)" />
    <polygon fill="#231f20" points="18.77 1.31 18.77 7.82 22.02 4.56 18.77 1.31" stroke="#231f20"
        stroke-width="0.15" />
    <line stroke="#231f20" stroke-width="0.45" x1="9.64" x2="9.64" y1="9.57" y2="15.01" />
    <path
        d="M102.83,88.44a6.44,6.44,0,0,0-3,5.43h0V100h3v-6.1a3.54,3.54,0,0,1,3.54-3.54v-3A6.41,6.41,0,0,0,102.83,88.44Z"
        fill-rule="evenodd" stroke="#231f20" stroke-width="0.45"
        transform="translate(-93.19 -84.3)" />
    <line fill="none" stroke="#231f20" stroke-width="0.45" x1="16.13" x2="16.13" y1="3.86"
        y2="10.7" />
    <line fill="none" stroke="#231f20" stroke-width="0.45" x1="13.18" x2="13.18" y1="10.7"
        y2="3.86" />
    <polygon fill="#231f20" fill-rule="evenodd"
        points="13.19 4.57 13.19 3.09 18.93 3.09 18.93 4.57 18.93 6.04 13.19 6.04 13.19 4.57"
        stroke="#231f20" stroke-width="0.45" />
</svg>