<svg id="Ebene_1" viewBox="0 0 21.36 19.98" xmlns="http://www.w3.org/2000/svg">
    <polygon fill="none" fill-rule="evenodd"
        points="1.93 4.33 4.01 2.26 8.63 6.89 8.6 11.01 4.04 15.57 1.93 13.47 6.5 8.9 1.93 4.33" />
    <polyline fill="none" fill-rule="evenodd" points="1.93 13.47 6.5 8.9 1.93 4.33" stroke="#231f20"
        stroke-width="0.45" />
    <polyline fill="none" fill-rule="evenodd" points="4.01 2.26 8.63 6.89 8.6 11.01 4.04 15.57"
        stroke="#231f20" stroke-width="0.45" />
    <rect fill="none" height="15.92" width="1.47" x="8.63" y="0.3" />
    <rect fill="none" height="15.92" width="1.47" x="10.11" y="0.3" />
    <line fill="none" stroke="#231f20" stroke-width="0.45" x1="8.63" x2="8.63" y1="0.3"
        y2="16.21" />
    <line fill="none" stroke="#231f20" stroke-width="0.45" x1="11.58" x2="11.58" y1="16.21"
        y2="0.3" />
    <path d="M95.61,105.57a3.25,3.25,0,1,0-3.25-3.25A3.25,3.25,0,0,0,95.61,105.57Z" fill="#231f20"
        stroke="#231f20" stroke-width="0.45" transform="translate(-85.5 -86.11)" />
    <polygon fill="#231f20"
        points="19.26 8.56 16.01 5.3 16.01 7.08 8.63 7.08 8.63 16.21 11.58 16.21 11.58 10.03 16.01 10.03 16.01 11.81 19.26 8.56"
        stroke="#231f20" stroke-width="0.45" />
    <polygon fill="none" fill-rule="evenodd"
        points="10.68 0 21.36 0 21.36 19.98 10.68 19.98 0 19.98 0 0 10.68 0" />
</svg>