<svg id="Ebene_1" viewBox="0 0 21.36 19.98" xmlns="http://www.w3.org/2000/svg">
    <polygon fill="none" fill-rule="evenodd"
        points="10.68 0 21.36 0 21.36 19.98 10.68 19.98 0 19.98 0 0 10.68 0" />
    <rect fill="none" height="1.47" width="6.84" x="11.38" y="5.39" />
    <rect fill="none" height="1.47" width="6.84" x="11.38" y="6.87" />
    <line fill="none" stroke="#231f20" stroke-width="0.45" x1="11.38" x2="18.22" y1="5.39"
        y2="5.39" />
    <line fill="none" stroke="#231f20" stroke-width="0.45" x1="18.22" x2="11.38" y1="8.34"
        y2="8.34" />
    <polygon fill="none" fill-rule="evenodd"
        points="6.29 2.58 7.33 1.54 8.37 0.49 9.61 1.73 9.61 0.06 11.08 0.06 12.55 0.06 12.55 15.98 11.08 15.98 9.61 15.98 9.61 5.89 6.29 2.58" />
    <line fill="none" stroke="#231f20" stroke-width="0.45" x1="6.25" x2="10.42" y1="2.58"
        y2="6.75" />
    <line fill="none" stroke="#231f20" stroke-width="0.45" x1="12.51" x2="12.51" y1="15.98"
        y2="0.06" />
    <polyline fill="none" fill-rule="evenodd" points="9.56 0.06 9.56 1.73 8.33 0.49"
        stroke="#231f20" stroke-width="0.45" />
    <path d="M91.87,98a3.25,3.25,0,1,1,3.25-3.25A3.26,3.26,0,0,1,91.87,98Z" fill="#231f20"
        stroke="#231f20" stroke-width="0.45" transform="translate(-81 -78.34)" />
    <polygon fill-rule="evenodd"
        points="4.62 9.9 9.1 5.43 12.35 5.39 12.35 16.44 9.4 16.44 9.4 9.31 6.71 11.99 7.97 13.25 3.36 13.25 3.36 8.64 4.62 9.9"
        stroke="#231f20" stroke-width="0.45" />
</svg>