<svg id="Ebene_1" viewBox="0 0 21.36 19.98" xmlns="http://www.w3.org/2000/svg">
    <polygon fill="none" fill-rule="evenodd"
        points="10.68 0 0 0 0 19.98 10.68 19.98 21.36 19.98 21.36 0 10.68 0" />
    <rect fill="none" height="1.47" width="6.84" x="3.14" y="5.39" />
    <rect fill="none" height="1.47" width="6.84" x="3.14" y="6.87" />
    <line fill="none" stroke="#231f20" stroke-width="0.45" x1="9.98" x2="3.14" y1="5.39"
        y2="5.39" />
    <line fill="none" stroke="#231f20" stroke-width="0.45" x1="3.14" x2="9.98" y1="8.34"
        y2="8.34" />
    <polygon fill="none" fill-rule="evenodd"
        points="15.07 2.58 14.02 1.54 12.98 0.49 11.75 1.73 11.75 0.06 10.28 0.06 8.8 0.06 8.8 15.98 10.28 15.98 11.75 15.98 11.75 5.89 15.07 2.58" />
    <line fill="none" stroke="#231f20" stroke-width="0.45" x1="15.11" x2="10.94" y1="2.58"
        y2="6.75" />
    <line fill="none" stroke="#231f20" stroke-width="0.45" x1="8.84" x2="8.84" y1="15.98"
        y2="0.06" />
    <polyline fill="none" fill-rule="evenodd" points="11.79 0.06 11.79 1.73 13.02 0.49"
        stroke="#231f20" stroke-width="0.45" />
    <path d="M101,103.54a3.25,3.25,0,1,0-3.25-3.25A3.25,3.25,0,0,0,101,103.54Z" fill="#231f20"
        stroke="#231f20" stroke-width="0.45" transform="translate(-90.5 -83.84)" />
    <polygon fill-rule="evenodd"
        points="16.73 9.9 12.26 5.43 9.01 5.39 9.01 16.44 11.96 16.44 11.96 9.31 14.64 11.99 13.39 13.25 17.99 13.25 17.99 8.64 16.73 9.9"
        stroke="#231f20" stroke-width="0.45" />
</svg>