<svg id="Ebene_1" viewBox="0 0 21.36 20.15" xmlns="http://www.w3.org/2000/svg">
    <polygon fill="none" fill-rule="evenodd"
        points="10.68 0.17 0 0.17 0 20.15 10.68 20.15 21.36 20.15 21.36 0.17 10.68 0.17" />
    <rect fill="none" height="1.47" width="6.84" x="8.91" y="5.52" />
    <rect fill="none" height="1.47" width="6.84" x="8.91" y="6.99" />
    <line fill="none" stroke="#231f20" stroke-width="0.45" x1="15.75" x2="8.91" y1="5.52"
        y2="5.52" />
    <line fill="none" stroke="#231f20" stroke-width="0.45" x1="8.91" x2="15.75" y1="8.47"
        y2="8.47" />
    <polygon fill="none" fill-rule="evenodd"
        points="15.15 2.52 14.11 1.47 13.06 0.43 11.83 1.66 11.83 0 10.36 0 8.88 0 8.88 15.92 10.36 15.92 11.83 15.92 11.83 5.83 15.15 2.52" />
    <line fill="none" stroke="#231f20" stroke-width="0.45" x1="15.19" x2="11.02" y1="2.51"
        y2="6.68" />
    <line fill="none" stroke="#231f20" stroke-width="0.45" x1="8.93" x2="8.93" y1="15.92" />
    <polyline fill="none" fill-rule="evenodd" points="11.87 0 11.87 1.66 13.11 0.43"
        stroke="#231f20" stroke-width="0.45" />
    <path d="M101,103.54a3.25,3.25,0,1,0-3.25-3.25A3.25,3.25,0,0,0,101,103.54Z" fill="#231f20"
        stroke="#231f20" stroke-width="0.45" transform="translate(-90.5 -83.68)" />
    <polygon fill="#231f20"
        points="1.43 6.91 4.68 3.65 4.68 5.43 12.05 5.43 12.05 14.56 9.11 14.56 9.11 8.38 4.68 8.38 4.68 10.16 1.43 6.91"
        stroke="#231f20" stroke-width="0.45" />
</svg>