<svg id="Ebene_1" viewBox="0 0 21.36 19.98" xmlns="http://www.w3.org/2000/svg">
    <polygon fill="none" fill-rule="evenodd"
        points="10.68 0 21.36 0 21.36 19.98 10.68 19.98 0 19.98 0 0 10.68 0" />
    <rect fill="none" height="1.47" width="6.84" x="3.84" y="7.19" />
    <rect fill="none" height="1.47" width="6.84" x="3.84" y="8.66" />
    <line fill="none" stroke="#231f20" stroke-width="0.45" x1="7.29" x2="3.84" y1="7.19"
        y2="7.19" />
    <line fill="none" stroke="#231f20" stroke-width="0.45" x1="3.84" x2="10.68" y1="10.14"
        y2="10.14" />
    <rect fill="none" height="1.47" width="6.84" x="10.68" y="7.19" />
    <rect fill="none" height="1.47" width="6.84" x="10.68" y="8.66" />
    <line fill="none" stroke="#231f20" stroke-width="0.45" x1="17.52" x2="10.68" y1="7.19"
        y2="7.19" />
    <line fill="none" stroke="#231f20" stroke-width="0.45" x1="10.68" x2="17.52" y1="10.14"
        y2="10.14" />
    <polyline fill="#231f20" fill-rule="evenodd"
        points="12.08 7.31 12.08 17.64 10.61 17.64 9.13 17.64 9.13 7.31" stroke="#231f20"
        stroke-width="0.45" />
    <path d="M86.68,102.59a3.25,3.25,0,1,1,3.25-3.25A3.25,3.25,0,0,1,86.68,102.59Z" fill="#231f20"
        stroke="#231f20" stroke-width="0.15" transform="translate(-76 -83)" />
    <line fill="none" stroke="#231f20" stroke-width="0.45" x1="15.9" x2="11.57" y1="3.97"
        y2="11.19" />
    <line fill="none" stroke="#231f20" stroke-width="0.45" x1="10.65" x2="13.23" y1="6.74"
        y2="2.44" />
    <line fill="none" stroke="#231f20" stroke-width="0.45" x1="8.02" x2="10.68" y1="2.59"
        y2="7.03" />
    <line fill="none" stroke="#231f20" stroke-width="0.45" x1="5.35" x2="7.2" y1="4.13" y2="7.21" />
    <line fill="none" stroke="#231f20" stroke-width="0.45" x1="7.2" x2="7.29" y1="7.21" y2="7.35" />
    <line fill="none" stroke="#231f20" stroke-width="0.45" x1="8.96" x2="9.68" y1="10.14"
        y2="11.34" />
    <polygon fill="#231f20"
        points="19.76 8.74 16.51 5.48 16.51 7.26 9.13 7.26 9.13 16.39 12.08 16.39 12.08 10.21 16.51 10.21 16.51 11.99 19.76 8.74"
        stroke="#231f20" stroke-width="0.45" />
    <path d="M86.61,90" fill="none" fill-rule="evenodd" stroke="#231f20" stroke-width="0.45"
        transform="translate(-76 -83)" />
</svg>