<svg id="Ebene_1" viewBox="0 0 21.35 19.98" xmlns="http://www.w3.org/2000/svg">
    <polygon fill="none" fill-rule="evenodd"
        points="19.42 4.33 17.35 2.26 12.72 6.89 12.76 11.01 17.32 15.57 19.42 13.47 14.86 8.9 19.42 4.33" />
    <polyline fill="none" fill-rule="evenodd" points="19.42 13.47 14.86 8.9 19.42 4.33"
        stroke="#231f20" stroke-width="0.45" />
    <polyline fill="none" fill-rule="evenodd" points="17.35 2.26 12.72 6.89 12.76 11.01 17.32 15.57"
        stroke="#231f20" stroke-width="0.45" />
    <rect fill="none" height="15.92" width="1.47" x="11.25" y="0.3" />
    <rect fill="none" height="15.92" width="1.47" x="9.77" y="0.3" />
    <line fill="none" stroke="#231f20" stroke-width="0.45" x1="12.72" x2="12.72" y1="0.3"
        y2="16.21" />
    <line fill="none" stroke="#231f20" stroke-width="0.45" x1="9.77" x2="9.77" y1="16.21"
        y2="0.3" />
    <path d="M96.75,105.57a3.25,3.25,0,1,1,3.25-3.25A3.24,3.24,0,0,1,96.75,105.57Z" fill="#231f20"
        stroke="#231f20" stroke-width="0.45" transform="translate(-85.5 -86.11)" />
    <polygon fill="#231f20"
        points="2.09 8.56 5.35 5.3 5.35 7.08 12.72 7.08 12.72 16.21 9.77 16.21 9.77 10.03 5.35 10.03 5.35 11.81 2.09 8.56"
        stroke="#231f20" stroke-width="0.45" />
    <polygon fill="none" fill-rule="evenodd"
        points="10.68 0 0 0 0 19.98 10.68 19.98 21.36 19.98 21.36 0 10.68 0" />
</svg>