<svg id="Ebene_1" viewBox="0 0 21.36 19.98" xmlns="http://www.w3.org/2000/svg">
    <polygon fill="none" fill-rule="evenodd"
        points="10.68 0 0 0 0 19.98 10.68 19.98 21.36 19.98 21.36 0 10.68 0" />
    <rect fill="none" height="15.92" width="1.47" x="12.2" y="0.3" />
    <rect fill="none" height="15.92" width="1.47" x="13.68" y="0.3" />
    <line fill="none" stroke="#231f20" stroke-width="0.45" x1="12.2" x2="12.2" y1="0.3"
        y2="16.21" />
    <line fill="none" stroke="#231f20" stroke-width="0.45" x1="15.15" x2="15.15" y1="16.21"
        y2="0.3" />
    <path d="M100.18,106.57a3.25,3.25,0,1,0-3.25-3.25A3.25,3.25,0,0,0,100.18,106.57Z" fill="#231f20"
        stroke="#231f20" stroke-width="0.45" transform="translate(-86.5 -87.11)" />
    <polygon fill="#231f20"
        points="4.52 8.56 7.78 5.3 7.78 7.08 15.15 7.08 15.15 16.21 12.2 16.21 12.2 10.03 7.78 10.03 7.78 11.81 4.52 8.56"
        stroke="#231f20" stroke-width="0.45" />
</svg>