<svg id="Ebene_1" viewBox="0 0 21.36 19.98" xmlns="http://www.w3.org/2000/svg">
    <polygon fill="none" fill-rule="evenodd"
        points="10.68 0 0 0 0 19.98 10.68 19.98 21.36 19.98 21.36 0 10.68 0" />
    <polygon fill="none" fill-rule="evenodd"
        points="14.28 1.68 16.36 3.77 9.74 10.39 9.74 18.18 8.27 18.18 6.8 18.18 6.8 9.16 14.28 1.68" />
    <polyline fill="none" fill-rule="evenodd" points="6.8 18.18 6.8 9.16 14.28 1.68"
        stroke="#231f20" stroke-width="0.45" />
    <polyline fill="none" fill-rule="evenodd" points="16.36 3.77 9.74 10.39 9.74 18.18"
        stroke="#231f20" stroke-width="0.45" />
    <polygon fill="#231f20" fill-rule="evenodd"
        points="8.27 3.66 6.79 3.66 6.79 15.8 8.27 15.8 9.74 15.8 9.74 3.66 8.27 3.66"
        stroke="#231f20" stroke-width="0.45" />
    <path d="M88.27,93.59A3.25,3.25,0,1,0,85,90.34,3.26,3.26,0,0,0,88.27,93.59Z" fill="#231f20"
        stroke="#231f20" stroke-width="0.15" transform="translate(-80 -74)" />
    <polygon fill="#231f20" points="5.01 3.68 11.53 3.68 8.27 0.42 5.01 3.68" stroke="#231f20"
        stroke-width="0.15" />
</svg>