<svg id="Ebene_1" viewBox="0 0 21.35 19.98" xmlns="http://www.w3.org/2000/svg">
    <polygon fill="none" fill-rule="evenodd"
        points="10.68 0 0 0 0 19.98 10.68 19.98 21.36 19.98 21.36 0 10.68 0" />
    <rect fill="none" height="1.47" transform="translate(-99.55 10.92) rotate(-45)" width="5.9"
        x="74.37" y="75.21" />
    <rect fill="none" height="1.47" transform="translate(-99.99 11.97) rotate(-45.01)" width="5.9"
        x="75.42" y="76.25" />
    <line fill="none" stroke="#231f20" stroke-width="0.45" x1="10.39" x2="6.22" y1="7.34"
        y2="11.51" />
    <line fill="none" stroke="#231f20" stroke-width="0.45" x1="8.3" x2="12.47" y1="13.59"
        y2="9.42" />
    <polygon fill="#231f20" fill-rule="evenodd"
        points="11.86 3.66 10.39 3.66 10.39 15.8 11.86 15.8 13.33 15.8 13.33 3.66 11.86 3.66"
        stroke="#231f20" stroke-width="0.45" />
    <path d="M80.36,85.59a3.25,3.25,0,1,0-3.25-3.25A3.26,3.26,0,0,0,80.36,85.59Z" fill="#231f20"
        stroke="#231f20" stroke-width="0.15" transform="translate(-68.5 -66)" />
    <polygon fill="#231f20" points="8.6 3.68 15.12 3.68 11.86 0.42 8.6 3.68" stroke="#231f20"
        stroke-width="0.15" />
</svg>