<svg id="Ebene_1" viewBox="0 0 21.36 19.98" xmlns="http://www.w3.org/2000/svg">
    <polygon fill="none" fill-rule="evenodd"
        points="10.68 0 0 0 0 19.98 10.68 19.98 21.36 19.98 21.36 0 10.68 0" />
    <rect fill="none" height="5.9" transform="translate(-119.33 18.14) rotate(-45)" width="1.47"
        x="98.3" y="84.5" />
    <rect fill="none" height="5.9" transform="translate(-120.37 17.71) rotate(-45)" width="1.47"
        x="97.25" y="85.54" />
    <line fill="none" stroke="#231f20" stroke-width="0.45" x1="10.97" x2="15.14" y1="7.34"
        y2="11.51" />
    <line fill="none" stroke="#231f20" stroke-width="0.45" x1="13.05" x2="8.88" y1="13.59"
        y2="9.42" />
    <polygon fill="#231f20" fill-rule="evenodd"
        points="9.49 3.66 10.97 3.66 10.97 15.8 9.49 15.8 8.02 15.8 8.02 3.66 9.49 3.66"
        stroke="#231f20" stroke-width="0.45" />
    <path d="M96,97.09a3.25,3.25,0,1,1,3.25-3.25A3.24,3.24,0,0,1,96,97.09Z" fill="#231f20"
        stroke="#231f20" stroke-width="0.15" transform="translate(-86.5 -77.5)" />
    <polygon fill="#231f20" points="12.75 3.68 6.24 3.68 9.49 0.42 12.75 3.68" stroke="#231f20"
        stroke-width="0.15" />
</svg>