<svg id="Ebene_1" viewBox="0 0 21.36 19.98" xmlns="http://www.w3.org/2000/svg">
    <polygon fill="none" fill-rule="evenodd"
        points="10.68 0 21.36 0 21.36 19.98 10.68 19.98 0 19.98 0 0 10.68 0" />
    <polygon fill="none" fill-rule="evenodd"
        points="9.15 3.45 9.15 0.3 7.68 0.3 6.2 0.3 6.2 16.21 7.68 16.21 9.15 16.21 9.15 6.4 14.47 6.4 14.47 4.92 14.47 3.45 9.15 3.45" />
    <line fill="none" stroke="#231f20" stroke-width="0.45" x1="6.2" x2="6.2" y1="16.21" y2="0.3" />
    <path d="M85.18,99.07a3.25,3.25,0,1,1,3.25-3.25A3.24,3.24,0,0,1,85.18,99.07Z" fill="#231f20"
        stroke="#231f20" stroke-width="0.45" transform="translate(-77.5 -79.61)" />
    <polygon fill="#231f20"
        points="16.83 10.79 13.57 7.53 13.57 9.31 6.2 9.31 6.2 18.44 9.15 18.44 9.15 12.26 13.57 12.26 13.57 14.04 16.83 10.79"
        stroke="#231f20" stroke-width="0.45" />
    <polyline fill="none" fill-rule="evenodd" points="14.47 3.45 9.15 3.45 9.15 0.3"
        stroke="#231f20" stroke-width="0.45" />
    <polyline fill="none" fill-rule="evenodd" points="14.47 6.4 9.15 6.4 9.15 16.21"
        stroke="#231f20" stroke-width="0.45" />
</svg>