<svg id="Ebene_1" viewBox="0 0 21.36 19.98" xmlns="http://www.w3.org/2000/svg">
    <polygon fill="none" fill-rule="evenodd"
        points="10.68 0 0 0 0 19.98 10.68 19.98 21.36 19.98 21.36 0 10.68 0" />
    <polygon fill="none" fill-rule="evenodd"
        points="5.63 4.94 5.63 6.42 5.63 7.89 12.47 7.89 12.47 6.42 12.47 4.94 5.63 4.94" />
    <polygon fill="none" fill-rule="evenodd"
        points="5.63 9.53 5.63 11 5.63 12.47 12.47 12.47 12.47 11 12.47 9.53 5.63 9.53" />
    <line fill="none" stroke="#231f20" stroke-width="0.45" x1="12.38" x2="5.54" y1="4.94"
        y2="4.94" />
    <line fill="none" stroke="#231f20" stroke-width="0.45" x1="5.54" x2="12.38" y1="7.89"
        y2="7.89" />
    <line fill="none" stroke="#231f20" stroke-width="0.45" x1="12.38" x2="5.54" y1="9.51"
        y2="9.51" />
    <line fill="none" stroke="#231f20" stroke-width="0.45" x1="5.54" x2="12.38" y1="12.46"
        y2="12.46" />
    <rect fill="none" height="11.5" width="1.47" x="10.91" y="4.84" />
    <rect fill="none" height="11.5" width="1.47" x="12.38" y="4.84" />
    <line fill="none" stroke="#231f20" stroke-width="0.45" x1="10.91" x2="10.91" y1="4.84"
        y2="16.34" />
    <line fill="none" stroke="#231f20" stroke-width="0.45" x1="13.86" x2="13.86" y1="16.34"
        y2="4.84" />
    <polygon fill="#231f20" fill-rule="evenodd"
        points="12.38 3.66 10.91 3.66 10.91 15.8 12.38 15.8 13.86 15.8 13.86 3.66 12.38 3.66"
        stroke="#231f20" stroke-width="0.45" />
    <path d="M97.88,104.59a3.25,3.25,0,1,0-3.25-3.25A3.25,3.25,0,0,0,97.88,104.59Z" fill="#231f20"
        stroke="#231f20" stroke-width="0.15" transform="translate(-85.5 -85)" />
    <polygon fill="#231f20" points="9.12 3.68 15.64 3.68 12.38 0.42 9.12 3.68" stroke="#231f20"
        stroke-width="0.15" />
</svg>