<svg id="Ebene_1" viewBox="0 0 21.36 19.98" xmlns="http://www.w3.org/2000/svg">
    <polygon fill="none" fill-rule="evenodd"
        points="10.68 0 0 0 0 19.98 10.68 19.98 21.36 19.98 21.36 0 10.68 0" />
    <polygon fill="none" fill-rule="evenodd"
        points="15.15 0.3 13.68 0.3 12.2 0.3 12.2 9.95 15.15 9.95 15.15 0.3" />
    <polygon fill="none" fill-rule="evenodd"
        points="6.89 3.45 6.89 4.93 6.89 6.4 13.73 6.4 13.73 4.93 13.73 3.45 6.89 3.45" />
    <path d="M101.18,105.57a3.25,3.25,0,1,0-3.25-3.25A3.25,3.25,0,0,0,101.18,105.57Z" fill="#231f20"
        stroke="#231f20" stroke-width="0.45" transform="translate(-87.5 -86.11)" />
    <polygon fill="#231f20"
        points="4.52 10.79 7.78 7.53 7.78 9.31 15.15 9.31 15.15 18.44 12.2 18.44 12.2 12.26 7.78 12.26 7.78 14.05 4.52 10.79"
        stroke="#231f20" stroke-width="0.45" />
    <polyline fill="none" fill-rule="evenodd" points="6.88 3.45 12.2 3.45 12.2 0.3" stroke="#231f20"
        stroke-width="0.45" />
    <polyline fill="none" fill-rule="evenodd" points="6.88 6.4 12.2 6.4 12.2 16.21" stroke="#231f20"
        stroke-width="0.45" />
    <line fill="none" stroke="#231f20" stroke-width="0.45" x1="15.15" x2="15.15" y1="16.21"
        y2="0.3" />
</svg>