<svg id="Ebene_1" viewBox="0 0 21.35 21.26" xmlns="http://www.w3.org/2000/svg">
    <polygon fill="none" fill-rule="evenodd"
        points="10.68 1.28 0 1.28 0 21.26 10.68 21.26 21.36 21.26 21.36 1.28 10.68 1.28" />
    <polygon fill="none" fill-rule="evenodd"
        points="11.66 1.69 10.19 1.69 10.19 17.61 11.66 17.61 13.14 17.61 13.14 1.69 11.66 1.69" />
    <path d="M74.7,95.83A3.25,3.25,0,1,1,78,92.59,3.25,3.25,0,0,1,74.7,95.83Z" fill="#231f20"
        stroke="#231f20" stroke-width="0.45" transform="translate(-63 -75.23)" />
    <line fill="none" stroke="#231f20" stroke-width="0.45" x1="13.18" x2="13.18" y1="3.38"
        y2="19.3" />
    <line fill="none" stroke="#231f20" stroke-width="0.45" x1="10.23" x2="10.23" y1="19.3"
        y2="3.38" />
    <line fill="none" stroke="#231f20" stroke-width="0.45" x1="11.73" x2="19.11" y1="5.93"
        y2="5.93" />
    <line fill="none" stroke="#231f20" stroke-width="0.45" x1="19.11" x2="13.37" y1="8.88"
        y2="8.88" />
    <polygon fill="#231f20" fill-rule="evenodd"
        points="11.71 3.34 13.18 3.34 13.18 15.48 11.71 15.48 10.23 15.48 10.23 3.34 11.71 3.34"
        stroke="#231f20" stroke-width="0.45" />
    <polygon fill="#231f20" points="14.96 3.36 8.45 3.36 11.71 0.11 14.96 3.36" stroke="#231f20"
        stroke-width="0.15" />
    <line fill="none" stroke="#231f20" stroke-width="0.45" x1="18.5" x2="13.93" y1="13.45"
        y2="8.88" />
    <line fill="none" stroke="#231f20" stroke-width="0.45" x1="10.68" x2="16.65" y1="9.8"
        y2="15.78" />
</svg>