<svg id="Ebene_1" viewBox="0 0 21.35 21.1" xmlns="http://www.w3.org/2000/svg">
    <polygon fill="none" fill-rule="evenodd"
        points="10.68 1.12 0 1.12 0 21.11 10.68 21.11 21.35 21.11 21.35 1.12 10.68 1.12" />
    <path d="M83.68,95.9a3.25,3.25,0,1,0-3.25-3.25A3.25,3.25,0,0,0,83.68,95.9Z" fill="#231f20"
        stroke="#231f20" stroke-width="0.45" transform="translate(-78 -77.38)" />
    <polygon points="16.72 4.03 19.98 7.28 16.72 10.54 16.72 4.03" stroke="#231f20"
        stroke-width="0.45" />
    <polygon points="16.97 5.81 16.97 8.76 7.15 8.76 7.15 16.25 4.21 16.25 4.21 5.81 16.97 5.81"
        stroke="#231f20" stroke-width="0.45" />
    <line fill="none" stroke="#231f20" stroke-width="0.45" x1="8.62" x2="8.62" y2="6.83" />
    <line fill="none" stroke="#231f20" stroke-width="0.45" x1="11.72" x2="11.72" y1="6.83" />
    <line fill="none" stroke="#231f20" stroke-width="0.45" x1="11.72" x2="11.72" y1="7.52"
        y2="14.35" />
    <line fill="none" stroke="#231f20" stroke-width="0.45" x1="14.66" x2="14.66" y1="14.35"
        y2="7.52" />
</svg>