<svg id="Ebene_1" viewBox="0 0 21.35 21.1" xmlns="http://www.w3.org/2000/svg">
    <polygon fill="none" fill-rule="evenodd"
        points="10.68 1.12 21.35 1.12 21.35 21.11 10.68 21.11 0 21.11 0 1.12 10.68 1.12" />
    <path d="M93.67,95.9a3.25,3.25,0,1,1,3.25-3.25A3.24,3.24,0,0,1,93.67,95.9Z" fill="#231f20"
        stroke="#231f20" stroke-width="0.45" transform="translate(-78 -77.38)" />
    <polygon points="4.63 4.03 1.38 7.28 4.63 10.54 4.63 4.03" stroke="#231f20"
        stroke-width="0.45" />
    <polygon points="4.38 5.81 4.38 8.76 14.2 8.76 14.2 16.25 17.15 16.25 17.15 5.81 4.38 5.81"
        stroke="#231f20" stroke-width="0.45" />
    <line fill="none" stroke="#231f20" stroke-width="0.45" x1="12.74" x2="12.74" y2="6.83" />
    <line fill="none" stroke="#231f20" stroke-width="0.45" x1="9.64" x2="9.64" y1="6.83" />
    <line fill="none" stroke="#231f20" stroke-width="0.45" x1="9.64" x2="9.64" y1="7.52"
        y2="14.35" />
    <line fill="none" stroke="#231f20" stroke-width="0.45" x1="6.69" x2="6.69" y1="14.35"
        y2="7.52" />
</svg>