<svg id="Ebene_1" viewBox="0 0 21.36 19.98" xmlns="http://www.w3.org/2000/svg">
    <polygon fill="none" fill-rule="evenodd"
        points="10.68 0 0 0 0 19.98 10.68 19.98 21.36 19.98 21.36 0 10.68 0" />
    <rect fill="none" height="1.47" width="15.92" x="1.06" y="6.16" />
    <rect fill="none" height="1.47" width="15.92" x="1.06" y="4.69" />
    <line fill="none" stroke="#231f20" stroke-width="0.45" x1="16.97" x2="1.06" y1="4.69"
        y2="4.69" />
    <rect fill="none" height="5.85" width="1.47" x="4.21" y="7.1" />
    <rect fill="none" height="5.85" width="1.47" x="5.68" y="7.1" />
    <polyline fill="none" fill-rule="evenodd" points="4.21 12.95 4.21 7.63 1.05 7.63"
        stroke="#231f20" stroke-width="0.45" />
    <polyline fill="none" fill-rule="evenodd" points="7.16 12.95 7.16 7.63 16.97 7.63"
        stroke="#231f20" stroke-width="0.45" />
    <path d="M93.4,106.9a3.25,3.25,0,1,0-3.25-3.25A3.24,3.24,0,0,0,93.4,106.9Z" fill="#231f20"
        stroke="#231f20" stroke-width="0.45" transform="translate(-81 -89.5)" />
    <polygon points="16.72 2.9 19.98 6.16 16.72 9.42 16.72 2.9" stroke="#231f20"
        stroke-width="0.45" />
    <polygon points="16.97 4.68 16.97 7.63 13.87 7.63 13.87 15.13 10.92 15.13 10.92 4.68 16.97 4.68"
        stroke="#231f20" stroke-width="0.45" />
</svg>