<svg id="Ebene_1" viewBox="0 0 21.36 19.98" xmlns="http://www.w3.org/2000/svg">
    <polygon fill="none" fill-rule="evenodd"
        points="10.68 0 21.36 0 21.36 19.98 10.68 19.98 0 19.98 0 0 10.68 0" />
    <rect fill="none" height="1.47" width="15.92" x="4.38" y="6.16" />
    <rect fill="none" height="1.47" width="15.92" x="4.38" y="4.69" />
    <line fill="none" stroke="#231f20" stroke-width="0.45" x1="4.38" x2="20.3" y1="4.69"
        y2="4.69" />
    <rect fill="none" height="5.85" width="1.47" x="15.67" y="7.1" />
    <rect fill="none" height="5.85" width="1.47" x="14.2" y="7.1" />
    <polyline fill="none" fill-rule="evenodd" points="17.15 12.95 17.15 7.63 20.3 7.63"
        stroke="#231f20" stroke-width="0.45" />
    <polyline fill="none" fill-rule="evenodd" points="14.2 12.95 14.2 7.63 4.38 7.63"
        stroke="#231f20" stroke-width="0.45" />
    <path d="M97,106.9a3.25,3.25,0,1,1,3.25-3.25A3.24,3.24,0,0,1,97,106.9Z" fill="#231f20"
        stroke="#231f20" stroke-width="0.45" transform="translate(-88 -89.5)" />
    <polygon points="4.63 2.9 1.38 6.16 4.63 9.42 4.63 2.9" stroke="#231f20" stroke-width="0.45" />
    <polygon points="4.38 4.68 4.38 7.63 7.48 7.63 7.48 15.13 10.43 15.13 10.43 4.68 4.38 4.68"
        stroke="#231f20" stroke-width="0.45" />
</svg>