<svg id="Ebene_1" viewBox="0 0 21.36 21.16" xmlns="http://www.w3.org/2000/svg">
    <polygon fill="none" fill-rule="evenodd"
        points="4.04 2.33 18.84 2.33 18.84 3.81 2.92 3.81 4.04 2.33" />
    <polygon fill="none" fill-rule="evenodd"
        points="4.04 5.28 2.92 3.81 18.84 3.81 18.84 5.28 4.04 5.28" />
    <line fill="none" stroke="#231f20" stroke-width="0.45" x1="4.04" x2="18.84" y1="2.33"
        y2="2.33" />
    <line fill="none" stroke="#231f20" stroke-width="0.45" x1="18.84" x2="4.04" y1="5.28"
        y2="5.28" />
    <polygon fill="none" fill-rule="evenodd"
        points="10.68 0.09 0 0.09 0 20.07 10.68 20.07 21.36 20.07 21.36 0.09 10.68 0.09" />
    <path d="M92.44,107.79a3.25,3.25,0,1,1,3.24-3.25A3.24,3.24,0,0,1,92.44,107.79Z" fill="#231f20"
        stroke="#231f20" stroke-width="0.45" transform="translate(-81 -86.86)" />
    <polygon fill="none" fill-rule="evenodd"
        points="4.2 9.37 19 9.37 19 10.84 3.08 10.84 4.2 9.37" />
    <polygon fill="none" fill-rule="evenodd"
        points="4.2 12.32 3.08 10.84 19 10.84 19 12.32 4.2 12.32" />
    <line fill="none" stroke="#231f20" stroke-width="0.45" x1="4.2" x2="19" y1="9.37" y2="9.37" />
    <line fill="none" stroke="#231f20" stroke-width="0.45" x1="19" x2="4.2" y1="12.32" y2="12.32" />
    <rect fill="none" height="14.36" width="1.47" x="11.44" y="2.32" />
    <rect fill="none" height="14.36" width="1.47" x="9.96" y="2.32" />
    <line fill="none" stroke="#231f20" stroke-width="0.45" x1="12.91" x2="12.91" y1="2.32"
        y2="16.68" />
    <line fill="none" stroke="#231f20" stroke-width="0.45" x1="9.96" x2="9.96" y1="16.68"
        y2="2.32" />
    <polygon fill="#231f20"
        points="2.28 3.8 5.54 0.55 5.54 2.32 12.91 2.32 12.91 17.55 9.96 17.55 9.96 5.28 5.54 5.28 5.54 7.06 2.28 3.8"
        stroke="#231f20" stroke-width="0.45" />
</svg>