<svg id="Ebene_1" viewBox="0 0 21.36 21.07" xmlns="http://www.w3.org/2000/svg">
    <polyline fill="none" fill-rule="evenodd"
        points="18.84 2.55 18.84 3.72 2.92 3.72 4.04 2.25 18.84 2.25 18.84 2.55" />
    <polygon fill="none" fill-rule="evenodd"
        points="4.04 5.19 2.92 3.72 18.84 3.72 18.84 5.19 4.04 5.19" />
    <line fill="none" stroke="#231f20" stroke-width="0.45" x1="4.04" x2="18.84" y1="2.25"
        y2="2.25" />
    <line fill="none" stroke="#231f20" stroke-width="0.45" x1="18.84" x2="12.83" y1="5.19"
        y2="5.19" />
    <polygon fill="none" fill-rule="evenodd"
        points="10.68 0 0 0 0 19.98 10.68 19.98 21.36 19.98 21.36 0 10.68 0" />
    <path d="M92.44,107.79a3.25,3.25,0,1,1,3.24-3.25A3.24,3.24,0,0,1,92.44,107.79Z" fill="#231f20"
        stroke="#231f20" stroke-width="0.45" transform="translate(-81 -86.95)" />
    <polygon fill="none" fill-rule="evenodd"
        points="4.2 9.28 19 9.28 19 10.75 3.08 10.75 4.2 9.28" />
    <polygon fill="none" fill-rule="evenodd"
        points="4.2 12.23 3.08 10.75 19 10.75 19 12.23 4.2 12.23" />
    <line fill="none" stroke="#231f20" stroke-width="0.45" x1="4.2" x2="19" y1="9.28" y2="9.28" />
    <line fill="none" stroke="#231f20" stroke-width="0.45" x1="19" x2="4.2" y1="12.23" y2="12.23" />
    <line fill="none" stroke="#231f20" stroke-width="0.45" x1="12.85" x2="12.85" y1="5.13"
        y2="19.49" />
    <line fill="none" stroke="#231f20" stroke-width="0.45" x1="9.9" x2="9.9" y1="19.49" y2="5.13" />
    <polyline fill="#231f20"
        points="9.96 18.89 9.96 12.19 5.54 12.19 5.54 13.97 2.28 10.72 5.54 7.46 5.54 9.24 12.91 9.24 12.91 18.89"
        stroke="#231f20" stroke-width="0.45" />
    <line fill="none" stroke="#231f20" stroke-width="0.45" x1="9.98" x2="3.98" y1="5.07"
        y2="5.07" />
</svg>