<svg id="Ebene_1" viewBox="0 0 21.36 20.16" xmlns="http://www.w3.org/2000/svg">
    <line fill="none" stroke="#231f20" stroke-width="0.45" x1="11" x2="18.36" y1="6.08" y2="6.08" />
    <line fill="none" stroke="#231f20" stroke-width="0.45" x1="18.36" x2="11" y1="9.03" y2="9.03" />
    <polygon fill="none" fill-rule="evenodd"
        points="10.68 0.09 21.36 0.09 21.36 20.07 10.68 20.07 0 20.07 0 0.09 10.68 0.09" />
    <path d="M86.94,106.79a3.25,3.25,0,1,1,3.25-3.25A3.24,3.24,0,0,1,86.94,106.79Z" fill="#231f20"
        stroke="#231f20" stroke-width="0.45" transform="translate(-75.5 -86.86)" />
    <rect fill="none" height="14.36" width="1.47" x="11.44" y="2.32" />
    <rect fill="none" height="14.36" width="1.47" x="9.96" y="2.32" />
    <line fill="none" stroke="#231f20" stroke-width="0.45" x1="12.91" x2="12.91" y1="2.32"
        y2="16.68" />
    <line fill="none" stroke="#231f20" stroke-width="0.45" x1="9.96" x2="9.96" y1="16.68"
        y2="2.32" />
    <polygon fill="#231f20"
        points="2.28 3.8 5.54 0.55 5.54 2.32 12.91 2.32 12.91 17.17 9.96 17.17 9.96 5.28 5.54 5.28 5.54 7.06 2.28 3.8"
        stroke="#231f20" stroke-width="0.45" />
    <line fill="none" stroke="#231f20" stroke-width="0.45" x1="4.28" x2="11.64" y1="9.71"
        y2="9.71" />
    <line fill="none" stroke="#231f20" stroke-width="0.45" x1="11.64" x2="4.28" y1="12.66"
        y2="12.66" />
</svg>