<svg id="Ebene_1" viewBox="0 0 21.36 19.98" xmlns="http://www.w3.org/2000/svg">
    <polygon fill="none" fill-rule="evenodd"
        points="10.68 0 0 0 0 19.98 10.68 19.98 21.36 19.98 21.36 0 10.68 0" />
    <path d="M100.12,106.59a3.25,3.25,0,1,0-3.25-3.25A3.24,3.24,0,0,0,100.12,106.59Z" fill="#231f20"
        stroke="#231f20" stroke-width="0.45" transform="translate(-86.5 -87.11)" />
    <polygon fill="#231f20"
        points="4.52 8.56 7.78 5.3 7.78 7.08 15.15 7.08 15.15 16.21 12.2 16.21 12.2 10.03 7.78 10.03 7.78 11.81 4.52 8.56"
        stroke="#231f20" stroke-width="0.45" />
    <line fill="none" stroke="#231f20" stroke-width="0.45" x1="12.95" x2="18.28" y1="7.18"
        y2="1.85" />
    <line fill="none" stroke="#231f20" stroke-width="0.45" x1="20.37" x2="15.12" y1="3.94"
        y2="9.18" />
</svg>