<svg id="Ebene_1" viewBox="0 0 21.36 19.98" xmlns="http://www.w3.org/2000/svg">
    <polygon fill="none" fill-rule="evenodd"
        points="10.68 0 21.36 0 21.36 19.98 10.68 19.98 0 19.98 0 0 10.68 0" />
    <path d="M94.24,106.59a3.25,3.25,0,1,1,3.25-3.25A3.25,3.25,0,0,1,94.24,106.59Z" fill="#231f20"
        stroke="#231f20" stroke-width="0.45" transform="translate(-86.5 -87.11)" />
    <polygon fill="#231f20"
        points="16.83 8.56 13.57 5.3 13.57 7.08 6.2 7.08 6.2 16.21 9.15 16.21 9.15 10.03 13.57 10.03 13.57 11.81 16.83 8.56"
        stroke="#231f20" stroke-width="0.45" />
    <line fill="none" stroke="#231f20" stroke-width="0.45" x1="8.41" x2="3.08" y1="7.18"
        y2="1.85" />
    <line fill="none" stroke="#231f20" stroke-width="0.45" x1="0.99" x2="6.23" y1="3.94"
        y2="9.18" />
</svg>