<svg id="Ebene_1" viewBox="0 0 21.36 19.98" xmlns="http://www.w3.org/2000/svg">
    <polygon fill="none" fill-rule="evenodd"
        points="10.68 0 0 0 0 19.98 10.68 19.98 21.36 19.98 21.36 0 10.68 0" />
    <path d="M90.87,97.22A3.25,3.25,0,1,1,94.12,94,3.26,3.26,0,0,1,90.87,97.22Z" fill="#231f20"
        stroke="#231f20" stroke-width="0.15" transform="translate(-79.5 -79.5)" />
    <path
        d="M97.68,82.66a6.49,6.49,0,0,1-6.52,6.46h0l-6.1,0V86.15h.67l5.43,0a3.54,3.54,0,0,0,3.56-3.53"
        fill="none" fill-rule="evenodd" stroke="#231f20" stroke-width="0.45"
        transform="translate(-79.5 -79.5)" />
    <polygon fill="#231f20"
        points="2.12 8.24 5.38 4.98 5.38 6.76 12.75 6.76 12.75 15.89 9.8 15.89 9.8 9.71 5.38 9.71 5.38 11.49 2.12 8.24"
        stroke="#231f20" stroke-width="0.45" />
</svg>