<svg id="Ebene_1" viewBox="0 0 21.36 19.98" xmlns="http://www.w3.org/2000/svg">
    <polygon fill="none" fill-rule="evenodd"
        points="10.68 0 0 0 0 19.98 10.68 19.98 21.36 19.98 21.36 0 10.68 0" />
    <path d="M85.44,132.58a3.25,3.25,0,1,1,3.25-3.24A3.24,3.24,0,0,1,85.44,132.58Z" fill="#231f20"
        stroke="#231f20" stroke-width="0.45" transform="translate(-75 -113)" />
    <polygon fill="none" fill-rule="evenodd"
        points="16.44 1.08 18.53 3.17 11.91 9.79 11.91 17.58 10.44 17.58 8.96 17.58 8.96 8.56 16.44 1.08" />
    <polyline fill="none" fill-rule="evenodd" points="8.96 17.58 8.96 8.56 16.44 1.08"
        stroke="#231f20" stroke-width="0.45" />
    <polyline fill="none" fill-rule="evenodd" points="18.53 3.17 11.91 9.79 11.91 17.58"
        stroke="#231f20" stroke-width="0.45" />
    <polygon fill="#231f20" fill-rule="evenodd"
        points="6.24 1.66 7.5 0.4 2.89 0.4 2.89 5.01 4.15 3.75 8.96 8.56 8.96 18.17 10.44 18.17 11.91 18.17 11.91 7.33 6.24 1.66"
        stroke="#231f20" stroke-width="0.45" />
</svg>