<svg id="Ebene_1" viewBox="0 0 21.5 22.42" xmlns="http://www.w3.org/2000/svg">
    <polygon fill="none" fill-rule="evenodd"
        points="10.25 0 0 0 0.08 22.33 10.75 22.42 21.5 22.33 21.42 0 10.25 0" />
    <path d="M83.22,125.68a3.25,3.25,0,1,1,3.25-3.24A3.24,3.24,0,0,1,83.22,125.68Z" fill="#231f20"
        stroke="#231f20" stroke-width="0.45" transform="translate(-72.75 -104.17)" />
    <line fill="none" stroke="#231f20" stroke-width="0.45" x1="8.94" x2="12.11" y1="11.64"
        y2="3.58" />
    <line fill="none" stroke="#231f20" stroke-width="0.45" x1="14.86" x2="11.67" y1="4.66"
        y2="12.78" />
    <polyline fill="#231f20" fill-rule="evenodd"
        points="9.12 10.85 9.12 20.46 10.59 20.46 12.07 20.46 12.07 10.77" stroke="#231f20"
        stroke-width="0.45" />
    <polyline fill="#231f20" fill-rule="evenodd"
        points="11.95 11.17 9.33 4.91 10.97 4.22 6.71 2.48 4.96 6.74 6.61 6.05 9.24 12.32"
        stroke="#231f20" stroke-width="0.45" />
</svg>