<svg id="Ebene_1" viewBox="0 0 21.36 19.98" xmlns="http://www.w3.org/2000/svg">
    <polygon fill="none" fill-rule="evenodd"
        points="10.68 0 0 0 0 19.98 10.68 19.98 21.36 19.98 21.36 0 10.68 0" />
    <rect fill="none" height="12.64" width="1.47" x="13.16" y="0.89" />
    <rect fill="none" height="12.64" width="1.47" x="14.64" y="0.89" />
    <line fill="none" stroke="#231f20" stroke-width="0.45" x1="13.16" x2="13.16" y1="0.89"
        y2="13.52" />
    <line fill="none" stroke="#231f20" stroke-width="0.45" x1="16.11" x2="16.11" y1="13.52"
        y2="0.89" />
    <rect fill="none" height="12.64" width="1.47" x="4.93" y="0.89" />
    <rect fill="none" height="12.64" width="1.47" x="6.4" y="0.89" />
    <line fill="none" stroke="#231f20" stroke-width="0.45" x1="4.93" x2="4.93" y1="0.89"
        y2="13.52" />
    <line fill="none" stroke="#231f20" stroke-width="0.45" x1="7.88" x2="7.88" y1="13.52"
        y2="0.89" />
    <path d="M82.89,104.39a3.25,3.25,0,1,0-3.25-3.25A3.25,3.25,0,0,0,82.89,104.39Z" fill="#231f20"
        stroke="#231f20" stroke-width="0.45" transform="translate(-76.5 -85.52)" />
    <polygon
        points="16.12 13.53 16.12 6.15 4.92 6.15 4.92 16.59 7.86 16.59 7.86 9.1 13.16 9.1 13.16 13.53 11.38 13.53 14.64 16.78 17.89 13.53 16.12 13.53"
        stroke="#231f20" stroke-width="0.45" />
</svg>