<svg id="Ebene_1" viewBox="0 0 21.36 19.98" xmlns="http://www.w3.org/2000/svg">
    <polygon fill="none" fill-rule="evenodd"
        points="16.24 6.34 1.44 6.34 1.44 7.81 17.36 7.81 16.24 6.34" />
    <polygon fill="none" fill-rule="evenodd"
        points="16.24 9.29 17.36 7.81 1.44 7.81 1.44 9.29 16.24 9.29" />
    <line fill="none" stroke="#231f20" stroke-width="0.45" x1="16.24" x2="1.44" y1="6.34"
        y2="6.34" />
    <line fill="none" stroke="#231f20" stroke-width="0.45" x1="1.44" x2="16.24" y1="9.29"
        y2="9.29" />
    <polygon fill="none" fill-rule="evenodd"
        points="19.43 6.34 4.63 6.34 4.63 7.81 20.55 7.81 19.43 6.34" />
    <polygon fill="none" fill-rule="evenodd"
        points="19.43 9.29 20.55 7.81 4.63 7.81 4.63 9.29 19.43 9.29" />
    <line fill="none" stroke="#231f20" stroke-width="0.45" x1="19.43" x2="4.63" y1="6.34"
        y2="6.34" />
    <line fill="none" stroke="#231f20" stroke-width="0.45" x1="4.63" x2="19.43" y1="9.29"
        y2="9.29" />
    <polygon fill="none" fill-rule="evenodd"
        points="10.68 0 0 0 0 19.98 10.68 19.98 21.36 19.98 21.36 0 10.68 0" />
    <path d="M86.39,99a3.25,3.25,0,1,0-3.25-3.25A3.26,3.26,0,0,0,86.39,99Z" fill="#231f20"
        stroke="#231f20" stroke-width="0.45" transform="translate(-80 -80)" />
    <polygon
        points="13.16 4.29 13.16 6.32 4.92 6.32 4.92 16.76 7.86 16.76 7.86 9.27 16.14 9.27 16.14 4.29 11.38 4.29 14.64 1.04 17.89 4.29 13.16 4.29"
        stroke="#231f20" stroke-width="0.45" />
</svg>