<svg id="Ebene_1" viewBox="0 0 22.81 20.29" xmlns="http://www.w3.org/2000/svg">
    <polygon fill="none" fill-rule="evenodd"
        points="10.68 0.31 21.36 0.31 21.36 20.29 10.68 20.29 0 20.29 0 0.31 10.68 0.31" />
    <path d="M99.82,108.59a3.25,3.25,0,1,1,3.25-3.25A3.26,3.26,0,0,1,99.82,108.59Z" fill="#231f20"
        stroke="#231f20" stroke-width="0.15" transform="translate(-89.15 -88.69)" />
    <polygon fill="#231f20" points="20.31 3.36 13.79 3.36 17.05 0.11 20.31 3.36" stroke="#231f20"
        stroke-width="0.15" />
    <rect fill="#231f20" height="3" stroke="#231f20" stroke-width="0.45" width="9.07" x="8.94"
        y="7.81" />
    <rect fill="#231f20" height="9" stroke="#231f20" stroke-width="0.45" width="3" x="8.98"
        y="7.87" />
    <rect fill="#231f20" height="9" stroke="#231f20" stroke-width="0.45" width="3" x="15.6"
        y="1.81" />
    <line fill="none" stroke="#231f20" stroke-width="0.45" x1="15.64" x2="15.64" y1="16.93"
        y2="6.9" />
    <line fill="none" stroke="#231f20" stroke-width="0.45" x1="18.6" x2="18.6" y1="16.93"
        y2="6.81" />
    <line fill="none" stroke="#231f20" stroke-width="0.45" x1="12.68" x2="22.71" y1="7.82"
        y2="7.82" />
    <line fill="none" stroke="#231f20" stroke-width="0.45" x1="12.68" x2="22.81" y1="10.85"
        y2="10.85" />
</svg>