<svg id="Ebene_1" viewBox="0 0 21.36 19.98" xmlns="http://www.w3.org/2000/svg">
    <polygon fill="none" fill-rule="evenodd"
        points="10.68 0 0 0 0 19.98 10.68 19.98 21.36 19.98 21.36 0 10.68 0" />
    <rect fill="none" height="1.47" width="6.84" x="10.68" y="7.19" />
    <rect fill="none" height="1.47" width="6.84" x="10.68" y="8.66" />
    <line fill="none" stroke="#231f20" stroke-width="0.45" x1="10.68" x2="17.52" y1="7.19"
        y2="7.19" />
    <line fill="none" stroke="#231f20" stroke-width="0.45" x1="17.52" x2="10.68" y1="10.14"
        y2="10.14" />
    <rect fill="none" height="1.47" width="6.84" x="3.84" y="7.19" />
    <rect fill="none" height="1.47" width="6.84" x="3.84" y="8.66" />
    <line fill="none" stroke="#231f20" stroke-width="0.45" x1="3.84" x2="10.68" y1="7.19"
        y2="7.19" />
    <line fill="none" stroke="#231f20" stroke-width="0.45" x1="10.68" x2="3.84" y1="10.14"
        y2="10.14" />
    <rect fill="none" height="11.5" width="1.47" x="10.68" y="4.84" />
    <rect fill="none" height="11.5" width="1.47" x="9.2" y="4.84" />
    <line fill="none" stroke="#231f20" stroke-width="0.45" x1="12.15" x2="12.15" y1="4.84"
        y2="16.34" />
    <line fill="none" stroke="#231f20" stroke-width="0.45" x1="9.2" x2="9.2" y1="16.34" y2="4.84" />
    <polygon fill="#231f20" fill-rule="evenodd"
        points="10.68 3.66 9.2 3.66 9.2 15.8 10.68 15.8 12.15 15.8 12.15 3.66 10.68 3.66"
        stroke="#231f20" stroke-width="0.45" />
    <path d="M86.68,102.59a3.25,3.25,0,1,0-3.25-3.25A3.26,3.26,0,0,0,86.68,102.59Z" fill="#231f20"
        stroke="#231f20" stroke-width="0.15" transform="translate(-76 -83)" />
    <polygon fill="#231f20" points="7.42 3.68 13.93 3.68 10.68 0.42 7.42 3.68" stroke="#231f20"
        stroke-width="0.15" />
</svg>