<svg id="Ebene_1" viewBox="0 0 21.36 19.98" xmlns="http://www.w3.org/2000/svg">
    <line fill="none" stroke="#231f20" stroke-width="0.45" x1="12.9" x2="18.8" y1="5.22"
        y2="5.22" />
    <line fill="none" stroke="#231f20" stroke-width="0.45" x1="18.8" x2="12.9" y1="8.17"
        y2="8.17" />
    <line fill="none" stroke="#231f20" stroke-width="0.45" x1="9.66" x2="3.97" y1="7.7" y2="9.23" />
    <line fill="none" stroke="#231f20" stroke-width="0.45" x1="4.73" x2="10.42" y1="12.07"
        y2="10.55" />
    <polygon fill="none" fill-rule="evenodd"
        points="10.68 0 21.36 0 21.36 19.98 10.68 19.98 0 19.98 0 0 10.68 0" />
    <path d="M86.6,106.79a3.25,3.25,0,1,1,3.25-3.25A3.25,3.25,0,0,1,86.6,106.79Z" fill="#231f20"
        stroke="#231f20" stroke-width="0.45" transform="translate(-75.33 -87.31)" />
    <polyline fill="#231f20" points="12.74 5.27 12.74 18.72 9.79 18.72 9.79 6.83" stroke="#231f20"
        stroke-width="0.45" />
    <polyline fill="#231f20" fill-rule="evenodd"
        points="12.85 5.22 6.05 3.4 6.51 1.68 2.52 3.98 4.82 7.97 5.28 6.25 11.86 8.01"
        stroke="#231f20" stroke-width="0.45" />
</svg>