<svg id="Ebene_1" viewBox="0 0 21.36 19.98" xmlns="http://www.w3.org/2000/svg">
    <polygon fill="none" fill-rule="evenodd"
        points="10.68 0 21.36 0 21.36 19.98 10.68 19.98 0 19.98 0 0 10.68 0" />
    <polygon fill="none" fill-rule="evenodd"
        points="8.22 7.33 9.26 8.37 10.3 9.41 6.13 13.58 5.09 12.54 4.05 11.5 8.22 7.33" />
    <line fill="none" stroke="#231f20" stroke-width="0.45" x1="8.22" x2="4.05" y1="7.33"
        y2="11.5" />
    <line fill="none" stroke="#231f20" stroke-width="0.45" x1="6.13" x2="10.3" y1="13.58"
        y2="9.41" />
    <circle cx="9.69" cy="16.33" fill="#231f20" r="3.25" stroke="#231f20" stroke-width="0.45" />
    <polygon fill="none" fill-rule="evenodd"
        points="9.69 0.41 11.17 0.41 11.17 16.33 9.69 16.33 8.22 16.33 8.22 0.41 9.69 0.41" />
    <line fill="none" stroke="#231f20" stroke-width="0.45" x1="8.22" x2="8.22" y1="0.41"
        y2="16.33" />
    <line fill="none" stroke="#231f20" stroke-width="0.45" x1="11.17" x2="11.17" y1="16.33"
        y2="0.41" />
    <polygon fill="#231f20" fill-rule="evenodd"
        points="13.89 1.66 12.63 0.4 17.24 0.4 17.24 5.01 15.98 3.75 11.17 8.56 11.17 18.17 9.69 18.17 8.22 18.17 8.22 7.33 13.89 1.66"
        stroke="#231f20" stroke-width="0.45" />
</svg>