<svg id="Ebene_1" viewBox="0 0 21.36 19.98" xmlns="http://www.w3.org/2000/svg">
    <polygon fill="none" fill-rule="evenodd"
        points="10.68 0 0 0 0 19.98 10.68 19.98 21.36 19.98 21.36 0 10.68 0" />
    <polygon fill="none" fill-rule="evenodd"
        points="4.54 2.81 5.58 1.77 6.62 0.72 7.85 1.96 7.85 0.29 9.33 0.29 10.8 0.29 10.8 16.21 9.33 16.21 7.85 16.21 7.85 6.13 4.54 2.81" />
    <line fill="none" stroke="#231f20" stroke-width="0.45" x1="4.5" x2="8.66" y1="2.81" y2="6.98" />
    <path d="M87.29,97.57A3.25,3.25,0,1,0,84,94.32,3.24,3.24,0,0,0,87.29,97.57Z" fill="#231f20"
        stroke="#231f20" stroke-width="0.45" transform="translate(-78 -78.11)" />
    <line fill="none" stroke="#231f20" stroke-width="0.45" x1="10.76" x2="10.76" y1="16.21"
        y2="0.3" />
    <polygon fill-rule="evenodd"
        points="15.53 9.67 10.75 4.89 7.81 6.13 7.81 16.21 10.76 16.21 10.76 9.08 13.44 11.76 12.19 13.02 16.79 13.02 16.79 8.41 15.53 9.67"
        stroke="#231f20" stroke-width="0.45" />
    <polyline fill="none" fill-rule="evenodd" points="7.81 0.29 7.81 1.96 6.58 0.72"
        stroke="#231f20" stroke-width="0.45" />
</svg>