<svg id="Ebene_1" viewBox="0 0 21.36 19.98" xmlns="http://www.w3.org/2000/svg">
    <polygon fill="none" fill-rule="evenodd"
        points="10.68 0 0 0 0 19.98 10.68 19.98 21.36 19.98 21.36 0 10.68 0" />
    <rect fill="none" height="1.47" width="5.9" x="3.11" y="7.33" />
    <rect fill="none" height="1.47" width="5.9" x="3.11" y="8.81" />
    <line fill="none" stroke="#231f20" stroke-width="0.45" x1="9" x2="3.11" y1="7.33" y2="7.33" />
    <line fill="none" stroke="#231f20" stroke-width="0.45" x1="3.11" x2="9" y1="10.28" y2="10.28" />
    <path d="M96.48,104.08a3.25,3.25,0,1,0-3.25-3.24A3.25,3.25,0,0,0,96.48,104.08Z" fill="#231f20"
        stroke="#231f20" stroke-width="0.45" transform="translate(-86 -84.5)" />
    <rect fill="none" height="15.92" width="1.47" x="9" y="0.41" />
    <rect fill="none" height="15.92" width="1.47" x="10.48" y="0.41" />
    <line fill="none" stroke="#231f20" stroke-width="0.45" x1="9" x2="9" y1="0.41" y2="16.33" />
    <line fill="none" stroke="#231f20" stroke-width="0.45" x1="11.95" x2="11.95" y1="16.33"
        y2="0.41" />
    <polygon fill="#231f20" fill-rule="evenodd"
        points="14.67 1.66 13.42 0.4 18.02 0.4 18.02 5.01 16.76 3.75 11.95 8.56 11.95 18.17 10.48 18.17 9 18.17 9 7.33 14.67 1.66"
        stroke="#231f20" stroke-width="0.45" />
</svg>