<svg id="Ebene_1" viewBox="0 0 21.36 19.98" xmlns="http://www.w3.org/2000/svg">
    <polygon fill="none" fill-rule="evenodd"
        points="10.68 0 21.36 0 21.36 19.98 10.68 19.98 0 19.98 0 0 10.68 0" />
    <polygon fill="none" fill-rule="evenodd"
        points="17.29 2.56 19.38 4.65 12.76 11.27 12.76 18.37 11.29 18.37 9.81 18.37 9.81 10.04 17.29 2.56" />
    <polyline fill="none" fill-rule="evenodd" points="9.81 18.37 9.81 10.04 17.29 2.56"
        stroke="#231f20" stroke-width="0.45" />
    <polyline fill="none" fill-rule="evenodd" points="19.38 4.65 12.76 11.27 12.76 18.37"
        stroke="#231f20" stroke-width="0.45" />
    <rect fill="none" height="15.92" width="1.47" x="11.29" y="0.3" />
    <rect fill="none" height="15.92" width="1.47" x="9.81" y="0.3" />
    <line fill="none" stroke="#231f20" stroke-width="0.45" x1="12.76" x2="12.76" y1="0.3"
        y2="16.21" />
    <line fill="none" stroke="#231f20" stroke-width="0.45" x1="9.81" x2="9.81" y1="16.21"
        y2="0.3" />
    <path d="M91.29,98.07a3.25,3.25,0,1,1,3.25-3.25A3.24,3.24,0,0,1,91.29,98.07Z" fill="#231f20"
        stroke="#231f20" stroke-width="0.45" transform="translate(-80 -78.61)" />
    <polyline fill="#231f20" points="12.76 10.08 12.76 16.21 9.81 16.21 9.81 10.03" stroke="#231f20"
        stroke-width="0.45" />
    <polyline fill="#231f20"
        points="9.81 10.03 5.39 10.03 5.39 11.81 2.13 8.56 5.39 5.3 5.39 7.08 12.76 7.08 12.76 10.08"
        stroke="#231f20" stroke-width="0.45" />
</svg>