<svg id="Ebene_1" viewBox="0 0 21.36 19.98" xmlns="http://www.w3.org/2000/svg">
    <line fill="none" stroke="#231f20" stroke-width="0.45" x1="8.95" x2="3.05" y1="5.22"
        y2="5.22" />
    <line fill="none" stroke="#231f20" stroke-width="0.45" x1="3.05" x2="8.95" y1="8.17"
        y2="8.17" />
    <polygon fill="none" fill-rule="evenodd"
        points="10.68 0 0 0 0 19.98 10.68 19.98 21.36 19.98 21.36 0 10.68 0" />
    <path d="M85.42,106.79a3.25,3.25,0,1,0-3.25-3.25A3.25,3.25,0,0,0,85.42,106.79Z" fill="#231f20"
        stroke="#231f20" stroke-width="0.45" transform="translate(-75.33 -87.31)" />
    <polyline fill="#231f20" points="8.61 5.27 8.61 18.72 11.56 18.72 11.56 6.83" stroke="#231f20"
        stroke-width="0.45" />
    <polyline fill="#231f20" fill-rule="evenodd"
        points="9.19 5.25 15.79 7.69 16.41 6.02 18.33 10.2 14.15 12.13 14.77 10.46 8.38 8.1"
        stroke="#231f20" stroke-width="0.45" />
    <line fill="none" stroke="#231f20" stroke-width="0.45" x1="8.5" x2="13.8" y1="5.44" y2="2.86" />
    <line fill="none" stroke="#231f20" stroke-width="0.45" x1="15.09" x2="9.79" y1="5.51"
        y2="8.09" />
    <line fill="none" stroke="#231f20" stroke-width="0.45" x1="10.68" x2="15.98" y1="4.39"
        y2="1.82" />
    <line fill="none" stroke="#231f20" stroke-width="0.45" x1="17.27" x2="11.96" y1="4.47"
        y2="7.04" />
    <path d="M83.64,90.38" fill="none" fill-rule="evenodd" transform="translate(-75.33 -87.31)" />
</svg>