<svg id="Ebene_1" viewBox="0 0 21.36 19.98" xmlns="http://www.w3.org/2000/svg">
    <polygon fill="none" fill-rule="evenodd"
        points="10.68 0 0 0 0 19.98 10.68 19.98 21.36 19.98 21.36 0 10.68 0" />
    <line fill="none" stroke="#231f20" stroke-width="0.45" x1="12.38" x2="18.08" y1="6.76"
        y2="8.29" />
    <line fill="none" stroke="#231f20" stroke-width="0.45" x1="17.31" x2="11.62" y1="11.14"
        y2="9.61" />
    <path d="M86.36,105.54a3.25,3.25,0,1,0-3.25-3.25A3.25,3.25,0,0,0,86.36,105.54Z" fill="#231f20"
        stroke="#231f20" stroke-width="0.45" transform="translate(-75.33 -87.31)" />
    <polyline fill="#231f20" points="9.55 5.56 9.55 17.47 12.5 17.47 12.5 5.58" stroke="#231f20"
        stroke-width="0.45" />
    <polyline fill="#231f20"
        points="9.56 7.16 5.14 7.16 5.14 8.94 1.89 5.69 5.14 2.43 5.14 4.21 12.51 4.21 12.51 7.21"
        stroke="#231f20" stroke-width="0.45" />
    <line fill="none" stroke="#231f20" stroke-width="0.45" x1="16.9" x2="11.35" y1="2.23"
        y2="4.22" />
    <line fill="none" stroke="#231f20" stroke-width="0.45" x1="12.35" x2="17.9" y1="7" y2="5.01" />
    <line fill="none" stroke="#231f20" stroke-width="0.45" x1="14.63" x2="9.08" y1="3.06"
        y2="5.05" />
    <line fill="none" stroke="#231f20" stroke-width="0.45" x1="10.08" x2="15.63" y1="7.83"
        y2="5.84" />
</svg>