<svg id="Ebene_1" viewBox="0 0 21.36 19.98" xmlns="http://www.w3.org/2000/svg">
    <polygon fill="none" fill-rule="evenodd"
        points="10.68 0 21.36 0 21.36 19.98 10.68 19.98 0 19.98 0 0 10.68 0" />
    <line fill="none" stroke="#231f20" stroke-width="0.45" x1="9.41" x2="3.72" y1="7.51"
        y2="9.04" />
    <line fill="none" stroke="#231f20" stroke-width="0.45" x1="4.48" x2="10.17" y1="11.89"
        y2="10.36" />
    <path d="M86.1,106.29A3.25,3.25,0,1,1,89.35,103,3.25,3.25,0,0,1,86.1,106.29Z" fill="#231f20"
        stroke="#231f20" stroke-width="0.45" transform="translate(-75.33 -87.31)" />
    <polyline fill="#231f20" points="12.24 6.31 12.24 18.22 9.29 18.22 9.29 6.33" stroke="#231f20"
        stroke-width="0.45" />
    <polyline fill="#231f20"
        points="12.23 7.91 16.65 7.91 16.65 9.69 19.91 6.44 16.65 3.18 16.65 4.96 9.28 4.96 9.28 7.96"
        stroke="#231f20" stroke-width="0.45" />
    <line fill="none" stroke="#231f20" stroke-width="0.45" x1="4.89" x2="10.44" y1="2.98"
        y2="4.97" />
    <line fill="none" stroke="#231f20" stroke-width="0.45" x1="9.44" x2="3.89" y1="7.75"
        y2="5.76" />
    <line fill="none" stroke="#231f20" stroke-width="0.45" x1="7.16" x2="12.71" y1="3.81"
        y2="5.8" />
    <line fill="none" stroke="#231f20" stroke-width="0.45" x1="11.72" x2="6.16" y1="8.58"
        y2="6.59" />
</svg>