<svg id="Ebene_1" viewBox="0 0 21.35 19.98" xmlns="http://www.w3.org/2000/svg">
    <polygon fill="none" fill-rule="evenodd"
        points="10.68 0 21.36 0 21.36 19.98 10.68 19.98 0 19.98 0 0 10.68 0" />
    <line fill="none" stroke="#231f20" stroke-width="0.45" x1="3.28" x2="9.17" y1="5.34"
        y2="5.34" />
    <line fill="none" stroke="#231f20" stroke-width="0.45" x1="9.17" x2="3.28" y1="8.29"
        y2="8.29" />
    <line fill="none" stroke="#231f20" stroke-width="0.45" x1="8.35" x2="8.35" y1="18.18"
        y2="9.16" />
    <line fill="none" stroke="#231f20" stroke-width="0.45" x1="11.3" x2="11.3" y1="10.39"
        y2="18.18" />
    <path d="M80.32,130.59a3.25,3.25,0,1,0-3.24-3.25A3.25,3.25,0,0,0,80.32,130.59Z" fill="#231f20"
        stroke="#231f20" stroke-width="0.15" transform="translate(-70.5 -111)" />
    <polygon fill-rule="evenodd"
        points="16.07 10.12 11.29 5.34 8.35 5.34 8.35 16.66 11.3 16.66 11.3 9.52 13.98 12.21 12.73 13.46 17.33 13.46 17.33 8.86 16.07 10.12"
        stroke="#231f20" stroke-width="0.45" />
    <line fill="none" stroke="#231f20" stroke-width="0.45" x1="8.35" x2="8.35" y1="15.92" />
    <line fill="none" stroke="#231f20" stroke-width="0.45" x1="11.3" x2="11.3" y1="15.92" />
</svg>