<svg id="Ebene_1" viewBox="0 0 21.35 19.98" xmlns="http://www.w3.org/2000/svg">
    <polygon fill="none" fill-rule="evenodd"
        points="10.68 0 0 0 0 19.98 10.68 19.98 21.36 19.98 21.36 0 10.68 0" />
    <line fill="none" stroke="#231f20" stroke-width="0.45" x1="13.01" x2="13.01" y1="18.18"
        y2="9.16" />
    <line fill="none" stroke="#231f20" stroke-width="0.45" x1="10.06" x2="10.06" y1="10.39"
        y2="18.18" />
    <path d="M82,130.59a3.25,3.25,0,1,1,3.25-3.25A3.26,3.26,0,0,1,82,130.59Z" fill="#231f20"
        stroke="#231f20" stroke-width="0.15" transform="translate(-70.5 -111)" />
    <path d="M75.28,123.1" fill="none" fill-rule="evenodd" stroke="#231f20" stroke-width="0.45"
        transform="translate(-70.5 -111)" />
    <path d="M81.63,120.49" fill="none" fill-rule="evenodd" stroke="#231f20" stroke-width="0.45"
        transform="translate(-70.5 -111)" />
    <line fill="none" stroke="#231f20" stroke-width="0.45" x1="13.01" x2="13.01" y1="15.92" />
    <line fill="none" stroke="#231f20" stroke-width="0.45" x1="10.06" x2="10.06" y1="15.92" />
    <polygon fill="#231f20"
        points="20.68 7.69 17.43 4.43 17.43 6.21 10.06 6.21 10.06 15.34 13.01 15.34 13.01 9.16 17.43 9.16 17.43 10.94 20.68 7.69"
        stroke="#231f20" stroke-width="0.45" />
    <line fill="none" stroke="#231f20" stroke-width="0.45" x1="4.51" x2="10.06" y1="11.96"
        y2="6.21" />
    <line fill="none" stroke="#231f20" stroke-width="0.45" x1="10.86" x2="6.29" y1="9.35"
        y2="13.92" />
</svg>