<svg id="Ebene_1" viewBox="0 0 21.35 20.45" xmlns="http://www.w3.org/2000/svg">
    <polygon fill="none" fill-rule="evenodd"
        points="10.68 0.23 0 0.23 0 20.22 10.68 20.22 21.36 20.22 21.36 0.23 10.68 0.23" />
    <rect fill="none" height="1.47" transform="translate(-114.79 9.94) rotate(-45)" width="6.84"
        x="92.18" y="86.65" />
    <rect fill="none" height="1.47" transform="translate(-114.36 8.93) rotate(-45.01)" width="6.84"
        x="91.14" y="85.61" />
    <line fill="none" stroke="#231f20" stroke-width="0.45" x1="17.53" x2="12.7" y1="2.25"
        y2="7.08" />
    <line fill="none" stroke="#231f20" stroke-width="0.45" x1="10.61" x2="15.45" y1="5" y2="0.16" />
    <path d="M92.39,103.47a3.25,3.25,0,1,1,3.25-3.25A3.24,3.24,0,0,1,92.39,103.47Z" fill="#231f20"
        stroke="#231f20" stroke-width="0.45" transform="translate(-81 -83.25)" />
    <polygon fill-rule="evenodd"
        points="5.15 10.44 11.38 4.21 12.87 2.71 12.87 16.98 9.92 16.98 9.92 9.84 7.24 12.53 8.49 13.78 3.89 13.78 3.89 9.18 5.15 10.44"
        stroke="#231f20" stroke-width="0.45" />
    <line fill="none" stroke="#231f20" stroke-width="0.45" x1="12.54" x2="5.16" y1="3.52"
        y2="3.52" />
    <line fill="none" stroke="#231f20" stroke-width="0.45" x1="5.16" x2="12.54" y1="6.47"
        y2="6.47" />
</svg>