<svg id="Ebene_1" viewBox="0 0 21.36 19.98" xmlns="http://www.w3.org/2000/svg">
    <polygon fill="none" fill-rule="evenodd"
        points="10.68 0 0 0 0 19.98 10.68 19.98 21.36 19.98 21.36 0 10.68 0" />
    <path d="M85.63,96.12a3.25,3.25,0,1,1,3.25-3.25A3.25,3.25,0,0,1,85.63,96.12Z" fill="#231f20"
        stroke="#231f20" stroke-width="0.15" transform="translate(-74 -77.06)" />
    <path
        d="M89.52,83.91A4.2,4.2,0,0,0,87.1,81.5V77.91H84.15V81.5a4.15,4.15,0,0,0-2.41,2.41H78.15v3h3.59a4.15,4.15,0,0,0,2.41,2.41v3.6H87.1v-3.6a4.2,4.2,0,0,0,2.42-2.41h3.59v-3ZM87.1,85.69a1.5,1.5,0,0,1-1.18,1.17h-.58a1.49,1.49,0,0,1-1.19-1.17v-.6a1.52,1.52,0,0,1,1.18-1.18h.6a1.51,1.51,0,0,1,1.17,1.18Z"
        fill="none" transform="translate(-74 -77.06)" />
    <path
        d="M85.93,83.91h-.6a1.52,1.52,0,0,0-1.18,1.18v.6a1.49,1.49,0,0,0,1.19,1.17h.58a1.5,1.5,0,0,0,1.18-1.17v-.6A1.51,1.51,0,0,0,85.93,83.91Z"
        fill="none" stroke="#000" stroke-width="0.45" transform="translate(-74 -77.06)" />
    <path
        d="M84.15,77.91V81.5a4.15,4.15,0,0,0-2.41,2.41H78.15m15,0H89.52A4.2,4.2,0,0,0,87.1,81.5V77.91m0,15v-3.6a4.2,4.2,0,0,0,2.42-2.41h3.59m-15,0h3.59a4.15,4.15,0,0,0,2.41,2.41v3.6m1.77-6h-.58a1.49,1.49,0,0,1-1.19-1.17v-.6a1.52,1.52,0,0,1,1.18-1.18h.6a1.51,1.51,0,0,1,1.17,1.18v.6A1.5,1.5,0,0,1,85.92,86.86Z"
        fill="none" stroke="#000" stroke-width="0.45" transform="translate(-74 -77.06)" />
    <path
        d="M89.52,83.91a4.22,4.22,0,0,0-3.89-2.69,4.28,4.28,0,0,0-1.48.28,4.15,4.15,0,0,0-2.41,2.41H78.15v3h3.59l2.41-1.17v-.6a1.52,1.52,0,0,1,1.18-1.18h.6a1.51,1.51,0,0,1,1.17,1.18v.6a1.5,1.5,0,0,1-1.18,1.17h-.58l-1.19,2.41v3.6H87.1v-3.6a4.19,4.19,0,0,0,2.7-3.88A4.28,4.28,0,0,0,89.52,83.91Z"
        stroke="#231f20" stroke-width="0.45" transform="translate(-74 -77.06)" />
    <polygon points="5.82 5.07 5.82 11.59 2.57 8.33 5.82 5.07" stroke="#231f20"
        stroke-width="0.45" />
</svg>