<svg id="Ebene_1" viewBox="0 0 21.36 19.98" xmlns="http://www.w3.org/2000/svg">
    <polygon fill="none" fill-rule="evenodd"
        points="10.68 0 0 0 0 19.98 10.68 19.98 21.36 19.98 21.36 0 10.68 0" />
    <path d="M92.07,99.3a3.25,3.25,0,1,1,3.24-3.25A3.25,3.25,0,0,1,92.07,99.3Z" fill="#231f20"
        stroke="#231f20" stroke-width="0.15" transform="translate(-82.34 -80.24)" />
    <path
        d="M96,87.09a4.15,4.15,0,0,0-2.41-2.41V81.09h-3v3.59a4.15,4.15,0,0,0-2.41,2.41H84.59v3h3.59a4.15,4.15,0,0,0,2.41,2.41v3.6h3v-3.6A4.15,4.15,0,0,0,96,90h3.6v-3Zm-2.41,1.78A1.51,1.51,0,0,1,92.36,90h-.59a1.51,1.51,0,0,1-1.18-1.17v-.61a1.52,1.52,0,0,1,1.18-1.17h.6a1.51,1.51,0,0,1,1.17,1.17Z"
        fill="none" transform="translate(-82.34 -80.24)" />
    <path
        d="M92.37,87.09h-.6a1.52,1.52,0,0,0-1.18,1.17v.61A1.51,1.51,0,0,0,91.77,90h.59a1.51,1.51,0,0,0,1.18-1.17v-.61A1.51,1.51,0,0,0,92.37,87.09Z"
        fill="none" stroke="#000" stroke-width="0.45" transform="translate(-82.34 -80.24)" />
    <path
        d="M90.59,84.68m0-3.59,0,3.59a4.15,4.15,0,0,0-2.41,2.41m0,0H84.59m15,0H96a4.15,4.15,0,0,0-2.41-2.41m0-3.59,0,3.59,0,11.37v-3.6A4.15,4.15,0,0,0,96,90h3.6m-15,0h3.59a4.15,4.15,0,0,0,2.41,2.41v3.6m1.77-6h-.59a1.51,1.51,0,0,1-1.18-1.17v-.61a1.52,1.52,0,0,1,1.18-1.17h.6a1.51,1.51,0,0,1,1.17,1.17v.61A1.51,1.51,0,0,1,92.36,90Z"
        fill="none" stroke="#000" stroke-width="0.45" transform="translate(-82.34 -80.24)" />
    <path
        d="M96,87.09h0l-2.41,1.17v.61A1.51,1.51,0,0,1,92.36,90h-.59l-1.18,2.41v3.6h3v-3.6A4.15,4.15,0,0,0,96,90h3.6v-3Z"
        stroke="#000" stroke-width="0.45" transform="translate(-82.34 -80.24)" />
    <polygon points="15.53 11.59 15.53 5.07 18.79 8.33 15.53 11.59" stroke="#231f20"
        stroke-width="0.45" />
    <path d="M93.77,84.77a4.14,4.14,0,0,0-3.41,0" fill="none" stroke="#000" stroke-width="0.45"
        transform="translate(-82.34 -80.24)" />
</svg>