<svg id="Ebene_1" viewBox="0 0 21.36 21.24" xmlns="http://www.w3.org/2000/svg">
    <polygon fill="none" fill-rule="evenodd"
        points="10.68 1.15 0 1.15 0 21.13 10.68 21.13 21.36 21.13 21.36 1.15 10.68 1.15" />
    <path d="M90.68,99.2A3.25,3.25,0,1,1,93.93,96,3.24,3.24,0,0,1,90.68,99.2Z" fill="#231f20"
        stroke="#231f20" stroke-width="0.15" transform="translate(-80 -78.04)" />
    <path
        d="M92.15,88.77A1.5,1.5,0,0,1,91,89.94h-.58a1.49,1.49,0,0,1-1.19-1.17v-.6A1.5,1.5,0,0,1,90.38,87H91a1.48,1.48,0,0,1,1.17,1.17Z"
        fill="none" transform="translate(-80 -78.04)" />
    <path
        d="M91,87h-.6a1.5,1.5,0,0,0-1.18,1.17v.6a1.49,1.49,0,0,0,1.19,1.17H91a1.5,1.5,0,0,0,1.18-1.17v-.6A1.48,1.48,0,0,0,91,87Z"
        fill="none" stroke="#000" stroke-width="0.45" transform="translate(-80 -78.04)" />
    <path
        d="M89.2,84.31m0-3.32,0,3.32v.27A4.14,4.14,0,0,0,86.79,87M83.2,87m3.59,0,11.37,0H94.57a4.18,4.18,0,0,0-2.42-2.42v-.2m0,0,0,11.57V92.36a4.17,4.17,0,0,0,2.41-2.42h3.6m-11.37,0-3.59,0,3.59,0a4.17,4.17,0,0,0,2.41,2.42V96m1.77-6h-.58a1.49,1.49,0,0,1-1.19-1.17v-.6A1.5,1.5,0,0,1,90.38,87H91a1.48,1.48,0,0,1,1.17,1.17v.6A1.5,1.5,0,0,1,91,89.94Z"
        fill="none" stroke="#000" stroke-width="0.45" transform="translate(-80 -78.04)" />
    <path
        d="M89.2,84.58,90.38,87H91a1.48,1.48,0,0,1,1.17,1.17v.6A1.5,1.5,0,0,1,91,89.94h-.58L89.2,92.36V96h3V92.36a4.14,4.14,0,0,0,2.41-2.42,4,4,0,0,0,.29-1.47A4.22,4.22,0,0,0,94.57,87a4.16,4.16,0,0,0-2.42-2.42"
        stroke="#231f20" stroke-width="0.45" transform="translate(-80 -78.04)" />
    <path d="M90.63,84l-1.44-3.29-1.35.59-1.35.59,1.44,3.29-.05.18a.55.55,0,0,0,.25-.5"
        stroke="#231f20" stroke-width="0.45" transform="translate(-80 -78.04)" />
    <polygon points="10.66 2 4.68 4.57 6.39 0.29 10.66 2" stroke="#231f20" stroke-width="0.45" />
    <path d="M86.82,86.76a4.18,4.18,0,0,0,.09,3.41" fill="none" stroke="#000" stroke-width="0.45"
        transform="translate(-80 -78.04)" />
    <path d="M92.35,84.61a4.14,4.14,0,0,0-3.41,0" fill="none" stroke="#000" stroke-width="0.45"
        transform="translate(-80 -78.04)" />
    <path
        d="M91.31,84.44h-.06a7.1,7.1,0,0,0-1.12.12,2.84,2.84,0,0,1,1.06.07c.06,0,.06.25,0,.37s-.38.06-.44-.06.13,0,.19-.06"
        fill="none" stroke="#000" transform="translate(-80 -78.04)" />
    <path d="M91.5,84.81c-.44,0-.87.19-1.31-.06.31-.19.69.06,1-.12" fill="none" stroke="#000"
        transform="translate(-80 -78.04)" />
    <path d="M82.88,87.41" fill="none" stroke="#000" transform="translate(-80 -78.04)" />
    <path d="M89.75,85.88v.06a3.3,3.3,0,0,1-1.19-.88c.25,0,.38.19.57.32" stroke="#231f20"
        stroke-width="0.45" transform="translate(-80 -78.04)" />
    <path
        d="M89.44,85.63c0-.25-.31-.38-.31-.57v0c-.19-.06-.38.13-.57,0a1.06,1.06,0,0,0,.94,1.19c-.31-.31-.75-.44-1.06-.81h.31"
        stroke="#231f20" stroke-width="0.45" transform="translate(-80 -78.04)" />
    <line stroke="#231f20" stroke-width="0.45" x1="9.75" x2="8.06" y1="9.08" y2="7.27" />
    <line stroke="#231f20" stroke-width="0.45" x1="9.25" x2="10.06" y1="8.21" y2="8.83" />
    <path d="M93.27,81.27l-1.76,3m2.54,1.49,1.76-3m1.82,5" fill="none" stroke="#000"
        stroke-width="0.45" transform="translate(-80 -78.04)" />
</svg>