<svg id="Ebene_1" viewBox="0 0 21.36 20.19" xmlns="http://www.w3.org/2000/svg">
    <polygon fill="none" fill-rule="evenodd"
        points="10.68 0.1 21.36 0.1 21.36 20.09 10.68 20.09 0 20.09 0 0.1 10.68 0.1" />
    <path d="M90.68,99.2A3.25,3.25,0,1,0,87.43,96,3.25,3.25,0,0,0,90.68,99.2Z" fill="#231f20"
        stroke="#231f20" stroke-width="0.15" transform="translate(-80 -79.09)" />
    <path
        d="M83.2,87v2.94h3.59a4.17,4.17,0,0,0,2.41,2.42V96h3V92.36a4.17,4.17,0,0,0,2.41-2.42h3.6V87h-3.6a4.14,4.14,0,0,0-2.41-2.42V81h-3v3.59A4.14,4.14,0,0,0,86.79,87Zm6,1.17A1.5,1.5,0,0,1,90.38,87H91a1.48,1.48,0,0,1,1.17,1.17v.6A1.5,1.5,0,0,1,91,89.94h-.58a1.49,1.49,0,0,1-1.19-1.17Z"
        fill="none" transform="translate(-80 -79.09)" />
    <path
        d="M90.38,87H91a1.48,1.48,0,0,1,1.17,1.17v.6A1.5,1.5,0,0,1,91,89.94h-.58a1.49,1.49,0,0,1-1.19-1.17v-.6A1.5,1.5,0,0,1,90.38,87Z"
        fill="none" stroke="#000" stroke-width="0.45" transform="translate(-80 -79.09)" />
    <path
        d="M94.56,87a4.14,4.14,0,0,0-2.41-2.42V81m6,6-3.6,0M89.2,81v3.59A4.14,4.14,0,0,0,86.79,87H83.2m0,2.94h3.59a4.17,4.17,0,0,0,2.41,2.42V96m5.36-6,3.6,0-6,6V92.36a4.17,4.17,0,0,0,2.41-2.42M89.2,88.77v-.6A1.5,1.5,0,0,1,90.38,87H91a1.48,1.48,0,0,1,1.17,1.17v.6A1.5,1.5,0,0,1,91,89.94h-.58A1.49,1.49,0,0,1,89.2,88.77Z"
        fill="none" stroke="#000" stroke-width="0.45" transform="translate(-80 -79.09)" />
    <path
        d="M94.56,87a4.14,4.14,0,0,0-2.41-2.42V81h-3v3.59L90.37,87H91a1.5,1.5,0,0,1,1.18,1.17v.6A1.49,1.49,0,0,1,91,89.94h-.58L89.2,92.36V96h3V92.36a4.17,4.17,0,0,0,2.41-2.42,4,4,0,0,0,0-2.94Z"
        stroke="#231f20" stroke-width="0.45" transform="translate(-80 -79.09)" />
    <polygon points="7.42 3.58 13.94 3.58 10.68 0.32 7.42 3.58" stroke="#231f20"
        stroke-width="0.45" />
    <path d="M94.53,86.76a4.14,4.14,0,0,1-.09,3.41" fill="none" stroke="#000" stroke-width="0.45"
        transform="translate(-80 -79.09)" />
</svg>