<svg id="Ebene_1" viewBox="0 0 21.36 19.98" xmlns="http://www.w3.org/2000/svg">
    <polygon fill="none" fill-rule="evenodd"
        points="10.68 0 21.36 0 21.36 19.98 10.68 19.98 0 19.98 0 0 10.68 0" />
    <path d="M94,99.3a3.25,3.25,0,1,0-3.25-3.25A3.26,3.26,0,0,0,94,99.3Z" fill="#231f20"
        stroke="#231f20" stroke-width="0.15" transform="translate(-82.34 -80.24)" />
    <path
        d="M86.49,87.09v3h3.59a4.15,4.15,0,0,0,2.41,2.41v3.6h3v-3.6A4.2,4.2,0,0,0,97.86,90h3.59v-3H97.86a4.17,4.17,0,0,0-2.42-2.41V81.09h-3v3.59a4.15,4.15,0,0,0-2.41,2.41Zm6,1.17a1.52,1.52,0,0,1,1.18-1.17h.6a1.51,1.51,0,0,1,1.17,1.17v.61A1.5,1.5,0,0,1,94.26,90h-.58a1.52,1.52,0,0,1-1.19-1.17Z"
        fill="none" transform="translate(-82.34 -80.24)" />
    <path
        d="M93.67,87.09h.6a1.51,1.51,0,0,1,1.17,1.17v.61A1.5,1.5,0,0,1,94.26,90h-.58a1.52,1.52,0,0,1-1.19-1.17v-.61A1.52,1.52,0,0,1,93.67,87.09Z"
        fill="none" stroke="#000" stroke-width="0.45" transform="translate(-82.34 -80.24)" />
    <path
        d="M95.44,84.68m0-3.59,2.42,6a4.17,4.17,0,0,0-2.42-2.41m6,2.41H97.86m-5.37-2.41a4.15,4.15,0,0,0-2.41,2.41H86.49m6-6,0,3.59-6,5.36h3.59a4.15,4.15,0,0,0,2.41,2.41v3.6m3,0v-3.6A4.2,4.2,0,0,0,97.86,90h3.59m-9-1.17v-.61a1.52,1.52,0,0,1,1.18-1.17h.6a1.51,1.51,0,0,1,1.17,1.17v.61A1.5,1.5,0,0,1,94.26,90h-.58A1.52,1.52,0,0,1,92.49,88.87Z"
        fill="none" stroke="#000" stroke-width="0.45" transform="translate(-82.34 -80.24)" />
    <polygon points="5.82 11.59 5.82 5.07 2.57 8.33 5.82 11.59" stroke="#231f20"
        stroke-width="0.45" />
    <path d="M92.27,84.77a4.14,4.14,0,0,1,3.41,0" fill="none" stroke="#000" stroke-width="0.45"
        transform="translate(-82.34 -80.24)" />
    <path
        d="M97.89,87.06A4.21,4.21,0,0,0,94,84.36a4,4,0,0,0-1.47.29,4.17,4.17,0,0,0-2.42,2.41H86.52v3h3.59l2.42-1.18v-.6a1.48,1.48,0,0,1,1.17-1.17h.6a1.48,1.48,0,0,1,1.17,1.17v.6A1.52,1.52,0,0,1,94.29,90h-.58l-1.18,2.41V96h2.94V92.42A4.17,4.17,0,0,0,97.89,90a4.28,4.28,0,0,0,.28-1.48A4.22,4.22,0,0,0,97.89,87.06Z"
        stroke="#231f20" stroke-width="0.45" transform="translate(-82.34 -80.24)" />
</svg>