<svg id="Ebene_1" viewBox="0 0 21.36 20.09" xmlns="http://www.w3.org/2000/svg">
    <polygon fill="none" fill-rule="evenodd"
        points="10.68 0 0 0 0 19.98 10.68 19.98 21.36 19.98 21.36 0 10.68 0" />
    <path d="M90.68,99.2A3.25,3.25,0,1,1,93.93,96,3.24,3.24,0,0,1,90.68,99.2Z" fill="#231f20"
        stroke="#231f20" stroke-width="0.15" transform="translate(-80 -79.19)" />
    <path
        d="M92.15,88.77A1.5,1.5,0,0,1,91,89.94h-.58a1.49,1.49,0,0,1-1.19-1.17v-.6A1.5,1.5,0,0,1,90.38,87H91a1.48,1.48,0,0,1,1.17,1.17Z"
        fill="none" transform="translate(-80 -79.19)" />
    <path
        d="M91,87h-.6a1.5,1.5,0,0,0-1.18,1.17v.6a1.49,1.49,0,0,0,1.19,1.17H91a1.5,1.5,0,0,0,1.18-1.17v-.6A1.48,1.48,0,0,0,91,87Z"
        fill="none" stroke="#000" stroke-width="0.45" transform="translate(-80 -79.19)" />
    <path
        d="M89.2,84.31m0-3.32,0,3.32v.27A4.14,4.14,0,0,0,86.79,87M83.2,87m3.59,0,11.37,0H94.57a4.18,4.18,0,0,0-2.42-2.42v-.2m0,0,0,11.57V92.36a4.17,4.17,0,0,0,2.41-2.42h3.6m-11.37,0-3.59,0,3.59,0a4.17,4.17,0,0,0,2.41,2.42V96m1.77-6h-.58a1.49,1.49,0,0,1-1.19-1.17v-.6A1.5,1.5,0,0,1,90.38,87H91a1.48,1.48,0,0,1,1.17,1.17v.6A1.5,1.5,0,0,1,91,89.94Z"
        fill="none" stroke="#000" stroke-width="0.45" transform="translate(-80 -79.19)" />
    <path d="M92.35,84.61a4.14,4.14,0,0,0-3.41,0" fill="none" stroke="#000" stroke-width="0.45"
        transform="translate(-80 -79.19)" />
    <path d="M82.88,87.41" fill="none" stroke="#000" transform="translate(-80 -79.19)" />
    <path d="M93.2,81.27l-1.75,3M94,85.75l1.76-3m1.82,5" fill="none" stroke="#000"
        stroke-width="0.45" transform="translate(-80 -79.19)" />
    <path d="M85.45,83.09l2,2.84m2.42-1.69-2-2.84m5.29.41" fill="none" stroke="#000"
        stroke-width="0.45" transform="translate(-80 -79.19)" />
    <path
        d="M94.61,87a4.22,4.22,0,0,0-3.89-2.69,4.28,4.28,0,0,0-1.48.28A4.15,4.15,0,0,0,86.83,87H83.24v3h3.59l2.41-1.17v-.6A1.52,1.52,0,0,1,90.42,87H91a1.51,1.51,0,0,1,1.17,1.18v.6A1.5,1.5,0,0,1,91,89.91h-.58l-1.19,2.42v3.59h3V92.33A4.13,4.13,0,0,0,94.61,87Z"
        stroke="#231f20" stroke-width="0.45" transform="translate(-80 -79.19)" />
    <polygon points="4 12.54 4 6.02 0.75 9.28 4 12.54" stroke="#231f20" stroke-width="0.45" />
</svg>