<svg id="Ebene_1" viewBox="0 0 21.36 19.98" xmlns="http://www.w3.org/2000/svg">
    <polygon fill="none" fill-rule="evenodd"
        points="10.68 0 0 0 0 19.98 10.68 19.98 21.36 19.98 21.36 0 10.68 0" />
    <path d="M101.17,104.28A3.25,3.25,0,1,0,97.92,101,3.25,3.25,0,0,0,101.17,104.28Z" fill="#231f20"
        stroke="#231f20" stroke-width="0.15" transform="translate(-93 -85.5)" />
    <polygon fill="#231f20" points="13.15 1.31 13.15 7.82 16.4 4.57 13.15 1.31" stroke="#231f20"
        stroke-width="0.15" />
    <line stroke="#231f20" stroke-width="0.45" x1="9.64" x2="9.64" y1="9.57" y2="15.01" />
    <path
        d="M102.64,89.64a6.49,6.49,0,0,0-3,5.43h0v6.09h3v-6.1a3.55,3.55,0,0,1,3.54-3.54v-3A6.44,6.44,0,0,0,102.64,89.64Z"
        fill-rule="evenodd" stroke="#231f20" stroke-width="0.45" transform="translate(-93 -85.5)" />
</svg>