<svg id="Ebene_1" viewBox="0 0 21.36 19.98" xmlns="http://www.w3.org/2000/svg">
    <polygon fill="none" fill-rule="evenodd"
        points="10.68 0 0 0 0 19.98 10.68 19.98 21.36 19.98 21.36 0 10.68 0" />
    <polygon fill="none" fill-rule="evenodd" points="9.22 5.04 13.53 0.72 9.22 5.04 9.22 5.04" />
    <polygon fill="none" fill-rule="evenodd"
        points="9.22 5.04 7.08 7.17 7.08 7.17 9.22 5.04 9.22 5.04" stroke="#231f20"
        stroke-width="0.45" />
    <path d="M87,87.5a6.39,6.39,0,0,1,3.54,1.06l.23.16-2.14,2.13a3.57,3.57,0,0,0-1.63-.4"
        fill="none" fill-rule="evenodd" stroke="#231f20" stroke-width="0.45"
        transform="translate(-81.5 -83.69)" />
    <path d="M89.54,91.58l-.06-.07Z" fill-rule="evenodd" transform="translate(-81.5 -83.69)" />
    <path d="M89.14,91.22l.11.08Z" fill-rule="evenodd" transform="translate(-81.5 -83.69)" />
    <path d="M89.25,91.3l.23.21Z" fill-rule="evenodd" transform="translate(-81.5 -83.69)" />
    <path d="M88.93,91.06l.21.16Z" fill-rule="evenodd" transform="translate(-81.5 -83.69)" />
    <path
        d="M88.58,90.85a4.05,4.05,0,0,1,.35.21l.21.16.11.08.23.21.06.07,0,0,.16.2A3.49,3.49,0,0,1,90.49,94v6.1h3V94h0a6.42,6.42,0,0,0-.77-3l4.45-4.45-1.05-1-1-1-4.31,4.31Z"
        fill-rule="evenodd" stroke="#231f20" stroke-width="0.45"
        transform="translate(-81.5 -83.69)" />
    <path d="M92,103.2A3.25,3.25,0,1,1,95.22,100,3.24,3.24,0,0,1,92,103.2Z" fill="#231f20"
        stroke="#231f20" stroke-width="0.15" transform="translate(-81.5 -83.69)" />
    <polygon fill="#231f20" points="15.88 5.07 11.28 0.47 15.88 0.47 15.88 5.07" stroke="#231f20"
        stroke-width="0.15" />
</svg>