<svg id="Ebene_1" viewBox="0 0 21.36 19.98" xmlns="http://www.w3.org/2000/svg">
    <path d="M91.19,105a3.25,3.25,0,1,0-3.25-3.25A3.25,3.25,0,0,0,91.19,105Z" fill="#231f20"
        stroke="#231f20" stroke-width="0.15" transform="translate(-80.5 -85.27)" />
    <polygon fill="#231f20" points="12.41 4.21 18.92 4.21 15.67 0.95 12.41 4.21" stroke="#231f20"
        stroke-width="0.15" />
    <path d="M91.11,92.3a3.54,3.54,0,0,0,3.57-3.51l2.95,0a6.48,6.48,0,0,1-6.55,6.43"
        fill-rule="evenodd" stroke="#231f20" stroke-width="0.45"
        transform="translate(-80.5 -85.27)" />
    <polygon fill="none" fill-rule="evenodd"
        points="10.68 0 21.36 0 21.36 19.98 10.68 19.98 0 19.98 0 0 10.68 0" />
    <path d="M86.26,93.41a6.45,6.45,0,0,0,3.24,1.76l.28,0v-3a3.61,3.61,0,0,1-1.43-.87" fill="none"
        fill-rule="evenodd" stroke="#231f20" stroke-width="0.45"
        transform="translate(-80.5 -85.27)" />
    <path d="M84.59,89.85a6.41,6.41,0,0,0,1.52,3.37c.06.07.13.13.19.19" fill="none"
        fill-rule="evenodd" stroke="#231f20" stroke-width="0.45"
        transform="translate(-80.5 -85.27)" />
    <path d="M88.29,91.52l.07-.12a3.47,3.47,0,0,1-.74-1.5" fill="none" fill-rule="evenodd"
        stroke="#231f20" stroke-width="0.45" transform="translate(-80.5 -85.27)" />
    <path d="M91.2,92.29a3.27,3.27,0,0,1-1.4-.1" fill-rule="evenodd" stroke="#231f20"
        stroke-width="0.45" transform="translate(-80.5 -85.27)" />
    <polyline fill="#231f20" fill-rule="evenodd"
        points="12.2 17.56 12.2 7.43 10.73 7.43 9.26 7.43 9.26 17.63" stroke="#231f20"
        stroke-width="0.45" />
</svg>