<svg id="Ebene_1" viewBox="0 0 21.36 19.98" xmlns="http://www.w3.org/2000/svg">
    <polygon fill="none" fill-rule="evenodd"
        points="10.68 0 0 0 0 19.98 10.68 19.98 21.36 19.98 21.36 0 10.68 0" />
    <polygon fill="none" fill-rule="evenodd"
        points="4.14 1.68 5.18 0.64 10.02 5.47 8.98 6.52 7.94 7.56 3.1 2.72 4.14 1.68" />
    <line fill="none" stroke="#231f20" stroke-width="0.45" x1="5.19" x2="10.02" y1="0.64"
        y2="5.47" />
    <line fill="none" stroke="#231f20" stroke-width="0.45" x1="7.94" x2="3.1" y1="7.56" y2="2.72" />
    <path d="M81.75,98.7a3.25,3.25,0,1,0-3.25-3.25A3.25,3.25,0,0,0,81.75,98.7Z" fill="#231f20"
        stroke="#231f20" stroke-width="0.15" transform="translate(-73.5 -79.27)" />
    <polygon fill="#231f20" points="18.34 3.68 13.73 8.28 18.34 8.28 18.34 3.68" stroke="#231f20"
        stroke-width="0.15" />
    <line stroke="#231f20" stroke-width="0.45" x1="9.72" x2="9.72" y1="10.22" y2="15.66" />
    <path
        d="M83.22,84.06a6.5,6.5,0,0,0-3,5.43h0v6.09h3v-6.1A3.55,3.55,0,0,1,86.76,86V83A6.44,6.44,0,0,0,83.22,84.06Z"
        fill-rule="evenodd" stroke="#231f20" stroke-width="0.45"
        transform="translate(-73.5 -79.27)" />
    <path
        d="M90.31,84.06a6.29,6.29,0,0,1,1.16,1l-1,1-1.08,1.13A3.51,3.51,0,0,0,86.76,86V83A6.45,6.45,0,0,1,90.31,84.06Z"
        fill="#231f20" fill-rule="evenodd" transform="translate(-73.5 -79.27)" />
    <path d="M86.76,83a6.45,6.45,0,0,1,3.55,1.06,6.29,6.29,0,0,1,1.16,1" fill="none"
        fill-rule="evenodd" stroke="#231f20" stroke-width="0.45"
        transform="translate(-73.5 -79.27)" />
    <path d="M89.41,87.16A3.51,3.51,0,0,0,86.76,86" fill="none" fill-rule="evenodd" stroke="#231f20"
        stroke-width="0.45" transform="translate(-73.5 -79.27)" />
</svg>