<svg id="Ebene_1" viewBox="0 0 21.36 19.98" xmlns="http://www.w3.org/2000/svg">
    <polygon fill="none" fill-rule="evenodd"
        points="10.68 0 0 0 0 19.98 10.68 19.98 21.36 19.98 21.36 0 10.68 0" />
    <line stroke="#231f20" stroke-width="0.45" x1="11.71" x2="11.71" y1="9.57" y2="15.01" />
    <path d="M90.94,98.78a3.25,3.25,0,1,1,3.25-3.25A3.24,3.24,0,0,1,90.94,98.78Z" fill="#231f20"
        stroke="#231f20" stroke-width="0.15" transform="translate(-79.5 -79.5)" />
    <path
        d="M95.88,80.75a6.4,6.4,0,0,0-3.54,1,6.47,6.47,0,0,0-3,5.43h0v6.1h3v-6.1a3.53,3.53,0,0,1,3.54-3.54"
        fill="none" fill-rule="evenodd" stroke="#231f20" stroke-width="0.45"
        transform="translate(-79.5 -79.5)" />
    <polygon fill="#231f20"
        points="2.27 8.68 5.53 5.42 5.53 7.2 12.9 7.2 12.9 16.33 9.95 16.33 9.95 10.15 5.53 10.15 5.53 11.93 2.27 8.68"
        stroke="#231f20" stroke-width="0.45" />
</svg>