<svg id="Ebene_1" viewBox="0 0 21.36 21.68" xmlns="http://www.w3.org/2000/svg">
    <polygon fill="none" fill-rule="evenodd"
        points="8.38 0 6.91 0 6.91 6.84 8.38 6.84 9.86 6.84 9.86 0 8.38 0" />
    <polygon fill="none" fill-rule="evenodd"
        points="10.68 1.7 21.36 1.7 21.36 21.68 10.68 21.68 0 21.68 0 1.7 10.68 1.7" />
    <polygon fill="none" fill-rule="evenodd"
        points="17.21 3.38 16.17 2.34 11.33 7.18 12.38 8.22 13.42 9.26 18.25 4.42 17.21 3.38" />
    <line fill="none" stroke="#231f20" stroke-width="0.45" x1="16.17" x2="11.33" y1="2.34"
        y2="7.18" />
    <line fill="none" stroke="#231f20" stroke-width="0.45" x1="13.42" x2="18.25" y1="9.26"
        y2="4.42" />
    <path d="M86.61,98.7a3.25,3.25,0,1,1,3.25-3.25A3.24,3.24,0,0,1,86.61,98.7Z" fill="#231f20"
        stroke="#231f20" stroke-width="0.15" transform="translate(-73.5 -77.57)" />
    <polygon fill="#231f20" points="3.02 5.38 7.62 9.99 3.02 9.99 3.02 5.38" stroke="#231f20"
        stroke-width="0.15" />
    <line stroke="#231f20" stroke-width="0.45" x1="11.63" x2="11.63" y1="11.93" y2="17.36" />
    <path
        d="M85.13,84.06a6.46,6.46,0,0,1,3,5.43h0v6.09h-3v-6.1A3.54,3.54,0,0,0,81.59,86V83A6.39,6.39,0,0,1,85.13,84.06Z"
        fill-rule="evenodd" stroke="#231f20" stroke-width="0.45"
        transform="translate(-73.5 -77.57)" />
    <path
        d="M78.05,84.06a6.29,6.29,0,0,0-1.16,1c.33.33.65.67,1,1L79,87.16A3.51,3.51,0,0,1,81.59,86V83A6.44,6.44,0,0,0,78.05,84.06Z"
        fill="#231f20" fill-rule="evenodd" transform="translate(-73.5 -77.57)" />
    <path d="M81.59,83a6.44,6.44,0,0,0-3.54,1.06,6.29,6.29,0,0,0-1.16,1" fill="none"
        fill-rule="evenodd" stroke="#231f20" stroke-width="0.45"
        transform="translate(-73.5 -77.57)" />
    <path d="M79,87.16A3.51,3.51,0,0,1,81.59,86" fill="none" fill-rule="evenodd" stroke="#231f20"
        stroke-width="0.45" transform="translate(-73.5 -77.57)" />
    <line fill="none" stroke="#231f20" stroke-width="0.45" x1="6.91" x2="6.91" y2="6.84" />
    <line fill="none" stroke="#231f20" stroke-width="0.45" x1="9.86" x2="9.86" y1="6.84" />
</svg>