<svg id="Ebene_1" viewBox="0 0 21.57 19.98" xmlns="http://www.w3.org/2000/svg">
    <path d="M91.11,105a3.25,3.25,0,1,1,3.25-3.25A3.25,3.25,0,0,1,91.11,105Z" fill="#231f20"
        stroke="#231f20" stroke-width="0.15" transform="translate(-80.44 -85.27)" />
    <polygon fill="#231f20" points="8.95 4.21 2.43 4.21 5.69 0.95 8.95 4.21" stroke="#231f20"
        stroke-width="0.15" />
    <path d="M91.19,92.3a3.54,3.54,0,0,1-3.58-3.51l-3,0a6.51,6.51,0,0,0,6.55,6.43"
        fill-rule="evenodd" stroke="#231f20" stroke-width="0.45"
        transform="translate(-80.44 -85.27)" />
    <polygon fill="none" fill-rule="evenodd"
        points="10.68 0 0 0 0 19.98 10.68 19.98 21.36 19.98 21.36 0 10.68 0" />
    <path d="M91.1,92.29a3.45,3.45,0,0,0,1.4-.1" fill-rule="evenodd" stroke="#231f20"
        stroke-width="0.45" transform="translate(-80.44 -85.27)" />
    <polyline fill="#231f20" fill-rule="evenodd"
        points="9.15 17.56 9.15 7.25 10.63 7.25 12.1 7.25 12.1 17.63" stroke="#231f20"
        stroke-width="0.45" />
    <polygon fill="none" fill-rule="evenodd"
        points="15.53 7.96 16.58 6.92 21.41 11.76 20.37 12.8 19.33 13.84 14.49 9.01 15.53 7.96" />
    <line fill="none" stroke="#231f20" stroke-width="0.45" x1="16.58" x2="21.41" y1="6.92"
        y2="11.76" />
    <line fill="none" stroke="#231f20" stroke-width="0.45" x1="19.33" x2="14.49" y1="13.84"
        y2="9.01" />
    <path d="M95.21,94.14a6.51,6.51,0,0,1-2.43,1.07l-.27,0v-3a3.43,3.43,0,0,0,1.44-.87" fill="none"
        fill-rule="evenodd" stroke="#231f20" stroke-width="0.45"
        transform="translate(-80.44 -85.27)" />
    <path d="M98.83,88.79a6.53,6.53,0,0,1-1.52,3.37c-.06.07-.13.13-.2.2" fill="none"
        fill-rule="evenodd" stroke="#231f20" stroke-width="0.45"
        transform="translate(-80.44 -85.27)" />
    <path d="M92.5,92.19a5,5,0,0,0,1-.49,5.28,5.28,0,0,0,2.52-3.57" fill="none" fill-rule="evenodd"
        stroke="#231f20" stroke-width="0.45" transform="translate(-80.44 -85.27)" />
</svg>