<svg id="Ebene_1" viewBox="0 0 21.36 20.5" xmlns="http://www.w3.org/2000/svg">
    <polygon fill="none" fill-rule="evenodd"
        points="10.68 0.52 0 0.52 0 20.5 10.68 20.5 21.36 20.5 21.36 0.52 10.68 0.52" />
    <polygon fill="#231f20" points="18.46 5.41 13.86 0.81 18.46 0.81 18.46 5.41" stroke="#231f20"
        stroke-width="0.15" />
    <path
        d="M79.71,89.07a6.47,6.47,0,0,1,3,5.43h0v6.1h-3v-6.1A3.54,3.54,0,0,0,76.17,91V88A6.38,6.38,0,0,1,79.71,89.07Z"
        fill="none" fill-rule="evenodd" transform="translate(-68.5 -83.5)" />
    <path d="M77.13,88.09a6.49,6.49,0,0,1,5.53,6.41h0v6.1h-3v-6.1A3.54,3.54,0,0,0,76.17,91"
        fill="none" fill-rule="evenodd" stroke="#231f20" stroke-width="0.45"
        transform="translate(-68.5 -83.5)" />
    <path
        d="M72.63,89.07a6.71,6.71,0,0,0-1.16,1c.33.33.65.67,1,1l1.09,1.13A3.54,3.54,0,0,1,76.17,91V88A6.43,6.43,0,0,0,72.63,89.07Z"
        fill="none" fill-rule="evenodd" transform="translate(-68.5 -83.5)" />
    <path d="M81.19,103.71a3.25,3.25,0,1,1,3.25-3.25A3.24,3.24,0,0,1,81.19,103.71Z" fill="#231f20"
        stroke="#231f20" stroke-width="0.15" transform="translate(-68.5 -83.5)" />
    <path d="M79.85,93.18l-1-1-.06-.06a3.5,3.5,0,0,1,1,2.43v6.1h3v-6.1h0a6.48,6.48,0,0,0-.84-3.19Z"
        transform="translate(-68.5 -83.5)" />
    <path d="M81.82,91.31,86.34,87l-1-1-1-1-4.44,4.22A6.53,6.53,0,0,1,81.82,91.31Z" stroke="#231f20"
        stroke-width="0.45" transform="translate(-68.5 -83.5)" />
    <path d="M78.6,91.94l.14.14A1.85,1.85,0,0,0,78.6,91.94Z" stroke="#231f20" stroke-width="0.45"
        transform="translate(-68.5 -83.5)" />
    <path d="M79.85,93.18l2-1.87a6.53,6.53,0,0,0-2-2.17l-2,2,.84.84a1.85,1.85,0,0,1,.14.14l.06.06Z"
        stroke="#231f20" stroke-width="0.45" transform="translate(-68.5 -83.5)" />
    <path d="M74.63,88.2a6.4,6.4,0,0,0-2,.87,6.71,6.71,0,0,0-1.16,1" fill="none" fill-rule="evenodd"
        stroke="#231f20" stroke-width="0.45" transform="translate(-68.5 -83.5)" />
    <path d="M73.53,92.17A3.54,3.54,0,0,1,76.17,91" fill="none" fill-rule="evenodd" stroke="#231f20"
        stroke-width="0.45" transform="translate(-68.5 -83.5)" />
    <line fill="none" stroke="#231f20" stroke-width="0.45" x1="5.86" x2="5.86" y2="4.7" />
    <line fill="none" stroke="#231f20" stroke-width="0.45" x1="8.81" x2="8.81" y1="4.7" />
</svg>