<svg id="Ebene_1" viewBox="0 0 21.36 22.3" xmlns="http://www.w3.org/2000/svg">
    <polygon fill="none" fill-rule="evenodd"
        points="10.68 2.32 21.36 2.32 21.36 22.3 10.68 22.3 0 22.3 0 2.32 10.68 2.32" />
    <polygon fill="#231f20" points="10.29 3.36 16.81 3.36 13.55 0.11 10.29 3.36" stroke="#231f20"
        stroke-width="0.15" />
    <path
        d="M78.64,89.07a6.49,6.49,0,0,0-3,5.43h0v6.1h3v-6.1A3.55,3.55,0,0,1,82.18,91V88A6.43,6.43,0,0,0,78.64,89.07Z"
        fill="none" fill-rule="evenodd" transform="translate(-68.5 -81.7)" />
    <path d="M81.22,88.09a6.49,6.49,0,0,0-5.53,6.41h0v6.1h3v-6.1A3.55,3.55,0,0,1,82.18,91"
        fill="none" fill-rule="evenodd" stroke="#231f20" stroke-width="0.45"
        transform="translate(-68.5 -81.7)" />
    <path
        d="M85.72,89.07a6,6,0,0,1,1.16,1l-1,1-1.08,1.13A3.55,3.55,0,0,0,82.18,91V88A6.38,6.38,0,0,1,85.72,89.07Z"
        fill="none" fill-rule="evenodd" transform="translate(-68.5 -81.7)" />
    <path d="M77.17,103.71a3.25,3.25,0,1,0-3.25-3.25A3.25,3.25,0,0,0,77.17,103.71Z" fill="#231f20"
        stroke="#231f20" stroke-width="0.15" transform="translate(-68.5 -81.7)" />
    <path
        d="M78.51,93.18l1-1,.07-.06a3.51,3.51,0,0,0-1,2.43v6.1h-3v-6.1h0a6.39,6.39,0,0,1,.85-3.19Z"
        transform="translate(-68.5 -81.7)" />
    <path d="M80.65,91.3l-.15-6.24h3l.15,6.12A6.54,6.54,0,0,0,80.65,91.3Z" stroke="#231f20"
        stroke-width="0.45" transform="translate(-68.5 -81.7)" />
    <path d="M79.75,91.94l-.13.14Z" stroke="#231f20" stroke-width="0.45"
        transform="translate(-68.5 -81.7)" />
    <path d="M78.51,93.18l-2-1.87a6.5,6.5,0,0,1,2-2.17l2,2-.84.84-.13.14-.07.06Z" stroke="#231f20"
        stroke-width="0.45" transform="translate(-68.5 -81.7)" />
    <path d="M83.6,88.16a6.43,6.43,0,0,1,2.08,1,6.62,6.62,0,0,1,1.2,1.11" fill="none"
        fill-rule="evenodd" stroke="#231f20" stroke-width="0.45"
        transform="translate(-68.5 -81.7)" />
    <path d="M84.83,92.17A3.55,3.55,0,0,0,82.18,91" fill="none" fill-rule="evenodd" stroke="#231f20"
        stroke-width="0.45" transform="translate(-68.5 -81.7)" />
    <line fill="none" stroke="#231f20" stroke-width="0.45" x1="6.74" x2="10.07" y1="4.06"
        y2="7.38" />
    <line fill="none" stroke="#231f20" stroke-width="0.45" x1="7.98" x2="4.65" y1="9.47"
        y2="6.14" />
    <path d="M79.46,91.9l-1.1-2.49A6.44,6.44,0,0,1,81,88.18l1.14,2.59-1.09.46-.18.07-.09,0Z"
        stroke="#231f20" stroke-width="0.45" transform="translate(-68.5 -81.7)" />
</svg>