<svg id="Ebene_1" viewBox="0 0 22.13 19.98" xmlns="http://www.w3.org/2000/svg">
    <polygon fill="none" fill-rule="evenodd"
        points="11.45 0 22.13 0 22.13 19.98 11.45 19.98 0.78 19.98 0.78 0 11.45 0" />
    <path d="M107,103.08a3.25,3.25,0,1,1,3.25-3.25A3.25,3.25,0,0,1,107,103.08Z" fill="#231f20"
        stroke="#231f20" stroke-width="0.15" transform="translate(-93.08 -84.3)" />
    <polygon fill="#231f20" points="3.36 1.31 3.36 7.82 0.11 4.56 3.36 1.31" stroke="#231f20"
        stroke-width="0.15" />
    <line stroke="#231f20" stroke-width="0.45" x1="12.49" x2="12.49" y1="9.57" y2="15.01" />
    <path
        d="M105.57,88.44a6.47,6.47,0,0,1,3,5.43h0V100h-3v-6.1A3.55,3.55,0,0,0,102,90.33v-3A6.44,6.44,0,0,1,105.57,88.44Z"
        fill-rule="evenodd" stroke="#231f20" stroke-width="0.45"
        transform="translate(-93.08 -84.3)" />
    <line fill="none" stroke="#231f20" stroke-width="0.45" x1="6" x2="6" y1="3.86" y2="10.7" />
    <line fill="none" stroke="#231f20" stroke-width="0.45" x1="8.95" x2="8.95" y1="10.7"
        y2="3.86" />
    <polygon fill="#231f20" fill-rule="evenodd"
        points="8.95 4.57 8.95 3.09 3.2 3.09 3.2 4.57 3.2 6.04 8.95 6.04 8.95 4.57" stroke="#231f20"
        stroke-width="0.45" />
</svg>