<svg id="Ebene_1" viewBox="0 0 22.13 21.12" xmlns="http://www.w3.org/2000/svg">
    <polygon fill="none" fill-rule="evenodd"
        points="10.68 1.14 0 1.14 0 21.12 10.68 21.12 21.36 21.12 21.36 1.14 10.68 1.14" />
    <path d="M101.35,103.08a3.25,3.25,0,1,0-3.24-3.25A3.24,3.24,0,0,0,101.35,103.08Z" fill="#231f20"
        stroke="#231f20" stroke-width="0.15" transform="translate(-93.19 -83.16)" />
    <polygon fill="#231f20" points="18.77 2.44 18.77 8.96 22.02 5.7 18.77 2.44" stroke="#231f20"
        stroke-width="0.15" />
    <line stroke="#231f20" stroke-width="0.45" x1="9.64" x2="9.64" y1="10.71" y2="16.15" />
    <path
        d="M102.83,88.44a6.44,6.44,0,0,0-3,5.43h0V100h3v-6.1a3.54,3.54,0,0,1,3.54-3.54v-3A6.41,6.41,0,0,0,102.83,88.44Z"
        fill-rule="evenodd" stroke="#231f20" stroke-width="0.45"
        transform="translate(-93.19 -83.16)" />
    <line fill="none" stroke="#231f20" stroke-width="0.45" x1="16.13" x2="16.13" y2="6.83" />
    <line fill="none" stroke="#231f20" stroke-width="0.45" x1="13.18" x2="13.18" y1="6.83" />
    <polygon fill="#231f20" fill-rule="evenodd"
        points="13.19 5.7 13.19 4.23 18.93 4.23 18.93 5.7 18.93 7.17 13.19 7.17 13.19 5.7"
        stroke="#231f20" stroke-width="0.45" />
    <line fill="none" stroke="#231f20" stroke-width="0.45" x1="16.13" x2="16.13" y1="4.58"
        y2="11.41" />
    <line fill="none" stroke="#231f20" stroke-width="0.45" x1="13.18" x2="13.18" y1="11.41"
        y2="4.58" />
</svg>