<svg id="Ebene_1" viewBox="0 0 21.35 19.98" xmlns="http://www.w3.org/2000/svg">
    <polygon fill="none" fill-rule="evenodd"
        points="10.68 0 21.36 0 21.36 19.98 10.68 19.98 0 19.98 0 0 10.68 0" />
    <path d="M89.48,97.22A3.25,3.25,0,1,0,86.23,94,3.25,3.25,0,0,0,89.48,97.22Z" fill="#231f20"
        stroke="#231f20" stroke-width="0.15" transform="translate(-79.5 -79.5)" />
    <path d="M81.51,92.71A6.5,6.5,0,0,1,88,86.25h0l6.09,0v3h-.66L88,89.2a3.54,3.54,0,0,0-3.56,3.53"
        fill="none" fill-rule="evenodd" stroke="#231f20" stroke-width="0.45"
        transform="translate(-79.5 -79.5)" />
    <polygon fill="#231f20"
        points="19.23 8.24 15.97 4.98 15.97 6.76 8.6 6.76 8.6 15.89 11.55 15.89 11.55 9.71 15.97 9.71 15.97 11.5 19.23 8.24"
        stroke="#231f20" stroke-width="0.45" />
</svg>