<svg id="Ebene_1" viewBox="0 0 21.36 19.98" xmlns="http://www.w3.org/2000/svg">
    <polygon fill="none" fill-rule="evenodd"
        points="10.68 0 0 0 0 19.98 10.68 19.98 21.36 19.98 21.36 0 10.68 0" />
    <rect fill="none" height="1.47" width="5.9" x="3.8" y="7.4" />
    <rect fill="none" height="1.47" width="5.9" x="3.8" y="8.87" />
    <line fill="none" stroke="#231f20" stroke-width="0.45" x1="9.7" x2="3.8" y1="7.4" y2="7.4" />
    <line fill="none" stroke="#231f20" stroke-width="0.45" x1="3.8" x2="9.7" y1="10.34"
        y2="10.34" />
    <polygon fill="none" fill-rule="evenodd"
        points="17.4 4.35 15.32 2.28 10.7 6.9 10.73 11.03 15.29 15.59 17.4 13.48 12.83 8.92 17.4 4.35" />
    <polyline fill="none" fill-rule="evenodd" points="17.4 13.48 12.83 8.92 17.4 4.35"
        stroke="#231f20" stroke-width="0.45" />
    <polyline fill="none" fill-rule="evenodd" points="15.32 2.28 10.7 6.9 10.73 11.03 15.29 15.59"
        stroke="#231f20" stroke-width="0.45" />
    <polygon fill="#231f20" fill-rule="evenodd"
        points="9.84 3.66 8.36 3.66 8.36 15.8 9.84 15.8 11.31 15.8 11.31 3.66 9.84 3.66"
        stroke="#231f20" stroke-width="0.45" />
    <circle cx="9.84" cy="16.34" fill="#231f20" r="3.25" stroke="#231f20" stroke-width="0.15" />
    <polygon fill="#231f20" points="6.58 3.68 13.09 3.68 9.84 0.42 6.58 3.68" stroke="#231f20"
        stroke-width="0.15" />
</svg>