<svg id="Ebene_1" viewBox="0 0 21.36 19.98" xmlns="http://www.w3.org/2000/svg">
    <polygon fill="none" fill-rule="evenodd"
        points="10.68 0 0 0 0 19.98 10.68 19.98 21.36 19.98 21.36 0 10.68 0" />
    <rect fill="none" height="1.47" width="6.84" x="2.03" y="7.41" />
    <rect fill="none" height="1.47" width="6.84" x="2.03" y="8.88" />
    <line fill="none" stroke="#231f20" stroke-width="0.45" x1="2.03" x2="8.87" y1="7.41"
        y2="7.41" />
    <line fill="none" stroke="#231f20" stroke-width="0.45" x1="8.87" x2="2.03" y1="10.36"
        y2="10.36" />
    <polygon fill="none" fill-rule="evenodd"
        points="9.71 8.85 8.67 9.89 12.84 14.06 13.88 13.02 14.92 11.98 10.75 7.81 9.71 8.85" />
    <line fill="none" stroke="#231f20" stroke-width="0.45" x1="8.67" x2="12.84" y1="9.89"
        y2="14.06" />
    <line fill="none" stroke="#231f20" stroke-width="0.45" x1="14.92" x2="10.75" y1="11.98"
        y2="7.81" />
    <path d="M83,95.58a3.25,3.25,0,1,0-3.25-3.24A3.25,3.25,0,0,0,83,95.58Z" fill="#231f20"
        stroke="#231f20" stroke-width="0.45" transform="translate(-74.5 -76)" />
    <polygon fill="none" fill-rule="evenodd"
        points="8.53 0.41 7.05 0.41 7.05 16.33 8.53 16.33 10 16.33 10 0.41 8.53 0.41" />
    <line fill="none" stroke="#231f20" stroke-width="0.45" x1="7.05" x2="7.05" y1="0.42"
        y2="16.33" />
    <line fill="none" stroke="#231f20" stroke-width="0.45" x1="10" x2="10" y1="16.33" y2="0.42" />
    <polygon fill="#231f20" fill-rule="evenodd"
        points="12.72 1.66 11.47 0.4 16.07 0.4 16.07 5.01 14.81 3.75 10 8.56 10 18.17 8.53 18.17 7.05 18.17 7.05 7.33 12.72 1.66"
        stroke="#231f20" stroke-width="0.45" />
</svg>