<svg id="Ebene_1" viewBox="0 0 21.36 19.98" xmlns="http://www.w3.org/2000/svg">
    <polygon fill="none" fill-rule="evenodd"
        points="10.68 0 0 0 0 19.98 10.68 19.98 21.36 19.98 21.36 0 10.68 0" />
    <line fill="none" stroke="#231f20" stroke-width="0.45" x1="15.11" x2="10.94" y1="2.58"
        y2="6.75" />
    <rect fill="none" height="1.47" width="6.84" x="3.16" y="7.79" />
    <rect fill="none" height="1.47" width="6.84" x="3.16" y="9.26" />
    <line fill="none" stroke="#231f20" stroke-width="0.45" x1="10" x2="3.16" y1="7.79" y2="7.79" />
    <line fill="none" stroke="#231f20" stroke-width="0.45" x1="3.16" x2="10" y1="10.74"
        y2="10.74" />
    <polygon fill="none" fill-rule="evenodd"
        points="15.07 5.18 14.02 4.14 12.98 3.1 11.75 4.33 11.75 2.67 10.28 2.67 8.8 2.67 8.8 18.58 10.28 18.58 11.75 18.58 11.75 8.5 15.07 5.18" />
    <line fill="none" stroke="#231f20" stroke-width="0.45" x1="8.86" x2="8.86" y1="18.15"
        y2="2.23" />
    <path d="M80.75,108.69a3.25,3.25,0,1,0-3.25-3.25A3.26,3.26,0,0,0,80.75,108.69Z" fill="#231f20"
        stroke="#231f20" stroke-width="0.45" transform="translate(-70.27 -89.39)" />
    <rect fill="none" height="1.47" width="6.84" x="10.35" y="7.77" />
    <rect fill="none" height="1.47" width="6.84" x="10.35" y="9.24" />
    <line fill="none" stroke="#231f20" stroke-width="0.45" x1="17.19" x2="10.35" y1="7.77"
        y2="7.77" />
    <line fill="none" stroke="#231f20" stroke-width="0.45" x1="10.35" x2="17.19" y1="10.71"
        y2="10.71" />
    <polygon fill="#231f20" fill-rule="evenodd"
        points="14.6 2.38 13.34 1.13 17.95 1.13 17.95 5.73 16.69 4.47 11.88 9.28 11.88 18.89 10.4 18.89 8.93 18.89 8.93 8.05 14.6 2.38"
        stroke="#231f20" stroke-width="0.45" />
    <line fill="none" stroke="#231f20" stroke-width="0.45" x1="12.02" x2="12.02" y1="18.2"
        y2="2.28" />
</svg>