<svg id="Ebene_1" viewBox="0 0 21.36 19.98" xmlns="http://www.w3.org/2000/svg">
    <polygon fill="none" fill-rule="evenodd"
        points="10.68 0 0 0 0 19.98 10.68 19.98 21.36 19.98 21.36 0 10.68 0" />
    <rect fill="none" height="1.47" width="6.84" x="10.68" y="7.19" />
    <rect fill="none" height="1.47" width="6.84" x="10.68" y="8.66" />
    <line fill="none" stroke="#231f20" stroke-width="0.45" x1="14.06" x2="17.52" y1="7.19"
        y2="7.19" />
    <line fill="none" stroke="#231f20" stroke-width="0.45" x1="17.52" x2="10.68" y1="10.14"
        y2="10.14" />
    <rect fill="none" height="1.47" width="6.84" x="3.84" y="7.19" />
    <rect fill="none" height="1.47" width="6.84" x="3.84" y="8.66" />
    <line fill="none" stroke="#231f20" stroke-width="0.45" x1="3.84" x2="10.68" y1="7.19"
        y2="7.19" />
    <line fill="none" stroke="#231f20" stroke-width="0.45" x1="10.68" x2="3.84" y1="10.14"
        y2="10.14" />
    <polyline fill="#231f20" fill-rule="evenodd"
        points="9.28 7.31 9.28 17.64 10.75 17.64 12.22 17.64 12.22 7.31" stroke="#231f20"
        stroke-width="0.45" />
    <path d="M86.68,102.59a3.25,3.25,0,1,0-3.25-3.25A3.26,3.26,0,0,0,86.68,102.59Z" fill="#231f20"
        stroke="#231f20" stroke-width="0.15" transform="translate(-76 -83)" />
    <line fill="none" stroke="#231f20" stroke-width="0.45" x1="5.45" x2="9.78" y1="3.97"
        y2="11.19" />
    <line fill="none" stroke="#231f20" stroke-width="0.45" x1="10.7" x2="8.12" y1="6.74"
        y2="2.44" />
    <line fill="none" stroke="#231f20" stroke-width="0.45" x1="13.33" x2="10.67" y1="2.59"
        y2="7.03" />
    <line fill="none" stroke="#231f20" stroke-width="0.45" x1="16" x2="14.15" y1="4.13" y2="7.21" />
    <line fill="none" stroke="#231f20" stroke-width="0.45" x1="14.15" x2="14.07" y1="7.21"
        y2="7.35" />
    <line fill="none" stroke="#231f20" stroke-width="0.45" x1="12.39" x2="11.67" y1="10.14"
        y2="11.34" />
    <polygon fill="#231f20"
        points="1.59 8.74 4.85 5.48 4.85 7.26 12.22 7.26 12.22 16.39 9.27 16.39 9.27 10.21 4.85 10.21 4.85 11.99 1.59 8.74"
        stroke="#231f20" stroke-width="0.45" />
    <path d="M86.75,90" fill="none" fill-rule="evenodd" stroke="#231f20" stroke-width="0.45"
        transform="translate(-76 -83)" />
</svg>