<svg id="Ebene_1" viewBox="0 0 19.98 21.35" xmlns="http://www.w3.org/2000/svg">
    <polygon fill="none" fill-rule="evenodd"
        points="4.33 1.93 2.26 4 6.89 8.63 11.01 8.6 15.57 4.04 13.47 1.93 8.9 6.5 4.33 1.93" />
    <polyline fill="none" fill-rule="evenodd" points="13.47 1.93 8.9 6.5 4.33 1.93" stroke="#231f20"
        stroke-width="0.45" />
    <polyline fill="none" fill-rule="evenodd" points="2.26 4 6.89 8.63 11.01 8.6 15.57 4.04"
        stroke="#231f20" stroke-width="0.45" />
    <rect fill="none" height="1.47" width="15.92" x="0.3" y="8.63" />
    <rect fill="none" height="1.47" width="15.92" x="0.3" y="10.11" />
    <line fill="none" stroke="#231f20" stroke-width="0.45" x1="0.3" x2="16.21" y1="8.63"
        y2="8.63" />
    <line fill="none" stroke="#231f20" stroke-width="0.45" x1="16.21" x2="0.3" y1="11.58"
        y2="11.58" />
    <path d="M97.69,102.91a3.25,3.25,0,1,1-3.25-3.25A3.25,3.25,0,0,1,97.69,102.91Z" fill="#231f20"
        stroke="#231f20" stroke-width="0.45" transform="translate(-86.19 -85.43)" />
    <polygon fill="#231f20"
        points="17.7 10.12 14.44 6.87 14.44 8.64 7.07 8.64 7.07 17.78 10.02 17.78 10.02 11.6 14.44 11.6 14.44 13.38 17.7 10.12"
        stroke="#231f20" stroke-width="0.45" />
    <polygon fill="none" fill-rule="evenodd"
        points="0 10.68 0 21.36 19.98 21.36 19.98 10.68 19.98 0 0 0 0 10.68" />
</svg>