<svg id="Ebene_1" viewBox="0 0 21.36 21.2" xmlns="http://www.w3.org/2000/svg">
    <polygon fill="none" fill-rule="evenodd"
        points="10.68 0.98 0 0.98 0 20.96 10.68 20.96 21.36 20.96 21.36 0.98 10.68 0.98" />
    <rect fill="none" height="1.47" transform="translate(-114.79 10.69) rotate(-45)" width="6.84"
        x="92.18" y="86.65" />
    <rect fill="none" height="1.47" transform="translate(-114.36 9.62) rotate(-44.99)" width="6.84"
        x="91.14" y="85.61" />
    <line fill="none" stroke="#231f20" stroke-width="0.45" x1="17.54" x2="12.7" y1="2.99"
        y2="7.83" />
    <line fill="none" stroke="#231f20" stroke-width="0.45" x1="10.62" x2="15.45" y1="5.74"
        y2="0.91" />
    <path d="M92.39,103.47a3.25,3.25,0,1,1,3.25-3.25A3.24,3.24,0,0,1,92.39,103.47Z" fill="#231f20"
        stroke="#231f20" stroke-width="0.45" transform="translate(-81 -82.5)" />
    <polygon fill-rule="evenodd"
        points="5.15 11.18 11.38 4.96 12.87 3.46 12.87 17.72 9.92 17.72 9.92 10.59 7.24 13.27 8.49 14.53 3.89 14.53 3.89 9.92 5.15 11.18"
        stroke="#231f20" stroke-width="0.45" />
    <polyline fill="none" fill-rule="evenodd" points="12.93 16.66 12.93 7.64 5.45 0.16"
        stroke="#231f20" stroke-width="0.45" />
    <polyline fill="none" fill-rule="evenodd" points="3.36 2.25 9.98 8.87 9.98 16.66"
        stroke="#231f20" stroke-width="0.45" />
    <line fill="none" stroke="#231f20" stroke-width="0.45" x1="10.45" x2="18.45" y1="7.83"
        y2="7.83" />
    <line fill="none" stroke="#231f20" stroke-width="0.45" x1="18.45" x2="10.45" y1="10.78"
        y2="10.78" />
</svg>