<svg id="Ebene_1" viewBox="0 0 21.35 19.98" xmlns="http://www.w3.org/2000/svg">
    <polygon fill="none" fill-rule="evenodd"
        points="10.68 0 21.36 0 21.36 19.98 10.68 19.98 0 19.98 0 0 10.68 0" />
    <line fill="none" stroke="#231f20" stroke-width="0.45" x1="5.98" x2="1.96" y1="7.06"
        y2="7.06" />
    <line fill="none" stroke="#231f20" stroke-width="0.45" x1="1.96" x2="11.44" y1="10.01"
        y2="10.01" />
    <rect fill="none" height="15.92" width="1.47" x="8.44" y="0.3" />
    <rect fill="none" height="15.92" width="1.47" x="9.92" y="0.3" />
    <line fill="none" stroke="#231f20" stroke-width="0.45" x1="8.44" x2="8.44" y1="0.3" y2="5.44" />
    <line fill="none" stroke="#231f20" stroke-width="0.45" x1="11.39" x2="11.39" y1="16.21"
        y2="0.3" />
    <path d="M99.42,108.07a3.25,3.25,0,1,0-3.25-3.25A3.25,3.25,0,0,0,99.42,108.07Z" fill="#231f20"
        stroke="#231f20" stroke-width="0.45" transform="translate(-89.5 -88.61)" />
    <polygon fill="#231f20"
        points="19.12 8.56 15.86 5.3 15.86 7.08 8.49 7.08 8.49 16.21 11.44 16.21 11.44 10.03 15.86 10.03 15.86 11.81 19.12 8.56"
        stroke="#231f20" stroke-width="0.45" />
    <line fill="none" stroke="#231f20" stroke-width="0.45" x1="8.29" x2="4.05" y1="5.3" y2="1.05" />
    <line fill="none" stroke="#231f20" stroke-width="0.45" x1="1.96" x2="5.81" y1="3.14"
        y2="6.98" />
</svg>